<?xml version="1.0" encoding="utf-8"?>
<!-- Generator: Adobe Illustrator 25.0.1, SVG Export Plug-In . SVG Version: 6.00 Build 0)  -->
<svg version="1.0" id="katman_1" xmlns="http://www.w3.org/2000/svg" xmlns:xlink="http://www.w3.org/1999/xlink" x="0px" y="0px"
	 viewBox="0 0 3079.3 2151.4" style="enable-background:new 0 0 3079.3 2151.4;" xml:space="preserve">
<style type="text/css">
	.st0{fill:#FFFFFF;}
</style>
<path d="M2270.3,791.9c3.5,3.9,9.5,2.8,12,8.1c-8.5,11.3-24.4,11-37.4,14.5c-37.8,9.2-79.5,2.4-112-14.5l-1.4,1.1
	c4.2,12,25.4,19,17.3,35c-8.8,13.4-29.3,7.4-41.3,5.3c-31.4-9.5-59-28.2-87.9-42.7l-1.4,1.4c16.6,13.1,35.3,21.5,51.9,34.6
	c1.4,10.3-10.3,11.3-15.9,15.9c-25.4,2.4-49.1-7.4-70.6-18.7c-4.9,6.3,8.8,8.1,3.9,16.2c-11,12.7-25.8,14.5-41.3,10.6
	c-8.1-3.5-18.4-4.2-22.6-13.4c-2.8-0.4-5,0.4-6.7,2.8c0,13.4,22.2,10.9,17.3,24c-10.6,9.5-23,23-37.4,15.9c-6.7,3.5-18.7-1-25.4-1.4
	c-1.1-3.2,2.8-4.2,4.2-6.7c9.9,2.5,1.7-12,12-10.6c0.4-1.8-1-4.2,1.1-5.3c2.3,3,5.8,5,9.5,5.3c2.5-3.9-3.5-7.8-5.3-12l3.9-3.9
	c0.7,1.7,2.8,1.4,3.9,1.4c-2.1-6.7,3.2-16.6,9.5-18.7l6.7,3.9c4.3-4.2-5.6-9.2,1.4-13.4c4.6,1.4,6.4,8.1,12,8.1
	c2.4-3.5-2.8-7.1-4.2-10.6c4.2-4.2,6,5.3,10.6,3.9c2.5-5.3-3.5-10.6-5.3-15.9c5.3,1.4,7.8,8.8,13.4,9.2c2.5-6.4-6.3-11.7-9.1-17.3
	c-10.6,1.8-17,11.7-25.5,17.3c-89,108.8-120.1,241.6-149.4,375.1c-7.1,6-19.1-1.1-25.5,6.7c-21.2-5.2-41.5-13.8-60-25.4
	c-1.8-4.2,8.8-7.1,1.4-10.6c-5.3,0-12.7,6-16.2,0c12,0,35.3-8.1,36,12c2.5-0.4,5.3,1,6.7-1.4c-1.7-7.1-12.3-16.6,0-21.2
	c12-5.3,29.3-1.8,41.3-2.8c1.4-1.8,3.9-2.8,2.8-5.3c-6.7-4.2-17.7-3.2-25.4-1.4c-9.5,3.9-21.9,2.1-29.3,12
	c-11.3,1.1-17.7-7.4-22.6-15.9c-0.4-10.3,5.3-17.7,7.8-26.9c-26.5-2.1-55.4-2.1-79.8,5.3l-29.3-30.7l14.5-7.8
	c31.1-4.2,62.6-4.2,93.6,0c-9.9,3.2-26.1-1.4-35,3.9c16.2,0.4,30.4,4.2,45.5,6.7c-14.5,2.1-33.2-3.9-49.5,0v1.4l62.9,9.2
	c2.8,3.9,6.7,6,10.6,6.7c2.5-6.7-7.1-14.5,3.9-18.7c0-1.8,0.4-5.6-2.5-5.3c-7.1-2.1-8.5,9.9-16.2,6.7c-8.8-4.9-15.2-15.2-10.6-25.4
	l-1.4-1.4l-9.2,6.7c-39.6-3.5-79.1,0.4-116.2,6.7c-6.3-6.7-18-14.5-10.6-24c36.8-29.7,95.8-33.6,140.2-17.3
	c-23.3-2.5-53.3-7.1-76.3-1.4v1.4c27.9,2.5,58.3-0.7,83,9.5c-29.7-0.4-63.3-11.3-93.6-1.4v1.4c30.5-1.5,61,1.1,90.8,7.8v1.4
	c-28.6-4.9-64-2.4-93.6,2.8v1.1c30.4,1.4,61.5-3.2,90.8,4.2l21.5-12c8.1,20.5,32.5,12.7,50.5,14.5c1.1-1.4,3.5-1.8,2.8-3.9
	c-14.1-13.8-37.5,10.9-44.2-10.6c1.1-4.6,8.1-6.3,5.3-12c-3.9-2.4-7.8,3.5-12,5.3c-8.8-5.3-23-7.4-25.1-20.1
	c-2.1-13.4,13.4-18.4,21.2-25.5l14.8-3.9c3.9,4.7,8.9,8.3,14.5,10.6c3.9-8.1-6.3-10.3-6.7-18.7l12-6.7c-14.1-8.8-15.2,18-30.7,6.7
	l-2.5,2.8c-28.7-1.3-57.5,1.3-85.5,7.8c21.9,0,47.7-4.6,70.6-2.4c-8.8,2.4-23.3,0.4-30.7,6.7c8.5,4.6,17.7-4.3,25.4,2.4
	c-4.2,5.3-14.1,0.4-17.3,6.7c2.5,3.5,7.8-1,9.5,4.2l-4.2,3.9c-38.2-4.1-76.9,0-113.4,12c5.6-30.4,41-42.4,66.7-50.9
	c19.4-3.2,39.2-4.6,60.1-3.9c-6,1.7-15.2,1.7-21.2,5.3c9.9,4.9,24.4,1.8,34.6,2.8c-4.9-6.3-7.8-17-2.8-24
	c15.2-17,34.6-22.6,54.7-26.9c4.9,5.6,5.7,9.9,13.4,12c6.3-9.2-5.7-11.3-5.3-20.2l-2.8-2.4c-8.8,12.3-27.2,2.8-37.5,13.4
	c-8.1,2.8-12-4.6-12-11c3.2-32.5,41-38.5,65.7-48l5.3,8.1c-7.4,4.6-18.7,1.4-24,8.1c14.1,0,28.9,1.4,42.7,0
	c-0.7-7.8-23.7-10.9-9.5-22.6c0.4-2.1-0.4-4.6-2.5-4.2c-4.9-1.8-6.3,3.5-9.5,5.3c-20.2,3.9-39.9,7.8-57.2,17.3
	c-2.4-8.1-4.6-21.9-17.3-14.5l-41.7,18.7c18-22.6,42-47,68.2-52.3c-11.6,2.1-4.2,10.6-14.5,14.8c16.6,8.1,24.4-13.4,38.5-15.9
	c13.8-6.3,27.9-11.3,42.7-14.8c2.4,2.1,1.1,5.3,1.4,8.1c-5.3,2.1-13.1,2.1-16.2,7.8c11.6-0.7,27.5,2.4,38.8-2.5
	c0.7-11-14.8,0-14.5-10.6c0-5.6,9.1-8.8,3.9-14.8c-5.6-1.8-8.1,5.3-12,8.1c-15.9,0-29.7,4.6-44.2,7.8c-0.4-24.7,29.7-39.6,49.5-48
	c20.2-6.3,41.7-8.8,62.9-13.1v-1.4h-40.3c76.3-63.2,189.7-48.4,283-33.6C2168.6,746.7,2218.8,771.1,2270.3,791.9L2270.3,791.9z"/>
<path d="M1388,854.8c87.2,128.6,175.6,305.2,337.7,355l12,14.5c-16.2,4.9-41.7-0.7-46.6,20.1c-1.4,1.8-3.5,2.8-2.5,5.3l2.5,2.8
	c-6.3,4.9-15.9,2.1-22.6,0c-5.7-11.3-8.5,3.2-14.8,2.5c-10.6,2.1-18-3.5-25.1-9.2c-3.9-4.6-6.7-9.5-5.3-16.2
	c5.3-4.3,14.8-2.8,22.6-5.3v-2.5c-9.2-3.2-22.6,1.4-26.9-9.5h-2.5c5.6,11.3-10.3,12.3-17.7,13.4c-7.1-0.7-15.2-2.8-18.4-10.6
	c0.6-5.5,2.8-10.6,6.3-14.8c7.8,3.2,17,1.4,21.5-6.7v-1.1c-8.5-5.6-19.8,10.6-24-2.8c2.8-5.7,11.3-4.9,12-10.6
	c-6-1.4-13.8,1.4-18.7,6.7c-2.1,6.7,4.6,13.8-5.3,14.5c-12.7,1.8-24,3.2-36-1.4c-15.9-7.1-2.8-19.8,0-29.3c6.7-5.3,13.8-18,22.6-9.2
	c7.8,0,11.6-8.5,15.9-13.4c-9.9-6.7-9.5,14.8-19.8,6.7l-9.5-9.2l-3.9,7.8c-17.3-1.4-39.6,5.7-49.5-12c-2.4-7.4,4.2-11,6.7-15.9
	c3.9-0.4,8.8,1.1,12-1.4c-2.8-5.3-15.5-4.6-13.4-14.5c-1.7-0.7-2.4,1.4-3.9,2.4c-0.7,3.5,1.7,7.8-2.8,9.5
	c-17.6,0.7-40.3,0.7-49.1-17.7c-0.4-8.5-0.7-17.3,6.7-22.6c6-1.7,16.6,10.3,19.8,0c-6.7-4.2-19.4-6.3-18.7-17.3
	c-5.6,3.9-3.9,14.8-14.5,13.4c-17-0.4-35-2.5-42.7-18.7c-4.2-9.2,3.5-16.2,6.7-24c4.6-3.2,14.5,6.3,15.9-2.8
	c-1.8-3.2-4.9-2.4-8.1-2.4c-5.3-3.2-0.7-11-7.8-12c0,12.7-14.5,7.8-21.6,12c-17.3-1.1-37.1-2.5-45.2-20.2
	c-1.4-11.3,4.6-19.8,13.4-26.5c6.3-0.4,15.9,6.7,19.8-1.4c-8.5,0-17.3-3.9-21.2-12c0-1.4,0.4-3.5-1.4-4.2c-5.3,0.7-0.7,8.1-3.9,11
	c-16.1,4.9-33.5,1.9-47-8.1c-7.1-9.1-9.5-21-6.3-32.1c1.8-4.2,6-11.3,12-6.7c4.6,0.4,8.1,7.1,13.1,2.8c-4.3-6.7-18.4-7.4-17.3-18.7
	c-7.4-1.8-1.7,7.1-5.3,9.5c-18,4.9-35.3-3.9-51.9-2.8c-0.7,3.9-3.5,10.6-8.1,9.2c-2.8-6.3,12.3-18-2.8-21.2
	c-5.3-4.6-6.3-12.3-3.9-18.7c3.9-9.1,9.2,0.7,13.4,1.4c6.7,0,14.1,6,20.1,0c-10.3-4.9-26.9-5.3-32.1-18.7
	c0.7,16.6-20.5,7.4-29.3,8.1c-6.2-2.1-11.5-6.4-14.8-12c-2.8-6-0.7-13.1,4.2-17.7c5.3-7.1,14.8,2.5,22.6-2.4
	c7.8-4.2,17-7.1,22.6-13.4c-15.2-5.3-27.6,21.2-42.7,3.9l-6.7,5.6c-20.9,4.6-43.8-0.7-55.8-16.2c-0.4-7.4-0.7-14.5,6.4-18.7
	c5.3,0,11,6,14.8,0c-4.6-4.2-15.2-6.7-14.8-15.9c-1.8-0.7-2.5,1.7-3.9,2.8c0.4,2.1-1.1,5.3,1.4,6.3l-2.8,2.8
	c-32.1,5.7-67.8,0.4-90.8-22.6c-2.8,3.5-0.4,7.8,2.8,10.6c0.7,2.1-1.8,2.8-2.8,3.9c-52.6,16.6-104.5,35.3-153.3,61.5
	c7.1-0.4,7.8,5.7,14.5,5.3c3.5-4.6,9.2-13.4,16.2-7.8c7.1-2.8,7.8-11.7,15.9-12c2.1,3.2-3.9,5.3,0,7.8c4.2-4.2,6.3-12.3,13.4-13.4
	l1.4,12c8.1-5.3,4.2-18,15.9-19.8l2.8,7.8c6.3-3.5,2.4-14.1,12-14.5l2.4,9.2c3.2-2.8,4.2-6.7,8.1-9.2l6.7,3.9
	c3.5-2.8,3.2-7.8,7.8-10.6c7.1,3.9,9.5,0.7,13.4-5.3c4.9-0.4,1,5.3,3.9,6.7l8.1-10.6l3.9,5.3c4.2-5.3,7.1-15.2,16.2-9.5
	c2.6-0.5,5.2,0.6,6.7,2.8c0.4,1.8-2.4,2.8-1.4,5.3l1.4,1.4c1.2-2.6,3-5,5.3-6.7c3.2-1.4,4.2,2.4,6.7,3.9c-0.7,2.1-1.8,3.9-1.4,6.7
	l1.4,1.4c2.4-1.8,3.9-6.3,7.8-5.3c8.1,14.1-13.8,10.3-19.8,18.7c-33.6,15.2-67.8,28.6-102.8,39.9c-7.8,2.4-1.7,10.6-5.3,14.8
	c-30.7,27.2-65.3,46.3-97.5,69.2c-36,22.6-72,45.2-108.1,68.2v2.4c5.7,1.8,21.2,3.9,17.3-6.7c14.5,7.1,10.6-14.8,25.4-7.8
	c0.4-4.9,3.9-8.8,9.1-8.1c1.8-0.4,4.2,1.1,5.3-1.4c-1.1-1.4-3.2-1.7-2.4-3.9c13.1-2.1,20.8-17,36-14.8c-6.3-14.1,25.4,1.4,12-14.5
	c4.9-6.7,20.5,2.5,14.5-8.1c3.9-3.2,11.7,1.4,13.4-3.9l-2.8-2.8l16.2-2.4l-2.8-5.3c6-2.8,10.6,0.7,16.2-4.2l-5.6-3.9
	c7.4-3.9,22.2,2.1,29.7-5.3h3.9c-26.1,16.6-53.4,30-77.3,51.9c2.1,3.5,0,8.8,2.5,12c1.4-8.4,7-15.4,14.8-18.7
	c5.7,4.6-5.3,9.9-1.4,14.8c11.3-6,3.9-27.2,21.6-26.9l2.4,9.5c4.9-6.7,4.2-18,14.8-20.2l1.1,12c6.7-6.3,4.2-20.9,16.2-24l3.9,3.9
	c4.9-3.9,0.4-14.5,9.5-14.5l2.5,12c5.6-3.2,2.1-19.4,10.6-12c0.4,2.1-0.7,5.3,1.4,6.7l6.7-9.5c4.9,8.1,17.7-6.3,18.7,8.1
	c3.9-0.4,6.7-9.1,10.6-5.3c-62.2,55.1-133.2,96.4-198.9,146.6c-112,61.1-216.1,142.3-341.6,171c-11.4-1.1-29.4,3.5-36.1-9.2
	c4.9-40.6,49.5-45.9,75.9-64.3c8.8-2.8,20.2,6.3,24-2.5c-3.9-1.4-7.4-3.2-12-2.8c4.9-8.5,15.2,1.1,22.6-3.9c1.8-4.6-3.5-3.2-5.3-5.3
	c7.1-7.4,18.7,3.2,26.9-4.3l-14.8-5.3l23-2.4c-4.9-4.6-11.6-2.4-16.2-6.7c10.6-4.2,20.5,2.8,30.7-1.4c-1.7-5.6-9.2-2.8-13.4-5.3
	c7.1-1.1,22.6,2.4,29.7-2.8l-6.7-2.4l19.8-1.4c-0.4-4.6-5.7-2.8-7.8-5.3c2.8-7.1,23.7,3.9,17.3-10.6c5.3-1.1,13.4,2.1,15.9-2.8
	l-2.4-2.4c3.5-5.7,11.3-0.7,15.9-4.2l-3.9-3.9c12.3,2.8,12-16.2,26.5-9.5c-5.7-13.1,12-6,18.7-7.8l1.4-1.4l-4.2-3.9l13.4-4.2
	l-2.4-5.3c5.6,0,11.6,0.7,15.9-2.5c-1.4-1.1-2.1-3.5-3.9-2.8c2.8-5.6,13.1,0.4,17.3-5.3l-5.3-3.9c5.3-3.5,13.8,1,18.7-4.2
	c-2.4-7.1-6.3,2.4-9.5-2.5c4.9-5.6,15.2,0.4,20.2-5.3l-6.7-2.8c4.6-5.3,13.4-0.7,18.7-3.9l-9.5-8.1
	c-62.2,32.5-120.8,74.8-185.4,101.4c-2.8-6.7,6-12.7,1.4-19.8c-39.9,54.4-104.2,79.1-164.3,100c-29.4,5.9-64.7,24.3-93.3,3.8
	c0.4-13.4,12.7-21.5,22.6-29.3c144.5-104.5,300.2-188.3,453.9-273.4c24-11,46.6-25.5,70.6-36c4.6-14.1,20.2-20.1,30.7-28.2
	c54.4-24,107.7-49.1,164.3-68.2c17.7-32.1,58.6-30.4,89.4-42.4C1228.3,710.7,1331.1,763,1388,854.8L1388,854.8z M2746.8,1068.2
	c16.6,13.1,32.5,27.9,42.7,45.5c-4.9,13.1-19.8,13.4-32.1,14.5c-54.1-0.7-95.4-31.8-139.9-54.7L2353,905.3
	c-36-20.8-71.4-43.5-108.1-62.5c-3.9-3.9-4.2-9.1-3.9-14.8c2.1-0.4,3.9,3.2,5.3,0v-1.4c5.3,2.5,3.9,9.5,8.1,13.4l1.4-14.8
	c1.1,5.6,2.8,12,7.8,14.8v-13.4c5,3.2,1.1,10.6,6.7,12l2.8-2.4c2.8,5.7,4.2,12.3,9.1,17.3c5-6-3.2-10.3-2.4-16.2l9.2,12
	c3.2-6-2.8-12-2.8-18.4l-14.5-10.9c5.3,1.1,16.6,3.9,24,2.8l-3.9,5.3c9.2,5.3,19,1.1,29.3,1.4c-2.1-4.6-12-1.4-12-8.1l-11-5.3
	c0.7-0.7,1.8-1.4,1.4-2.8l-6.7-3.9C2449.4,882.7,2604.1,961.5,2746.8,1068.2L2746.8,1068.2z M2178.1,829.4l17.6,1.4
	c-2.8,3.2-10.9-2.1-9.5,5.3c9.5,1.1,19,3.5,29.3,2.4c-1.8,2.8-8.1,1.1-9.2,5.3c8.8,2.1,17.7,5.3,27.9,4.2l-10.6,2.4l25.4,5.3
	c-2.8,0.4-6-0.7-8.1,1.4c6.7,3.9,15.2,3.9,22.6,5.3c-3.2,3.5-13.4-1.1-15.9,4.2l29.3,5.3l-15.9,2.5c10.3,6.7,24.7,3.5,36,8.1
	l-24,1.4c4.9,3.5,12.7,5.7,19.8,6.7c6-1.1,11,1.4,16.2,2.5c-4.9,0.4-11-1.1-14.8,1.4c11.7,4.9,25.1,6.3,37.4,9.2
	c-12.3-0.7-25.8-3.5-37.4-2.4l5.3,3.9l49.5,9.5c-11,0.4-22.2-6.3-32.1-1.4c10.6,6.7,24.7,3.2,36,8.1l-9.2,2.5
	c7.8,4.9,19.8,6.3,29.3,9.5c-7.1,0-16.6-4.9-21.2,0l49.1,12c-8.5,0-24-6-34.6,0c14.1,6.7,32.5,4.2,46.7,10.6
	c-9.5-0.4-19.4-4.9-29.3-1.4v2.8c16.2,5.7,35,4.9,50.9,10.6c-13.1-3.2-27.6-5.6-41.3-2.8c27.2,13.4,63.9,4.6,86.6,29.3
	c-12-0.7-24.7-3.5-36-2.4c19.8,8.8,44.2,7.1,62.9,18.7c-9.5,1.4-21.9-7.1-33.6-4.2c15.9,9.9,36.4,7.8,52.3,17.3
	c-15.9-1.4-32.1-7.4-48-5.3c20.9,10.3,47.7,12,70.7,20.1c-17,2.1-30.4-9.2-46.6-5.3l3.9,3.9c23,4.2,47,7.1,68.2,16.2
	c-14.5,0.7-31.1-7.8-45.5-2.8c18.4,7.1,39.2,7.8,57.6,14.8c-18-0.4-33.9-10.3-51.9-6.7c27.6,9.9,58.6,12,85.1,24
	c23,19.4,48.4,42,64.3,66.8c1.4,9.2-1.4,19.1-10.6,21.2c-47.7,1.4-85.8-28.3-126.8-46.7c-99.6-63.9-195-137.8-291-209.5
	c-12,1.4-23-3.2-33.6-1.4c9.5,7.8,24,7.1,36,10.6c-7.4,3.9-17.7-8.1-26.5,0l36,10.6h-21.5c12.7,7.1,28.3,7.8,41.3,13.4h-18.4
	c9.2,8.1,24.4,6,36,12l-21.6,1.4c11.7,6,26.5,4.2,37.5,12c-7.4,4.2-19.8-3.2-25.5,1.4l2.8,2.4c13.1,3.2,27.2,4.6,39.9,9.5
	c-10.1-2.1-20.6-2.1-30.7,0l42.7,12c-8.5-1.8-21.2-3.2-27.9,1.1l42.7,11c-7.4-1.8-17-2.4-24,0l3.9,3.9c15.2,1.8,29.3,7.1,44.2,10.6
	c-12,0-26.1-6-36,0c18.4,7.4,39.9,6.7,57.2,16.2l-17.3,1.1c15.9,7.8,38.5,5.3,48,23c-12.7-0.4-24.4-7.1-37.4-2.8l2.8,2.8
	c15.9,2.5,31.8,5.3,48,7.8c-11.3,3.2-22.2-0.4-34.6,2.8c15.9,2.1,31.1,6.3,48,6.7l3.9,3.9c-8.8-1.8-21.5-2.8-27.9,1.4l48.1,10.6
	c-8.5-2.1-24.7-2.1-36,0c12.3,5.6,27.2,4.9,39.9,10.6c-8.5-1.1-20.9-3.2-26.9,1.4c39.9,8.8,90.8,14.8,104.2,61.5
	c1.1,5.6-5.6,9.2-9.1,12c-17.3,7.8-32.5-4.6-48-8.1c-125.8-58.6-240.6-158.6-341.9-261.4c-15.9-10.6-26.1-25.8-38.5-38.8
	c1.1-4.9-2.5-12.7,2.4-14.5l6.7,13.1c1.8-1.4,1.8-3.9,4.2-5.3c5.3,3.2,5.3,13.4,12,10.6c10.6,7.8,9.9,20.5,17.3,29.7l1.1-11
	c17.6,9.2,14.8,30.1,26.9,41.3c5.6-6.7-4.9-12.3-1.4-18.4c13.8,6,13.1,21.5,22.6,29.3l1.4-9.5c13.8,6,12.3,20.8,22.6,29.3
	c4.6-3.9-2.5-8.5,0-12c9.9,6,15.5,15.9,18.7,25.4l5.3-5.3c14.5,7.1,15.2,23.3,25.4,32.1c3.2-3.2,0-6.7-1.4-9.5c11,3.5,18,14.8,23,24
	l3.9-3.9c15.9,8.1,16.2,24.7,26.9,36c2.1-4.2-4.6-9.9-1.4-14.8c18,7.4,18.7,26.9,30.7,38.8c4.6-6-4.6-11.3-2.8-15.9
	c17.3,3.9,15.6,23,29.3,31.8c4.3-3.5-1.4-6.7-1-10.6c11.6,3.5,18.4,16.2,25.1,25.4c8.8-10.6,17,9.9,26.9,10.6
	c8.5,5.6,11.7,18.4,22.6,13.4c6.7,6.7,16.2,12,24,12l-110.6-78.8l-165.7-137.4c-27.2-27.9-61.8-50.9-87.9-78.8
	c13.1-0.7,20.9,5.3,30.8,10.6c2.1-0.4,5.3,1.1,6.3-1.4c-3.9-14.5-29.7-13.1-21.2-29.3c1.4,1.1,2.1,3.5,3.9,2.8
	c1.1-5.3,4.9-12-1-16.2C2165.8,822.7,2177.8,819.2,2178.1,829.4L2178.1,829.4z"/>
<path d="M1109.3,836.1c-44.9,20.5-90.4,38.1-133.5,62.5v1.4c8.1,1.1,15.2-6.7,24-8.1v8.1l22.6-17.3c0,4.6-11,12.3-10.6,18.7
	c14.5-4.3,14.1-23,27.9-26.9c3.9,6-13.4,10.9-7.8,18.7c11-5.3,13.8-18.7,22.6-24c0.4,1.8-1.1,4.2,1.4,5.3c6-5.3,9.5-17.7,18.4-14.5
	c-1.4,3.9-7.4,7.8-5.3,12l16.2-17.3l2.4,2.4c4.6-4.2,14.1-17.3,20.2-6.7c2.8-2.8,3.2-8.1,8.1-9.2c3.5,2.5-1.1,5.3-1.4,7.8l1.4,1.4
	l10.6-10.6l1.4,13.4c2.1-1.8,3.9-4.9,6.7-5.3l2.5,7.8l8.1-5.3c0,4.2,4.6,7.4,7.8,4.2l1.4,1.1c-55.7,30.8-115.4,53.7-177.3,68.2
	c-17,1-35.3,0.4-42.7-14.5c9.5-30.4,43.8-35.7,66.7-50.9c26.1-4.9,51.2-33.6,79.8-13.4c1.8-0.4,4.6,1.1,5.3-1.4
	c-2.1-12.7-15.9-3.2-25.1-7.8c10.3-6,26.9,6,37.4,0c-6.3-5.7-16.6-2.8-24.4-5.3l1.4-2.8C1087,830.1,1099.7,828.7,1109.3,836.1
	L1109.3,836.1z M2093,850.6c-4.2,7.1-9.9-2.1-14.8,2.8l26.9,9.2l-10.9,1.4c6.7,9.5,24,2.1,25.4,15.9c3.5,0.7,6.7,1.1,9.5,2.8
	c-3.5,4.9-9.9-4.2-13.4,2.8c7.1,2.4,14.1,5.3,21.2,7.8l-7.8,2.8c4.9,4.9,14.1,6.3,21.2,9.2l-14.9,1.4c7.4,7.4,20.5,7.1,29.7,13.4
	c-0.4,2.1-7.4,0.4-5.3,5.3c5.3,4.2,13.1,2.1,18.4,6.7c-6.3,0.4-16.6-4.6-24-2.8c10.6,8.1,25.4,9.5,37.4,16.2l-9.1,1.1
	c5.3,4.9,14.1,7.1,21.2,10.9l-18.7,1.1c10.6,7.1,25.8,7.8,37.4,14.8l-10.6,2.4c7.8,6,17.7,5.3,25.4,10.9l-16.2,2.5
	c12.3,5.3,24.4,11.6,37.5,14.8H2241c8.5,7.1,21.2,7.8,30.7,14.5c2.5,2.4-8.1-4.9-10.6,1.4c9.2,3.9,18.7,8.1,27.9,12
	c-6,2.1-15.9-3.9-24,0c12,9.9,29.3,7.8,41.3,17.3c-4.2,2.1-12.3-3.9-18.7,0c11.3,7.1,27.2,9.1,38.8,17.3c-11-5.6-25.8-5.6-37.5-5.3
	c9.9,7.1,25.4,5.6,37.5,11c32.9,6.3,57.2,42.4,66.7,72c-3.2,5.3-6.3,13.1-13.4,14.5c-43.8-5.7-76.3-38.1-112-62.5
	c-75.3-63.3-145.1-133.1-208.4-208.4c-0.7-6.9,0.6-14,3.9-20.1c2.8,7.4,0,17.7,4.2,24c3.2-6.3-1.4-15.9,3.9-21.2
	c1.8,8.5,1.8,17.7,5.3,25.4c3.9-4.6-2.1-15.5,5.3-16.2c4.9,9.9,1.4,23.7,9.5,30.7l1.4-17.3c6,9.5,3.9,23.3,12,30.7
	c2.4-5.3-1.4-12.7,0-17.3l7.8,22.6l2.8-12c8.8,11.6,11,26.1,17.3,38.8c4.6-7.4-3.5-12.7-2.8-20.1c7.8,9.9,11.3,23.7,18.7,34.6
	c3.9-6-3.9-12-1.1-17.3c10.6,13.4,14.5,30,24,44.2c2.1-7.8-2.1-15.5-5.7-22.6c11.3,8.1,10.6,25.1,21.5,33.2
	c1.7-5.3-3.2-11.3-3.9-17.3c12,9.5,15.9,25.4,25.1,37.5c4.2-6.7-5.3-11.3-3.9-18.7c17,6.7,18.4,26.1,30.7,36l1.4-6.7
	c15.2,9.5,21.2,25.8,31.8,38.8c3.9-4.9-2.8-8.5-2.5-13.4c14.8,8.1,20.2,26.9,33.2,37.4c4.9-4.6-3.5-6.3-2.4-10.9
	c12,7.1,30.7,25.1,48,33.6l1.4-1.4c-98.2-80.2-199.6-171.3-281.9-269.5C2073.6,850.6,2084.9,844.2,2093,850.6L2093,850.6z"/>
<path d="M2014.2,857.3c2.4,6.7,11.3,3.5,15.9,8.1l-12,1.4c4.9,3.5,11.6,3.5,17.3,5.3l-6.7,2.5c4.9,3.5,12,4.9,16.2,8.1l-6.7,1.4
	c2.4,5.7,20.8,4.6,13.1,13.4l11,5.3c-1.4,1.4-3.9,2.8-2.8,5.3l8.1,3.9c-4.6,8.1,8.1,7.1,10.6,10.6c-2.4-2.1-6.3-1.1-9.1-1.1
	l-1.4,1.1c4.2,6,13.8,5.7,19.8,9.5l-9.2,1.4c4.2,5.7,14.1,6.4,18.7,10.6l-6.7,2.5c6,6,17.3,4.2,20.2,12l5.3,4.2L2105,964l18.4,9.5
	c-3.5,2.1-11.6-3.9-17.3,0c8.5,4.9,17.3,8.5,26.9,10.6l-10.6,1.4c6.3,7.8,18.7,6.4,26.5,12l-14.5,1.4l22.6,10.6
	c-5.6-0.4-11.6-4.9-17.3-1.4c8.5,7.1,21.9,7.8,32.1,14.8c-4.6-1.4-11-3.2-14.9-1.4c5,5.7,14.9,4.9,21.2,10.6c-1.4,0.4-4.2-1-5.3,1.4
	c3.5,4.9,11,6.3,16.2,9.2l-5.3,2.8c5.6,5.6,15.5,5.6,22.6,10.6c-1.4-0.4-2.1,0.7-2.8,1.4c16.2,9.2,33.2,17.7,44.2,36
	c2.8,5.3,5.6,12.3,2.5,18.7c-24.7,14.8-47-9.5-67.8-20.1c-68.2-50.2-121.5-118.3-169.6-182.6c0.4-9.5-4.2-17-2.8-26.9
	c5.6,4.9,4.9,14.8,10.9,21.2l2.5-5.3c12,8.8,10.6,26.9,21.5,36l1.1-6.7c13.1,8.5,12,29,25.4,30.7c9.1,10.3,14.5,23,21.5,32.1
	l1.1-5.3c12,8.1,14.1,23.3,24,32.1l2.8-2.8c9.9,20.1,30.7,22.6,41.3,41.3c5.7,0.4,9.9,8.5,15.9,5.3c-67.1-64.6-136-136-180.1-213.3
	l23,6.7L2014.2,857.3L2014.2,857.3z"/>
<path d="M1976.8,877.4l-2.8,2.4l11,6.7c-2.8,0.4-6-1.1-8.1,1.4c2.1,5.3,9.1,3.9,13.4,8.1l-9.5,2.4c3.5,4.6,10.9,4.6,16.2,8.1
	l-8.1,2.8c5.3,4.6,11,7.4,17.3,9.1h-12c6,3.9,14.5,8.1,21.2,12l-6.3,1.4c4.6,6.4,14.5,6,19.8,13.4l-10.6,1.1
	c3.5,5.6,12.3,5.3,17.3,10.9l-12,1.1c4.9,8.1,16.2,6,22.6,13.4c-5.6,2.1-9.5-3.9-14.5,0c7.1,7.1,19.1,8.1,27.9,13.4l-9.2,2.5
	c6,5.3,15.5,7.4,22.6,13.4c-4.9-1-12.3-3.9-15.9,0l24,12c-1.8,0.4-4.6-1-5.6,1.4c6,7.1,17,7.8,24,14.8c-3.9,2.1-15.9-7.1-17.3,0
	c15.2,12.3,54.7,10.6,44.2,39.9c-8.1,10.6-21.5,2.8-30.7,0c-68.5-34.6-122.6-104.5-157.5-169.5l6.7-21.2c3.5,1.4-1.4,8.5,3.9,10.6
	c1.4-1.1,2.1-3.5,4.2-2.8l3.9,26.9c5.7-1.4-0.4-10.6,5.3-12c1.8,8.1,1.8,16.6,5.3,24c3.5-3.5-1.1-9.9,4.2-12c7.8,8.1,6,20.1,12,29.3
	l2.4-6.7c11,5.6,5.7,21.5,14.8,27.9l3.9-12c-19.8-24-33.2-51.2-51.9-76C1957,863.6,1968.7,876.7,1976.8,877.4L1976.8,877.4z
	 M1165.1,876c-13.4,8.8-27.6,16.4-42.4,22.6c-14.1,11-33.9,13.1-44.1,26.9c12.7-2.1,26.9-3.9,34.6-15.9l5.3-1.4v10.6
	c12-3.9,8.1-24,24-24l4.2,3.9c3.5-5.6,7.4-13.1,15.9-12l1.4,6.7c8.5-2.1,3.2-16.6,13.1-12c-0.7,3.5-6.3,6.7-2.5,10.6
	c4.9-2.8,4.9-8.8,10.6-10.6l2.8,8.1c1.4-1.8,3.9-1.8,5.3-3.9c2.8,17.3-22.6,19.8-33.6,30.4c-41.3,16.2-82.3,41.3-130.7,32.1
	c-11.7-4.6-6.7-17-3.9-25.4c27.9-13.8,56.9-25.4,86.5-36c4.9,1.4,10.9-1.4,10.9-6.7C1136.8,878.9,1152,883.4,1165.1,876L1165.1,876z
	 M1214.5,912c4.6,6-5.3,10.9,0,17.3l8.1-13.4c7.1,20.1-15.9,24-26.9,35c-38.2,18.7-80.5,48.4-126.8,27.9c-5.6-2.9-7.8-9.9-4.9-15.5
	c0.6-1.2,1.5-2.3,2.5-3.2c18.7-10.3,41.3-10.6,60-21.2c9.5-4.6,26.5,3.2,30.7-5.3c-2.1-2.4-5.3-1-8.1-1.4v-1.4l18.7-1.4l-5.3-5.3
	c6.3-2.5,20.1,5.6,18.7-6.7c11.3,4.6,17.7-11,29.3-9.2C1212.4,908.2,1209.2,916.6,1214.5,912L1214.5,912z M1218.8,957.6
	c9.9-0.7,18.4-13.4,27.9-20.2c0,3.2-9.9,8.5-10.6,14.5c11,0.7,19.1-13.8,29.3-18.4l-24,25.1l1.4,1.4l33.2-26.5
	c-4.2,5.7-14.5,11-13.4,17.3l14.8-9.5c3.9,11-13.1,18.7-21.5,24c-35.3,19.4-74.2,36.7-117.3,29.3c-5.3-6,3.5-7.8,6.7-10.6
	c32.9-12,64.3-28.3,91.8-53.4C1241.4,943.5,1223,946.3,1218.8,957.6L1218.8,957.6z M1006.5,949.5c-50.5,43.8-111.6,67.8-162.8,112
	l7.8,1.4c0,5.3-5.7,9.9-2.5,14.8c9.2-8.1,4.9-24.4,20.2-28.2c2.8,5.3-5.7,10.9-2.8,16.2c12.7-6,6.7-24.7,22.6-28.2l1.4,8.1
	c6.3-7.1,8.5-18.4,18.7-21.6l3.9,4.3c3.2-4.3,4.2-11.6,11-12c-1.1,4.2-6,8.8-2.8,13.4c7.8-7.8,8.8-19.4,17.3-25.4l-1.4,12
	c7.4-6.7,6.7-18,16.2-22.6c1.4,3.5-3.2,9.5-1.4,13.1c10.3-7.4,7.8-24.4,22.6-26.5c1.1,7.8-10.3,14.8-9.1,22.6
	c14.5-9.2,10.6-32.1,29.3-37.4c3.5,2.8-1.1,5.3-1.4,8.1l1.4,1.4c10.9-3.5,3.5-18,14.5-21.5l2.8,9.5c4.6-3.5,1.4-11,8.1-12l1.1,12
	l8.1-8.1c0.4,8.5,12,0,10.6,9.2c-55.8,50.9-119.1,89.4-178.7,133.5c-88.7,55.4-174.9,118.3-273.7,149.8c-11.7,3.5-24,4.9-34.6-1.4
	c-2.8-10.6,3.9-21.2,8.1-30.7c24.4-16.2,49.5-31.1,78.8-36c2.5-1.8,2.8-4.2,1.1-6.7c19,3.5,21.2-17,40.3-13.4
	c0.7-0.7,1.7-1.4,1.4-2.4c-2.1-2.5-5.7-1.1-8.1-1.4c6-4.2,17-2.4,24-6.7l-8.1-2.8c4.9-4.2,16.6-2.1,21.5-6.7c-2.8-1.4-6-1.8-9.5-2.4
	c5.3-4.2,18.7,2.4,17.3-9.5c5.7-2.8,18.4,1.7,17.3-9.2c14.5,3.2,6-12.3,20.1-9.2c-0.4-15.2,20.2-3.2,21.6-17.7
	c12.3,3.2,9.5-13.1,22.6-9.2c-2.8-12.7,17.3-3.9,12-15.9c4.3-2.4,11.3,0.7,14.5-4.2l-3.9-3.9c11.3,2.8,11.3-12.3,22.6-9.2
	c0.4-8.8,14.5-3.5,10.9-12c3.2-2.8,8.5-0.4,12-2.8c-5.3-13.4,15.2-1.1,14.5-13.4c3.9-2.8,9.9,0.4,13.4-2.5l-3.9-4.2
	c3.5-2.1,10.3-0.7,12-5.3l-2.8-2.4l15.9-5.7l-2.5-3.9c5.3-1.8,12.7-1.8,15.9-5.3c-1.8-2.4-3.9-2.8-6.7-2.8c9.2-4.9,23.3,0,29.3-9.2
	c9.2,2.1,13.1-7.1,20.1-9.2c-0.4-1.8,1.1-4.6-1.4-5.7h-1.1c2.8-3.5,13.1,2.4,14.5-5.3c-1.8-3.2-4.9-2.5-8.1-2.5
	C989.2,959,996.2,953,1006.5,949.5L1006.5,949.5z M1270.7,980.2c5.3,1.4,9.9-6.7,15.9-8.1l-13.1,17.3l1,1.4
	c6.3-4.9,12.3-9.5,18.7-14.8c-1.4,7.1-10.6,10.6-12,17.7c6.7,1.1,11.3-11,18.7-12c0,1-0.4,3.2,1.4,3.9l6.7-2.8
	c0.4,5.3-6,9.2-4.2,13.4l18.7-14.5l1.4,1c-0.4,4.9-10.3,6.7-5.3,12c3.2-0.4,4.6-4.9,8.1-5.3c-3.2,21.2-31.8,22.2-48,32.1
	c-26.9,7.1-65.7,24.4-89.7-1.4c0-18.7,19.8-21.5,32.1-27.9c8.5,2.8,15.9-4.2,22.6-9.5l1.4,4.2l17.3-13.4c3.2-0.4-5.7,7.1-2.5,10.6
	l19.8-18.7C1278.4,970.7,1273.5,975.2,1270.7,980.2L1270.7,980.2z M1062.3,985.5c-0.7,4.2-5.7,8.8-2.4,13.4l9.1-12
	c3.2,5.7-6,13.1,0,18.7c-52.3,43.5-106.7,87.6-162.8,125.4l-7.8,1.4c-51.9,37.4-102.8,77-165.7,87.9c-5.3,0-10-3.2-12-8.1
	c5.3-33.2,44.1-43.8,69.6-57.2c6.7,0.4,15.2,0.4,18.7-5.3l-11-1.4c6.3-4.6,16.2-1.4,21.5-8.1l-5.3-2.5c7.4-5.6,19.1-4.9,25.1-10.9
	c-0.7-2.1-3.5-0.7-5.3-1.1c6-9.2,21.9-3.9,28.3-12c-2.1-2.4-5.3-1.1-8.1-1.4c6.3-8.5,19.8-5.3,27.9-12c-1.7-2.5-5.3-1.1-7.8-1.4
	c3.2-2.8,7.8-3.9,12-5.3c9.2-12.7,23.3-24.7,39.9-25.4l-3.9-3.9c7.1-3.5,20.2-3.9,19.8-12l14.8-6.7l-2.8-5.3
	c7.8-3.9,18.3-3.5,24-9.5l-7.8-1.1c5-4.6,15.2-1.4,15.9-10.9l18.7-7.8l-1.4-5.3c15.2,0.4,15.9-17,30.7-16.2c2.5-1.4,3.5-5.3,6.7-3.9
	l1.4,1.4c-41.3,37.1-86.9,64.3-129.6,98.6l6.7,1.4c-1.1,7.8-8.8,14.1-6.7,21.5c10.6-11.6,11-29,25.4-36c3.9,7.1-8.1,12.3-3.9,19.8
	c12-9.5,7.8-28.6,24-34.6l3.9,5.3c3.9-6.7,7.4-16.2,15.9-18.7c2.4,6-7.4,12-3.9,18.7c9.5-10.9,9.5-28.2,24-34.6
	c3.5,7.8-6.7,14.5-2.5,22.6c12.3-9.5,3.2-30.7,21.2-36c-1.4,6.3-6.7,12.3-3.9,18.7c7.4-8.8,8.1-22.6,18.7-27.9
	c0.4,5.3-5.6,9.5-1.4,14.5c7.4-8.5,6.7-20.2,15.9-27.9c3.9,4.6-4.9,9.1,0,14.5C1059.1,1003.9,1048.1,979.9,1062.3,985.5
	L1062.3,985.5z M1130.4,1025.4l10.6-14.5l1.4,9.2l6.7-12c3.2,3.5-6.3,9.5-1.4,14.8c4.9-3.5,6.3-11,9.5-16.2
	c0.7,4.9,8.8,7.8,10.6,1.4l-2.8,13.4c-78,57.6-156.8,113-246.9,142.7c-11-0.4-23,1.8-30.7-6.7c13.1-19.4,36-26.1,53.7-39.9
	c11.7,3.5,10.9-13.8,22.6-9.2c-2.8-14.8,18.4-3.9,17.3-17.7c2.8-1.4,6-1.8,9.2-2.5c-4.6-10.6,10.6-9.9,16.2-13.4
	c5.3,0.4,0.7-5.7,2.4-6.7c7.1-2.1,16.2-0.4,21.5-6.7c-3.5-6.3-7.4,1.1-12-1.1c4.6-7.1,18-2.4,22.6-9.5c-2.4-2.5-6.3-1.1-9.2-1.4
	c6.3-3.5,15.2-3.5,19.8-7.8c-1.4-2.4-4.2-1.1-6.7-1.4l14.8-6.7l-3.9-3.9c24.7-0.7,45.2-12.3,65.3-25.4
	c-59.3,44.1-122.9,84.4-184.4,126.8c8.8,1.7,15.9-8.5,25.4-8.1c5.3-5.3,10.3-10.6,17.3-12c2.1,3.2-3.9,4.2,0,6.7
	c7.4-4.9,10.9-15.2,18.7-20.2l3.9,4.2c3.5-9.9,11.6-16.6,20.1-21.5c3.9,6.4-6.7,12-2.5,18.7c9.9-9.5,6.4-26.5,21.2-32.1l1.4,9.5
	c4.3-7.8,7.8-18.4,17.3-21.6c1.7,7.1-9.5,13.8-5.3,21.6c12-10.6,7.8-33.6,27.9-36c1.7,8.1-8.1,15.9-6.7,24
	c12.7-10.6,10.3-30.1,25.4-37.4c1.4,7.4-6.7,15.9-3.9,24c6.3-9.5,10.9-20.2,14.5-30.7c6.7,6,8.8-4.6,10.9-8.1
	c0.4,7.1-6.7,18-4.2,26.9c9.9-9.5,10.6-25.4,17.3-37.5C1143.5,1010.2,1126.9,1017,1130.4,1025.4L1130.4,1025.4z M1322.6,1013.4
	c-4.9,4.2-10.3,6.7-14.5,12c6.7,2.8,11-7.1,17.3-9.2c-4.6,7.4-16.6,11.6-18.7,20.1c8.1-1,16.6-8.5,25.4-12.3l-12,12.3
	c5.6,0,12.7-4.9,18.7-8.1l-16.2,14.5c7.1,0.4,14.5-6.7,21.5-10.6l-17.3,17.3c9.5,2.1,16.2-11.3,25.1-14.5l-2.5,7.8
	c3.9,2.4,8.1-3.5,12-5.3c-1.4,4.2-8.1,7.4-3.9,12l12-10.6l1.1,1.4c-1.4,2.1-4.9,3.9-5.3,6.7l1.4,1.4l13.4-10.9
	c1.1,1.4-14.8,14.5-1.4,10.9l5.3-5.6c3.9,6.3-6,8.1-9.2,12c-9.2-3.9-8.1,7.1-14.8,8.1c-32.1,10.3-78.8,33.2-108.1,1.4
	c3.5-24.4,31.1-38.5,50.9-46.7c0.7,1.8-1.8,2.5-2.8,3.9C1307.8,1023,1315.2,1016.2,1322.6,1013.4L1322.6,1013.4z M1191.9,1032.1
	c-26.9,22.2-57.2,41.3-86.9,60.1c5.6,3.9,18-13.4,16.2,1.4c-0.4,1.4,0.7,2.1,1.4,2.8c6-5.6,10.3-24.4,21.2-18.7
	c-1.1,3.9-4.2,8.5-2.8,12c9.9-8.8,6.7-28.6,24-28.2c2.4,6.7-6.3,10.3-1.1,16.2c6.3-9.9,6.3-21.9,17.3-29.3l7.8,2.5
	c2.1-2.8,1.4-7.1,5.7-9.2c1.7,4.6-4.3,10.6,0,15.9l9.2-13.4l1.4,10.6l7.8-10.6l1.4,9.5l10.6-9.5c2.8,1.4,0,5.7,4.2,5.3l3.9-3.9
	c2.1,1,2.1,4.2,0,5.3c-27.5,23.7-60.8,37.1-87.9,58.6c-41.7,22.2-80.9,55.1-131,53.4c-6.7-3.2-13.1-7.8-14.5-15.9
	c16.6-21.2,44.5-26.5,65.3-44.2c7.1-2.1,15.9-3.2,21.2-6.3c-0.7-2.5-3.5-1.1-5.3-1.4c6.3-6.7,17.7-7.8,26.9-10.6
	c0.4-3.2-3.2-2.8-5.3-2.8h-3.9c4.3-7.1,21.9-2.1,19.8-12c4.2-1.8,10.3-1.8,12-5.3l-2.4-2.8c4.9-1.4,11.6-1.4,14.5-5.3
	c-0.7-1.8-2.4-1.4-3.9-1.4c3.9-3.5,9.5-3.5,14.5-5.3l-5.3-3.9l25.4-3.9c0-1.4,0.4-3.5-1.4-4.2
	C1175.7,1031.4,1185.2,1026.1,1191.9,1032.1L1191.9,1032.1z"/>
<path d="M1248.1,1062.9c2.5,18-22.2,23-33.6,33.6l-42.7,25.1c11.3,1.4,21.5-7.8,32.1-12l2.8,2.8l12-12c1.4,1.4,2.8,3.5,5.3,2.4
	c2.1-3.5,1.1-9.5,6.7-10.6l2.4,12l9.5-17.3c3.5,8.1-6.4,15.5-4.3,22.6c6-7.1,10.6-18,16.2-26.5c0.7,9.2-9.2,15.2-5.6,24l12-18.7
	c0.7-0.4-1.8,8.5,4.2,6.7c1.7-1.8,1.7-4.2,3.9-5.3c3.5,1.1,1.8,5.7,5.3,5.3l4.2-4.2l2.5,4.2l8.1-5.3v5.3
	c-56.2,36.8-116.6,62.5-180.1,81.2c-11.7,0.4-28.9,3.5-35-10.6l1.4-8.1c38.1-21.9,74.9-47.3,114.8-63.9l16.2-1.4
	c1.8-7.1-8.1-2.1-8.1-3.9c14.1-1.7,20.5-15.9,36-10.6l-10.6-4.2l14.5-3.9l-3.7-3.8C1238.9,1064.6,1242.8,1061.8,1248.1,1062.9
	L1248.1,1062.9z M1369.6,1072.4l1.1-1.4c1.4,1.4,3.9,2.8,2.8,5.3c-6.7,5.6-14.8,10.9-20.1,17.3l1.4,1.4l24-14.8l-9.2,9.5
	c7.4,2.1,12.3-10.6,21.2-9.5c3.5,2.5-1.1,4.3-1.4,6.7c3.5,4.6,4.6-3.2,8.1-2.4c3.9,5.3-11,7.8-3.9,14.5l13.1-12
	c2.1,0.7-3.9,5.3,0,8.1c5.3-6.3,11.6-4.6,17.3-8.1c1.8,5.3,9.2,1.1,9.5,1.4c-3.5,21.5-29.3,23.3-45.5,32.1
	c-21.9,6.4-46.3,15.2-70.7,7.8c-14.8-6.3-14.1-21.2-6.7-31.8c14.1-19.4,37.4-16.6,54.7-28.2
	C1365.3,1067.4,1365,1074.2,1369.6,1072.4L1369.6,1072.4z M1429.6,1112.3c-8.5,7.8-19.8,10.3-26.9,18.7c9.9-0.4,24-8.8,29.3-14.8
	l-27.9,22.6c12.7,0.7,23.7-10.9,34.6-18.4c-6,11-19.4,15.2-24,26.5c11.6-2.8,19.8-14.1,30.7-22.6l1.4,6.7l6.7-5.3
	c0,5.3-8.5,8.1-5.3,13.1l13.1-12l2.8,5.6l6.7-4.2c1.4,1.4,1.4,5.7,5.3,4.2l1.4-1.4c-3.2,14.5-23.3,19-35,27.9
	c-28.3,8.5-61.1,24.7-90.8,10.6c-4.9-6.7-7.4-17.7-2.5-25.1c6.7-11.7,20.2-7.4,29.3-12l-6.7,6.3h5.3
	C1394,1128.6,1412.7,1122.9,1429.6,1112.3L1429.6,1112.3z M1298.6,1124.3l-9.2,8.1c-22.2,9.2-43.5,19.8-64.3,31.8
	c9.5-2.8,26.1,1.4,32.1-10.6c9.9,0,19.8-11,26.9-6.7c3.9-4.2,5.6-10.9,12-12c3.2,6.7,8.5-1,10.6-2.4l3.9,7.8c5.6-11,7.1,4.2,14.8,0
	c1.8,6.7-2.4,14.1-6.7,20.1c-46.3,20.9-92.2,47.7-149.4,38.5c-10.6-3.5-23-12-25.4-24c21.2-12,45.9-17.3,68.2-27.9l26.5-12
	c11.7,0.4,23,4.9,35,1.4c-3.2-6.3-13.8-4.6-21.6-5.3c10.6-0.4,21.6-4.9,32.1-1.4l2.4-2.8c-5.7-3.2-12.2-4.5-18.7-3.9
	C1276.4,1121.2,1291.2,1114.1,1298.6,1124.3L1298.6,1124.3z M1464.3,1158.9c-2.8,0.4-4.2,3.9-6.7,5.3c4.8,0.5,9.7-0.9,13.4-3.9
	c-2.5,5.3-14.5,8.5-18.7,15.9c7.1-1.4,15.2-7.4,22.6-12c-1.7,5.6-13.4,11-12,17.3l26.9-17.3c-6.7,9.5-15.9,15.5-21.6,24l1.4,1.4
	l36-30.7c4.6,7.1-13.1,12-9.2,20.2c7.4-4.2,12.7-14.5,21.2-17.3c-2.8,3.2-5.3,8.5-3.9,12l12-12c-1.8,7.8-13.1,13.1-11,21.2l8.1-5.3
	c-28.9,24.4-66.1,39.6-106.7,34.6c-4.2-3.5-10.3-4.9-12-10.6c-4.6-8.1,2.1-14.5,6.7-20.2C1428.2,1172.7,1446.6,1166.7,1464.3,1158.9
	L1464.3,1158.9z M2066.1,1168.5c-3.9,24.7-31.4,27.2-48,38.5c-93.6,40.6-190,73.5-297.8,80.2c-14.8-1.4-37.1,4.2-46.7-10.6
	c1.1-7.8,10.6-12,17.3-14.8c51.6-2.8,102.1-8.5,149.4-21.2v-1.4c-43.5,2.8-91.1,16.2-136,9.2l-3.9-3.9c3.2-5.6,10.6-7.1,15.9-10.6
	c61.8-2.5,121.9-9.2,177.7-25.4v-1.4c-45.9,8.1-97.1,18-146.9,12c-3.9-1.4-9.2-3.2-10.6-7.8c6.7-13.4,24-2.8,33.2-4.3
	c94.6-2.4,179.8-29.3,269.5-44.1C2048.5,1163.9,2060.1,1159.7,2066.1,1168.5L2066.1,1168.5z"/>
<path d="M2126.2,1171c22.2,22.6,3.2,54,1.4,80.2c-4.9,8.1-8.1-3.9-13.4-2.8c-12-2.8-23,4.6-33.2,9.5
	c-113.4,93.3-225,190.4-351.1,252.2c-22.2,6-41,20.8-66.8,18.7c-5.3-5.9-6.8-14.2-3.9-21.6l7.8-7.8
	c80.9-26.9,157.5-62.9,229.6-110.9c56.2-43.1,113.4-85.8,168.1-129.3c-6.7-1.8-12.3,6.3-18.7,9.1
	c-119.4,90.1-240.9,181.9-381.5,222.9c-9.5,0.4-18.7,4.9-28.3,1.4c0-6.3-1-11.6,5.3-17.3c7.4-6.3,18.4-4.6,26.9-8.1
	c126.4-27.2,234.2-99.6,339.1-178.7c0-1.4,0.4-3.5-1.4-4.2c-88.3,59.4-173.4,125.7-273.7,156.1c-29.3,9.5-59.4,20.5-90.8,20.1
	c-6.7-3.2-6.7-21.2-17.3-12c0,1.4-0.4,3.5,1.4,3.9l-8.1,4.3l2.8,6.7c-2.5,2.1-7.8,0.7-8.1,5.3c4.9,7.1,11.6-2.4,17.3,2.5
	c-0.4,5.3-11,7.4-5.3,13.4l1.4,1.4c-7.1,6.3-14.8-0.7-22.6,0c-3.2-10.3-15.2-20.5-6.7-32.1c14.5-18.4,38.1-13.4,54.7-25.4
	c96.4-0.7,175.9-43.5,255-86.5c29.3-21.2,61.8-37.4,87.9-64.3h-5.3c-99.3,72.4-203.8,131-327.1,145.5c-9.2-3.2-23.7-1.4-26.5-14.5
	c14.1-23,46.6-13.4,69.2-21.5c84.4-19,162.5-53,238.8-90.8c17.7-12,36.7-24,53.7-36h-8.1c-77.7,52.3-164.3,83.4-252.2,110.9
	c-30.4,3.9-69.6,21.9-96.1,0c6.7-35,48.7-16.2,72-21.5c96.1-5.3,177.3-46.7,258.9-87.9v-2.4c-10.3-1.4-18.7,7.4-28.2,12
	c-86.2,40.6-176.6,75.2-281.5,67.8c-6-2.1-4.2-9.5-2.5-13.4c21.2-17.7,42.7,0.4,69.2-5.3c91.8-9.9,174.5-41.7,253.6-82.7
	c-15.5,1.8-31.8,10.6-46.6,18.7c-83.4,27.6-166.4,61.8-263.2,53.4l-6.7-6.7l6.7-6.7c121.1,1.4,231-32.1,335.2-76
	c7.4,2.1,18.3,7.8,25.4,0c3.9-24.7,39.2-20.8,39.9-48C2088.1,1166,2111.7,1155.4,2126.2,1171L2126.2,1171z M1345.6,1172.3
	c-24.4,16.6-54.1,26.9-80.2,41.3c12.3-0.7,25.4-11.3,38.5-9.2c-3,2.6-4.5,6.6-3.9,10.6c7.4-5.3,12-16.2,20.2-20.1v8.1l14.5-16.2
	l2.8,6.7l9.1-9.2c-0.4,3.9-4.9,8.1-1,12l7.8-12c2.8,2.8-2.5,7.8,0,10.6c5.3-2.5,5.3-10.3,10.6-10.6c0.4,2.1-2.1,2.8-1.1,5.3l1.1,1.4
	c3.2-2.8,6-6.7,9.5-8.1c3.5,3.9-3.5,6-1.4,10.6c5.3,2.4,9.5-7.4,14.8-9.2c1.1,6-5.3,14.1-12,15.9c-47,17-89.4,48.4-143,45.5
	c-10.9-2.7-20-10.1-25.1-20.1c-3.2-6.7-1.4-15.9,6.3-18.7l30.7-5.3c8.1,4.6,20.2,7.1,28.3,3.9c-3.5-5.6-11.7-5.6-18.7-5.3v-1.4
	c11.6-5.3,24,9.9,33.2-1.1c-2.4-5.3-9.5-0.7-13.1-4.2c6.3-4.9,21.2,7.8,27.9-1.1c-3.9-5.3-11.6-1.7-17.3-2.8l15.9-10.6
	c8.5,1,17.3,3.9,25.4,1.4l-2.8-4.2c4.2-0.4,8.8,1.1,12-1.4l-6.7-5.3C1333.9,1170.3,1341,1168.1,1345.6,1172.3L1345.6,1172.3z
	 M1510.9,1197.8c-5.3,1.4-9.5,6.3-14.5,9.1c6,4.3,10.6-2.4,15.9-3.9l-12,13.4c3.9,1.1,8.8-3.2,13.4-5.3c-2.8,2.8-6.7,5.6-8.1,9.2
	c6.7,1.7,12.3-6.7,18.7-9.2c-3.5,9.5-14.1,12.3-20.2,21.2h6.7l26.9-22.6c-1.8,7.1-10.6,11-13.4,17.3l1.4,1.4l19.8-16.2
	c-2.4,4.9-11.3,9.2-7.8,14.8l19.8-17.3c0.4,1.4-0.7,1.8-1.1,2.5c5-1.1,11-1.4,17.3-1.1c-11.7,36.7-53.7,35-85.5,41.3
	c-12-1.1-26.5-2.5-30.7-16.2C1463.6,1211.9,1492.5,1205.2,1510.9,1197.8L1510.9,1197.8z M1404.2,1212.3v2.8
	c-30.7,15.6-64.6,25.4-94.6,39.9c6,3.2,12.7-3.5,18.4-1.4c-5.3,4.2-6.3,9.5-12,13.4c3.9,4.2,6.4-1.8,9.5-3.9l20.2-17.3
	c3.9,6.3-7.4,11.3-4.2,17.3c9.1-8.1,12.7-20.5,22.6-25.4c-0.4,6.7-10.2,14.5-9.2,21.6c12.7-6.7,12.7-24.7,27.9-28.3v9.5
	c6-3.2,6-11.6,12-14.8c2.5,3.9-3.5,8.1-5.3,12l1.4,1.4l15.9-17.3l1.4,9.2c4.9-2.8,4.9-8.8,10.6-10.6c0.7,5.3-6.7,12.3-3.9,18.7
	l12-13.4c-1.7,7.4-1,18.4-10.6,20.1c-11.3-6.3-13.8,8.5-22.6,12c-39.6,17-82.3,33.6-128.2,26.5c-11.7-3.2-6.7-14.1-4.2-21.2
	c13.1-25.1,42-18,62.9-26.9c-0.7-0.7-1.4-1.4-2.4-1.1v-1.4l29.3-2.8c-2.8-3.2-7.8-1.8-10.9-3.9l25.4-1.4l-1.4-5.3
	c4.3-0.4,8.8,1.1,12-1.4l-2.5-2.4c2.5-5.7,19.8,4.2,17.3-6.7C1395.4,1210.5,1401,1208,1404.2,1212.3L1404.2,1212.3z"/>
<path d="M2026.2,1211.2c-0.7,3.5-4.9,4.9-8.1,5.3C2018.8,1212.6,2022.7,1211.2,2026.2,1211.2z M1589.6,1256.4
	c9.2,1.1,17.7-11.3,25.4-15.9c-1.9,3-3.7,6.1-5.3,9.2l9.2,1.4c-30.7,16.2-64.3,34.3-102.8,30.7c-7.1-4.6-15.9-8.8-14.5-18.7l3.9-3.9
	l36-6.7c-2.8,2.1-8.1,3.2-9.2,6.7c17.7-2.8,35-14.5,50.5-25.4c-10.1,9.2-20.8,17.7-32.1,25.4c15.9-2.1,30-16.2,44.2-25.4l-12,13.4
	l1.4,1.1l22.6-17.3C1606.6,1240.2,1595.3,1247.9,1589.6,1256.4L1589.6,1256.4z M1453.7,1251.1l-10.9,10.6c4.9,4.2-4.6,9.5-5.3,14.8
	c0.4,2.1-1.1,5.3,1.4,6.7c6.7-7.4,8.1-17.7,15.9-24c0,7.1-9.5,15.9-7.8,24l12-13.4c-0.7,1.8-1.8,3.9-1.4,6.7l1.4,1.1l14.5-14.5
	c-0.4,3.5-4.9,7.1-1.1,10.6l12-12v9.5c-54.4,31.8-115.5,60.4-180.5,55.8c-6.4-3.5-13.8-2.8-18.4-10.6c-0.1-8.4,4.5-16.2,12-20.1
	c29.7,0.7,51.6-16.6,81.3-15.9c-3.9-12.3,16.6-3.5,21.2-10.6c-0.7-2.4-3.5-1.1-5.3-1.4c4.6-4.9,20.2-0.4,18.7-9.1
	c7.1-1.1,16.2,2.1,21.5-2.8l-2.8-2.8l14.8-2.4l-6.7-5.3C1444.5,1247.6,1449.8,1247.2,1453.7,1251.1L1453.7,1251.1z M1675.1,1261.8
	c-6.3,4.9-3.2,21.5-13.4,17.3c-2.8-3.2-5.6-7.8-2.5-12C1664.9,1261.4,1667.7,1256.4,1675.1,1261.8L1675.1,1261.8z M1588.3,1288.6
	c18-3.2,35-16.6,53.4-23c-14.8,12-31.4,19.4-48.1,28.2v1.4c17-1.4,32.1-13.4,48.1-20.1c-6.3,9.9-18.4,12-26.5,20.1
	c12,0.4,23-9.5,34.6-13.4c-12.3,13.8-32.1,15.9-48.1,24c8.1,9.2-7.4,12-3.9,22.6c-4.6,3.2-10.9-6.3-10.9,2.8
	c5.7,2.1,12,2.1,17.7,3.9l-13.4,3.9c6.7,3.5,14.1,4.6,22.6,4.2c-5.3,2.8-14.1,4.2-20.2,9.2c1.1,2.5,3.9,1.1,5.3,1.4
	c1.1,5.3-4.9,4.9-7.8,6.7c-9.1,1.1-19-13.1-24-4.2l2.5,2.8c-5.7,1.1-13.1-2.5-17.3,2.4c0.4,4.6,5.3,3.2,8.1,4.2l-2.8,3.9
	c1.4,2.4,4.6,1.1,6.7,1.4l-9.2,9.2c1.8,0.7,1.8,3.5,0,4.2c-6.7,7.4-14.5,3.2-21.5,0c-3.2-5.7-12-11-6.7-18.7
	c8.8-12,20.5-16.6,33.6-18.7c-0.1-8.3,2.8-16.3,8.1-22.6l24-14.8c-6.3-4.9-15.6-0.7-23,0c-12,0.7-23.6-4.8-30.7-14.5
	c-0.7-3.5,3.2-6,5.6-6.7c19.8,0.7,35-11.3,53.3-14.8c-5.6,3.2-14.5,3.9-16.2,10.6c13.8-3.5,29.3-11,42.7-18.7
	C1615.8,1271.6,1598.8,1280.4,1588.3,1288.6L1588.3,1288.6z"/>
<path d="M1498.9,1281.9c-41.7,20.5-81.9,44.5-125.4,61.4c-0.7,1.1,1.4,3.2,2.5,2.5c10.6-12.3,30.7-0.7,40.3-15.9
	c2.1,4.9,8.1,4.9,10.6,0c5.7-4.6,6.7-10.3,14.8-6.7c6-15.6,24-5.7,29.3-20.2c1.7,3.5-4.2,5.3,0,8.1l17.3-17.3l2.4,3.9
	c3.2-2.1,5.3-7.4,9.5-6.7c-0.7,2.1-1.8,4.2-1.4,6.7c4.6,3.5,7.4-6,12-6.7c-23,27.2-57.2,37.5-87.9,52.3
	c-24.4,14.5-54.4,15.2-83,19.8c-5.7-3.5-14.5-2.1-17.3-10.6c-2.4-7.4,3.9-13.4,9.5-14.8c23.3,0,42.7-9.9,65.3-12
	c0-7.8,13.4-3.5,15.9-10.6c7.8-1.4,20.1-1.1,21.5-9.2c13.8,1.7,18.4-12,31.8-10.6c0.4-12,15.9-4.9,20.1-14.8c3.9,0,8.8,0.4,12-1.4
	V1281.9L1498.9,1281.9z M1668.4,1289.6c-3.2,5.6-19.8,3.9-14.8,14.8c-2.1,1.4-4.9,1.4-6.3,3.9c-1.1,2.5,1.1,3.9,2.5,5.3l-2.5,2.8
	c6.7,1.4,3.5,7.4,1.1,12c-9.2,2.4-21.2,7.1-30.7,1.4c-6.3-4.2-8.1-11.3-5.3-17.3l44.2-26.9
	C1660.3,1287.2,1664.5,1288.6,1668.4,1289.6L1668.4,1289.6z"/>
<path d="M1525.7,1309.8c-42.4,30-93.3,46.3-141.7,65.3c6,4.9,10.6-4.9,15.9-1.4c8.1,1.1,15.6-13.4,21.6-2.5
	c9.5-13.8,26.9-9.1,37.4-20.1c9.5,7.4,15.5-9.9,25.4-10.6l2.5,3.9c10.6-18.4,31.4-12.3,42.7-29.3l3.9,6.7l9.5-9.1
	c-2.5,1-1.1,4.2-1.4,6.7c3.2,4.6,4.6-3.5,8.1-2.8c-53.4,44.2-113.4,70.7-181.6,77.3c-11-0.7-24.7-0.4-29.3-10.6
	c-2.1-4.6,3.2-6.3,5.3-9.5c19.8-0.4,37.8-6,57.2-7.8c-0.7-10.3,16.6-1.7,20.2-12c6.7-2.8,20.1,1.1,20.1-9.5
	c6.3-2.4,17.3,0.7,18.7-7.8c3.9-2.5,11-0.4,12-6.7c8.5-4.6,25.4,4.9,27.9-9.5c-2.1-2.1-5.3-0.7-8.1-1.1v-1.4
	c6.3-2.4,15.2,4.9,21.5-1.4C1507.7,1308,1520.8,1310.1,1525.7,1309.8L1525.7,1309.8z M1570.9,1315.1c-8,6.3-14.8,14-20.1,22.6
	c-3.2-0.1-6.1,1.5-7.8,4.2c3.2,6.7-8.8,6.7-12,12c-6.3,3.9-10.6,16.2-18.7,12c-1.8-4.2-3.2-11.3,1.4-14.8
	c15.2-12.3,32.5-23.3,46.6-36L1570.9,1315.1L1570.9,1315.1z M1649.7,1344.4c-2.8,3.5-10.3-1.1-10.6,5.3l1.4,1.4
	c-3.2,3.5-11.3,3.9-8.1,10.6c-4.9,3.9-1,8.5-5.3,13.4c1.4,2.8,5.7,0,5.3,4.2c-9.1,4.2-18,2.8-27.9,1.1c2.8-5.3-5.7-10.6-2.8-15.9
	c10.8-15.8,27.7-26.4,46.7-29.3C1649.7,1337.7,1652.8,1341.6,1649.7,1344.4L1649.7,1344.4z M1507,1359.2
	c-0.4,7.1-10.6,13.8-8.1,21.2c-5.3,7.1-10.6-1.4-15.9-2.5c-2.7-1.8-4.3-4.9-4.2-8.1C1488.3,1366.3,1497.5,1355,1507,1359.2
	L1507,1359.2z"/>
<path d="M1597.8,1368.4l-5.3,6.7l9.1,5.3c-5.3,0.4-11.3-0.7-15.9,1.4c3.5,3.9,9.9,5.6,15.9,6.7c-4.9,2.8-12.3-0.4-15.9,5.3
	c1.4,3.5,4.9,2.8,7.8,2.8c-0.7,1.8-6.3,3.9-5.3,7.8c12,5.7,19.8-8.8,29.3-13.1c5.7-2.1,10.3-7.4,17.7-5.3l3.9,3.9
	c-14.5-7.8-3.5,13.8-18.7,10.6c-1.8,3.5,2.8,3.5,3.9,5.3c-2.8,3.2-9.5,3.9-9.1,9.5c-1,2-0.2,4.3,1.8,5.3c1.1,0.5,2.4,0.5,3.5,0h3.9
	c0,1.8-0.4,5.7,2.8,5.3h3.9c-6,6.3-17,10.3-26.5,6.7l-9.5-12l-8.1,7.8l5.7,5.7c-1.8,0.4-1.4,2.4-1.4,3.9c1.8,2.1,4.6,1.1,6.7,2.5
	c-15.9,1.4,1.4,13.4-9.5,20.1l-14.5,3.9c-4.2-5.6-12.7-12-23-9.2c-1.4,0.7-1.1,2.8-1.1,3.9c1.8,2.4,5.3,1.1,7.8,1.4
	c-0.7,4.2-7.8,1.1-7.8,6.7l14.5,1.4c-3.7,0.2-7.1,2.2-9.2,5.3l5.3,2.5c-1.4,2.4-5.3,3.5-3.9,6.7c13.1,11.3,36.8-37.4,34.6-1.1
	c-2.4-1.1-3.9,1.1-5.3,2.5c0.7,4.9,7.1,1.7,10.6,2.8l-2.8,5.3l9.5,1.4c-3.2,1.4-6.7,3.5-8.1,6.3l9.5,1.4c-1.1,7.8-9.9,15.2-2.8,22.6
	c-2.1-0.4-2.8,1.7-3.9,2.8c3.2,4.9,9.5,1.8,14.5,2.8c0.7-7.1-8.5-14.8-5.3-23c6-6.7,14.8-14.5,25.4-13.1c0,3.9-6.3,2.8-3.9,7.8
	l1.1,1.4c-1.4,2.8-6.3,3.9-5.3,8.1c7.8,15.9,32.1-15.9,23,12c0,6,10.3,9.5,13.1,14.5c9.9-0.4,21.5-4.9,29.3-1.4
	c2.1,25.1,7.4,55.4-7.8,76.3c-9.1-12.3-4.6-30-9.5-44.2l-5.3,9.5c-5.7-4.6-4.9-13.4-10.6-18.7l-2.8,2.4l-3.9,57.6
	c-12.3-8.5-13.1-24-15.9-37.4l-5.3,2.8c-10.6-8.1-6.3-24.4-18.7-29.7c-28.9,7.4-60.4,7.4-88.3,17.7l-24,3.9
	c-4.2-8.1,8.8-13.4,12-18.7l-2.5-2.8c3.5-9.2,10.6,1.4,15.9-3.9c-2.1-7.1-12-2.5-13.4-10.6c3.9-10.6,16.2-20.5,25.4-22.6
	c2.1-13.8,17.3-18.4,26.9-25.5c8.1,3.2-5.3,8.5,2.4,10.6c1.1,3.2-5.7,4.6-1.4,8.1h4.2l-4.2,5.3l13.4,1.4c-6.3,0.7-3.5,7.8-7.8,10.6
	c-10.6,2.1-17.3-4.6-26.9-4.2c-3.5,3.9,1.4,5.6-1.4,9.5c10.3-4.6,18,8.5,28.2,3.9c5.7,0,8.1,11.3,14.5,5.3
	c-4.2-4.2-11.3-9.2-6.7-15.9c4.6-7.8,14.1-7.4,16.2-14.8c-4.6-2.4-10.3-6-14.8-3.9c0.7-8.8-9.9-13.1-10.6-21.2
	c-13.1,4.6-26.5,1.1-38.8,3.9c-1.4,1.8-3.5,3.2-2.4,5.3l9.2,1.4c1.4,5.3-1.8,8.8-5.3,12c-10.6-1.4-22.2-6.4-26.9-17.3
	c-0.4-8.5,5.7-14.8,12-18.7c5.7-1.4,3.9,6.3,8.1,6.7c-1.4-13.8,11.3-19.4,20.2-28.3c6-2.1,15.9-0.4,17.3-5.3
	c-4.2-7.8-14.8-1.1-20.1-6.7c-6.7-3.9-14.1-8.5-18.7-15.9c-1.7-13.1,12.7-21.5,21.6-27.9c1.7-0.7,3.9-1.7,6.7-1.4
	c7.1,4.6-3.9,15.5,9.2,13.4c1.4-7.1-6.3-15.9,1.4-22.6c8.5-12.3,21.6-17,34.6-20.2L1597.8,1368.4L1597.8,1368.4z M2525.3,1373.7
	c-62.9,74.2-137,142-224.3,168.5c47.7-33.6,80.2-93.2,132.1-119l92.2-53.4L2525.3,1373.7L2525.3,1373.7z M1320.1,1384.7
	c-73.5,51.2-137.4,116.6-210.9,168.1c-12.3,3.2-6.3-15.2-17.3-12c-1.8-2.8-6.4-4.2-5.7-8.1c81.6-50.9,158.6-111.6,241.6-159
	L1320.1,1384.7L1320.1,1384.7z M1484.4,1388.5c-4.2-1.1-6.3,1.8-9.5,2.8l2.8,3.9c-11.7-2.4-5.7,17-17.3,10.6
	c-5.3-4.2-12-7.1-14.8-13.4c-2.1-14.5,14.8-12.3,22.6-18.7C1476.3,1377.6,1473.5,1388.2,1484.4,1388.5L1484.4,1388.5z
	 M1524.3,1383.3l-5.3,2.8l3.9,5.3c-1.4-0.4-2.1,0.7-2.4,1.1c-0.4,3.2,3.2,2.8,5.3,2.8h3.9c-0.7,3.5-12.3,2.8-6.7,9.1
	c-2.4,7.1-9.9,12-17.3,8.1c-7.8-6-15.2-15.2-8.1-24C1504.2,1381.1,1521.1,1362.7,1524.3,1383.3L1524.3,1383.3z M1326.8,1387.1
	c-71,62.2-126.5,131.4-195,193.6l-17.3-18.7c7.4-0.7,6.3-8.1,12-12l3.9,6.7c0.4-13.4,14.1-11.3,18.7-22.6l3.9,5.3
	c3.9-6,2.8-14.5,11-18.7c6.7,4.2,7.8-12.7,15.9-8.1c3.5-2.8,3.2-7.8,8.1-10.6l2.4,2.8l9.5-12c7.8,5.3,3.9-6.7,7.8-9.5
	c9.9-6,14.8-14.8,25.4-18.7c0.4-3.5,3.9-6.3,6.7-9.2c11.6,2.1,9.2-18.4,21.2-13.4c3.9-15.2,20.8-15.9,29.7-27.9l34.6-27.9
	L1326.8,1387.1L1326.8,1387.1z M1437.4,1396.7l-5.3,2.5l3.9,4.2c-11.3-3.5-8.8,9.5-18.4,10.6c-5.3-2.4-9.5-7.8-9.5-13.4
	C1415.9,1393.8,1429.3,1385.7,1437.4,1396.7L1437.4,1396.7z M2390.4,1391.4c-51.9,48.4-48.7,126.8-117.3,161.4
	c29.3-31.1,48.7-68.5,62.5-104.2h-2.5c-24.7,38.1-45.5,80.5-80.2,112.3c39.2-45.9,49.1-103.5,100-144.5
	C2364.5,1406.7,2377.1,1398.4,2390.4,1391.4z M1336,1399.1c-54,73.8-106,149.7-174.9,216.1c-7.8-7.1-17-16.6-21.2-26.5
	c8.5-3.9,9.9-14.1,19.8-17.3c3.9-4.6,3.2-13.1,11-13.4c-1.1,3.5-3.9,11.3-2.8,15.9c8.5-7.1,8.5-19.8,14.8-29.3l2.5,10.6
	c7.8-6.7,0.4-22.6,13.4-25.1l2.5,7.8c3.5-7.1,4.2-14.8,9.5-21.2l2.4,6.7c6.4-6.7,3.5-17,12-23l2.8,9.5c6-6,0.7-16.6,9.2-21.6
	c3.2,1.4-0.7,7.1,4.2,6.7c4.6-6.7,0.4-17.3,9.2-22.6l4.2,3.9c5.3-4.6-0.4-15.5,9.2-17.3l2.8,6.7c8.1-3.2-0.7-16.6,10.6-19.8
	c2.1,0.7,1.1,4.6,3.9,3.9c1.4-6.3,1.7-14.8,9.5-17.3l2.4,2.5c3.9-4.9,3.2-13.4,10.6-14.5c2.4,1.1,3.9-1.4,5.6-2.8
	c-0.8-3.6,0.8-7.3,3.9-9.2c9.5,5.3,7.1-14.8,17.3-8.1l2.8-3.9L1336,1399.1L1336,1399.1z M1392.2,1411.1c2.1,1.1,3.5,3.9,6.7,2.8
	c1,3.5-3.5,3.9-5.3,5.3c-6.7,1.6-13.5-1.8-16.2-8.1c1.1-5.3,2.8-12.7,9.5-13.1c4.6,1.8,7.8-4.2,12,0L1392.2,1411.1L1392.2,1411.1z"
	/>
<path d="M1493.6,1412.6v9.5c-2.8-0.4-5,0-6.7,2.4c2.8,2.5,8.1,5.7,3.9,10.6c-5.3,11.6-18.3-1.1-21.2,10.9
	c-6.3,5.3-15.2-5.6-18.7,3.9l6.7,2.4c-4.2-0.7-7.1,1.8-10.6,2.8c1.4,2.4,4.2,1.1,6.7,1.4l-5.3,5.3c1,1.7,5.6,1.7,3.9,5.3
	c-5.6,5.6-13.4,0.4-20.1,0c-6.3-3.5-7.4-11-6.7-15.9c2.8-4.2,9.9-6.3,8.1-12c-7.7-3.5-11.7-12-9.5-20.2c8.5-11,22.6-12.3,35-9.2
	l1.4,1.1c-7.4,2.1-4.9,12-13.4,11l6.7,5.3c-12-6-9.1,10.6-17.6,10.6c12,3.9,24.7-8.1,35,0c-1.8-6.7-7.8-13.4-5.3-20.1
	c3.5-8.8,12.7-13.4,19.8-19.8C1495.3,1400.2,1484.4,1410.1,1493.6,1412.6L1493.6,1412.6z M1353.3,1403.4
	c-47.3,73.1-79.8,152.9-142.7,220.1c-9.9,9.5-25.8,14.1-38.8,8.1c-12.7-9.9,8.8-15.6,11-24l2.5,2.5c3.5-6,3.9-13.1,10.6-17.3
	l4.2,6.7c6-4.2-1.1-13.8,6.7-17.3l2.5,6.7c5.6-9.2,4.6-21.2,14.8-27.9l2.5,7.8c7.8-5.6,1-19.4,10.6-25.4l5.7,8.1
	c6.7-7.4-4.3-24.7,10.6-21.2c4.9-2.1,1.1-6.3,1.4-9.5l7.8-9.2l4.2,3.9c2.1-5.3,0.4-13.8,6.7-15.9l2.4,7.8c2.8-8.8-0.7-20.1,8.1-26.5
	l3.9,6.7c6-6.7-2.1-23,12-23c2.5-10.6,9.9-15.5,14.8-25.1c9.5,3.2,6.3-8.2,9.1-12c11-5.3,11-23.3,25.4-25.4L1353.3,1403.4
	L1353.3,1403.4z M1369.6,1405.9c1.1,3.9-2.1,5.7-4.3,8.1h-6.7c-3.9-3.9,1.4-7.8,4.2-10.6C1365.7,1402.3,1367.1,1404.8,1369.6,1405.9
	z"/>
<path d="M1378.8,1424.5l-14.8,1.4l1.4,3.9c-2.8,0.4-7.1-1.1-9.1,1.4c1.8,3.5,7.8,3.5,12,5.3c-1.8,0.7-1.4,2.8-1.4,3.9
	c3.9,0.4,12,1.1,15.9-2.5c-2.5-9.9,9.5-13.1,14.8-17.3c6.3-0.4,12.3-4.9,18.7-1.4c3.2,4.9-6.7,6.3-1.4,10.6l-3.9,5.3l9.2,4.2
	c-6,4.9-2.8,9.2-3.9,14.5c5.3,2.1,3.5,8.8,0,12l7.8,5.3c-2.8,0.4-5.7,4.6-2.4,6.7c-3.2,10.6-16.2,10.6-25.5,8.1
	c-6.7-3.2-9.5-9.9-12-15.9c2.8,7.4-16.2,10.3-3.9,14.5l-5.3,5.3c3.2,2.4,7.8,1.1,12,1.4c-1.1,3.2-8.1-1.4-9.5,3.9l2.8,4.2
	c-3.5,2.8-10.6,5.6-16.2,2.4c-4.6-2.1-9.5-7.1-7.8-13.4c7.4-8.8,19-10.3,25.4-18.4c-11.6,0.4-23-4.2-35,1.1
	c-0.4,3.2,3.5,2.8,5.3,2.8h4.2c-0.7,3.2-11,3.5-5.3,9.2c1.4,4.2-2.8,7.1-5.3,8.1c-13.1-8.1-20.9,8.1-29.7,12
	c8.5-1.1,18.4-6,28.3-8.1l7.8,8.1c-2.8,2.1-8.5-0.7-9.2,3.9c11,4.3,32.1-3.9,33.2,12l-2.5,6.7l6.7,4.2c-0.7,0.4-1.7,1.1-1.4,2.5
	c11.6-0.7,15.2,6.7,27.9,3.9l2.8,2.8c-13.1,5.3,1,12-5.3,20.2c-10.9,4.9-24.7,12-37.4,5.3c-2.4-5.3,4.9-6.7,5.3-10.6l-2.4-2.8
	c-4.6,5.3-8.5,10.6-6.7,18.7c3.9,9.5,10.3,1.8,17.3,3.9c-4.2,4.2-1.4,12-2.8,16.2c-6,5.7-13.1,12.3-13.4,18.7c6,0,12-18.7,17.7-6.7
	l2.5,2.5c-1.8,0.7-1.4,2.8-1.4,4.2c5.6,1.4,10.3-8.5,17.3-6.7c-1.4,7.1-12.7,12-9.1,19.8c6.3-4.9,13.8-14.1,21.2-21.2
	c3.6-4.2,8.2-7.5,13.4-9.5c-14.5,22.2-34.6,45.2-58.6,56.2c-2.4-1.1-1.1-4.6-3.9-3.9c-1.4,15.9-17.7,23-26.9,34.6l-5.3-8.1
	c-6,3.2-2.8,14.5-12,14.8c-5.6-6.7-1.1-15.9,1.4-22.6c7.4-10.3,21.9-15.6,19.8-28.3l-3.9,4.2c-3.5-14.5,8.8-27.2,8.1-40.3
	c-8.8,6-6.7,17.3-17.3,21.5c-5.3-1.1-12.3,2.1-16.2-2.8c2.8-3.5,8.1-6,8.1-10.6l-1.4-1.4c-14.5,8.5-29.7,24.4-48,16.2
	c18-12.7,38.1-26.1,52.3-42.7h-4.2c-26.9,19.8-54.7,42.7-87.9,43.8l-4.2-5.3c10.3-7.4,24-6.7,32.1-15.9c-4.6-2.1-9.9,2.1-15.9,1.4
	c13.8-18.7,21.9-39.6,37.4-57.6c2.8-0.4,6.7,1.1,9.2-1.4c-0.7-4.6-7.4-4.6-3.9-9.2c9.5-16.2,19.4-33.2,29.3-49.5
	c3.2,2.8,8.5,5.3,12,3.9c-7.8-4.9-11.7-13.8-3.9-21.2c6-9.3,17-14,27.9-12l2.5,3.9c-0.4-5.7,6.3-11.6,1.4-15.9
	c-4.9,1.4-8.1-2.1-12-3.9c4.2-9.5,9.1-22.6,21.5-23C1370.6,1412.6,1373.1,1423.2,1378.8,1424.5L1378.8,1424.5z M1517.6,1434.1
	c-1.4-0.4-2.1,0.4-2.8,1.1c2.1,4.9,7.1,6.3,11,10.9c14.1,12-23.3,7.8-2.8,18.4c-11,4.6-20.2-6.3-26.5-13.1
	c-4.2-14.1,7.4-23.7,17.3-29.3C1516.9,1423.9,1518.3,1429.2,1517.6,1434.1L1517.6,1434.1z M2279.8,1432.7
	c-39.2,38.5-40.6,92.9-81.6,130.7c-45.9,43.8-99.6,68.9-157.5,84.1c76.6-15.9,126.8-93.3,164.3-156.1
	C2225.8,1465.6,2251.9,1445,2279.8,1432.7z M783.6,1579.3l26.5,20.1c-89.4-23.3-167.8-83.7-230.7-158.9c7.4-2.8,13.8,5.3,21.2,6.7
	C669.5,1473,734.1,1518.9,783.6,1579.3L783.6,1579.3z M858.1,1597l12,13.1c-25.4-9.9-42.4-36.4-62.5-55.8
	c-12.3-15.5-23.3-32.9-36-47v6.7c20.1,34.3,45.7,65,76,90.8c-68.9-31.4-86.5-105.3-130.7-157.5l1.4-1.1
	C777.6,1476.8,828.4,1539.4,858.1,1597L858.1,1597z M1489.7,1451.4l-4.2,6.7l6.7,3.9c0,1.4-4.2,2.1-2.4,5.3c1,2.4,4.2,1.1,6.7,1.4
	l-2.8,5.3c6.7,0.7,1,5.7,2.8,8.1c-12,0.4-28.6,0.7-36-10.9c0-12.3,13.8-18.7,22.6-24C1486.2,1446.1,1489,1448.6,1489.7,1451.4
	L1489.7,1451.4z"/>
<path d="M2047.4,1630.1c-17,6-30.7,20.8-49.5,22.6c60.8-66.4,94.3-162.1,183-202.7C2127.3,1506.2,2118.4,1588.1,2047.4,1630.1
	L2047.4,1630.1z M969,1626.3c18.7,28.9,47.7,44.2,78.8,49.1c-116.6,0.4-166.4-122.9-236.3-198.8l1.4-1.1
	C880.4,1499.8,935.8,1563.8,969,1626.3L969,1626.3z M1469.5,1487.4c1.1,11.7-20.2-1.1-17.3,10.6h3.9c-2.8,0-8.5,7.8-2.5,9.1
	l-5.3,2.8l7.8,10.6c-11.6,7.1-19.8-8.1-30.7-12c-6-3.5-8.3-11-5.3-17.3c8.5-11.3,21.2-17,33.6-14.8
	C1457.5,1482.8,1464.3,1483.6,1469.5,1487.4L1469.5,1487.4z"/>
<path d="M1493.6,1491.3c-0.7,7.8-15.9,1.1-10.6,10.6c-9.5,4.3-2.5,11.3-2.8,17.3l2.8,2.8c-3.2,8.1-12.3,2.1-17.3,0
	c-3.9-6-6.3-11-1.4-17.3C1471.7,1494.5,1483.7,1491,1493.6,1491.3L1493.6,1491.3z M1410.9,1494.1l-5.3,7.8l6.3,4.3
	c-1.4,1-1.8,3.2-2.4,5.3c1.4,2.1,4.2,1.1,6.7,1.1c0.7,2.1-1.8,2.8-2.8,4.2l9.5,3.9c-1.7,0.4-4.6-1.1-5.3,1.4
	c-1.8,4.6,3.5,2.8,5.3,5.3c-8.8,9.2-23,0.4-33.6-2.8c-6-2.5-10.6-9.5-6.7-15.9C1390.4,1499.8,1400.7,1493.1,1410.9,1494.1
	L1410.9,1494.1z M2062.3,1500.5c-46.7,57.6-80.5,140.2-155.1,169.5c-23.7,11-46.3,22.6-72,28.3c-1.4-2.1-1.1-5.3-1.1-8.2
	c83.7-20.5,106.7-116.2,177.3-161.4c15.5-13.4,33.2-23,50.9-32.1L2062.3,1500.5L2062.3,1500.5z"/>
<path d="M1520.4,1518.2c-6.4,10.6-17.7,11.6-28.3,10.6c-1.8,3.5,2.8,3.5,4.2,5.3c-1.4,3.2-6,1.7-5.7,5.3c6.7,3.5,14.1-2.8,14.8,8.1
	c-11.3,6-27.6,16.6-41.3,7.8c-6.7-13.1,11.6-18.4,18.7-25.1c2.8-2.1,7.1-1.4,9.2-5.6c-2.1-6-10.3-7.1-5.3-14.5l8.1-10.6
	C1505.2,1506.5,1503.8,1522.4,1520.4,1518.2L1520.4,1518.2z M1102.6,1662.3l18.7,15.9c-14.8-3.5-30.4-19.1-44.2-32.1
	c-35.3-37.8-62.2-78.8-102.8-112c-4.2,3.5,2.1,6.3,3.9,9.2c41.3,43.1,70.7,94.6,119.1,131c-36-6-63.6-41.7-86.9-69.6
	c-1.8,13.4-17,2.8-25.5,4.2c-4.2-3.2-12.3-3.9-13.1-9.5c8.1-3.5,17.3-9.2,25.1-9.2v-5.3c-18-30-46.6-56.9-70.6-83
	C1004,1520.3,1054.8,1601.9,1102.6,1662.3L1102.6,1662.3z M1251.9,1699.4c18.7,7.4,39.6,9.9,58.6,16.2l-3.9,2.5
	c-75.6-12.3-152.6-35-196-109.2c-23-33.2-43.8-66.8-72.4-97.5C1131.5,1549.6,1158.4,1666.2,1251.9,1699.4L1251.9,1699.4z
	 M1761.7,1579.3c-18-14.8-12.7-42.7-25.1-61.1l1.1-2.8C1753.9,1532.3,1761.7,1556.3,1761.7,1579.3z M2489.3,1515.3
	c-67.8,66.4-161.4,75.2-258.9,72.1c-23,3.5-45.5,8.8-66.8,15.9c41.3-18.7,87.2-32.5,132.1-46.7
	C2356.9,1534.8,2430,1541.8,2489.3,1515.3z M1732.4,1518.2c6.3,23.7,17,48.7,10.9,74.5c-5.3-12.7-6.3-29.3-9.5-44.2
	c-3.5-5.6-3.2-13.1-8.1-18.4c0,24,11.3,48,11,72c-17-21.2-11-51.6-21.5-74.9C1719.7,1524.2,1725.3,1517.5,1732.4,1518.2
	L1732.4,1518.2z M1450.8,1530.2c-2.4,1.1-4.9,1.1-6.7,3.9l13.4,1.4c-1.4-0.4-2.1,0.7-2.8,1.1l4.2,4.2c-9.7,12.6-25.9,18.3-41.3,14.5
	c-14.5-10.3,7.8-20.9,14.5-26.5C1438.5,1521,1444.8,1531.6,1450.8,1530.2L1450.8,1530.2z M1715,1546.1c2.5,12.3,2.5,27.2-5.3,37.5
	c-15.2-11-11.7-32.5-15.9-49.5c1.4-1.4,2.8-3.5,5.3-2.8c3.9,9.2,3.5,21.2,9.1,28.3c6.3-11-6.7-24.7,1.4-30.7L1715,1546.1
	L1715,1546.1z"/>
<path d="M1069,1558.1c-0.4,4.9-4.9,9.5-1,14.8c3.5-2.1,0.4-9.5,6.3-8.1l6.7,9.2c-5.3,9.9-15.2,14.1-24,18.7l-22.6-24
	C1044.3,1564.4,1057.7,1542.2,1069,1558.1L1069,1558.1z M1469.5,1563.4c2.1,2.5,5.3,1.1,8.1,1.4c-12.7,6-27.9,15.9-44.2,12
	c-15.2,6.7-27.9,19.1-45.5,20.2c-5.7-4.6,0-11,0-16.2c6.7-9.2,17.3-19.8,28.2-17.3c-6.7,8.8-25.4,15.2-22.6,27.9
	c7.1-3.9,11.3-18.3,22.6-18.3l2.4,3.9c5.3-0.4,8.5-13.1,13.4-5.3c-1.8-10.9,14.1-11.3,21.5-16.2
	C1458.6,1559.1,1460.4,1572.5,1469.5,1563.4L1469.5,1563.4z M1460.4,1602.2c-2.8-3.9-6.3-10.6-12-9.5c-10.6,17.3-24,39.6-44.2,46.6
	c-1-18.7,20.2-31.8,30.7-48c-1.4,11-14.8,17.7-12,28.3c15.2-14.8,21.2-41.7,46.7-44.2c4.6-0.7-7.4,4.6-2.8,8.1l12-6.7
	c-1.4,0.7-1.1,2.5-1.1,3.9c0.7,1.8,2.4,1.4,3.9,1.4l10.6-13.4C1484.4,1581,1477.3,1604.7,1460.4,1602.2L1460.4,1602.2z
	 M1663.1,1618.1l3.9-29.3c6,7.1,5.3,18.7,5.3,29.3c14.5,1.4,7.1,19.1,14.8,26.9c5.6-12-6.3-25.8,5.3-34.9
	c-1.1,18.3,14.5,43.8-2.8,54.7c-2.1,5.3,5.3,6.7,5.7,10.6c6,1.8,1.4-5.7,6.3-6.3c2.4,6.3,4.2,15.5,1.4,22.6c-1.4,3.2-6,3.2-7.8,1.4
	c-16.2-13.8,0-35.7-18.7-48.1c-5,4.6-1.4,12.3-8.1,15.9c-12.3-12.7-9.2-32.1-13.4-48l2.8-27.9
	C1660.7,1594.1,1656.8,1610,1663.1,1618.1L1663.1,1618.1z M1091.9,1591.3c3.9,4.9,13.8,11.7,10.6,18.7c-8.8,4.9-18,12.3-28.2,9.5
	c-3.2-7.4-19.8-20.2-2.5-24l2.5,7.8l9.5-17.3l1.4,14.8L1091.9,1591.3L1091.9,1591.3z M1768.4,1643.6c-3.9,10.6-17,12-26.5,14.5
	c-19.1-10.3-20.1-36.8-18.7-57.2c0.7-0.7,1.4-1.8,2.5-1.4l4.3,20.2c3.2,0,3.9-5.3,7.8-4.2c4.6,12.7,6.3,29.3,18.7,36
	c4.9-6.4-4.2-10.6-6.7-15.9c-1.7-12.8-1.7-25.7,0-38.5c7.1,9.5,2.8,27.6,9.5,37.1l2.4-2.4l-5.3-41.3l2.8-2.8
	C1768.4,1602.6,1762.4,1626.3,1768.4,1643.6L1768.4,1643.6z M1708.3,1614.3c2.1-7.4,1.1-15.9,6.7-21.5c-3.5,15.9,8.5,39.2-5.3,53.4
	c-7.1-9.5-8.5-24-9.2-37.1l2.4-20.2C1708.7,1595.5,1702.7,1608.6,1708.3,1614.3L1708.3,1614.3z M1785.7,1634
	c-2.8,13.8,9.9,16.6,14.8,24c3.5,1,8.8-2.1,10.6,2.8c-6.7,8.8,8.1,5.3,8.1,13.4c0.4,4.6-7.1,2.5-5.3,7.8c3.2,2.5,8.1,0.4,10.6,5.3
	c1.7,7.1-8.5,2.4-6.7,9.5c3.2,1.8,6.7,1.8,9.5,3.9c-0.7,5.6-4.9,12.3-10.9,13.4c-11.7,0-5-14.1-10.6-20.2
	c-5.3-29.3-42-45.9-33.2-81.2l3.9,6.7c3.2-8.5-0.4-17-3.9-24C1780.7,1605.4,1783.6,1620.6,1785.7,1634L1785.7,1634z M935.8,1642.2
	c-83.7-27.6-169.9,22.2-251.2-17.3c-16.2-8.1-32.9-15.5-48-26.9l1.4-1.1C735.9,1615.3,847.9,1599.8,935.8,1642.2z"/>
<path d="M1444.1,1626.3c7.4-3.5,8.8-23.3,20.2-14.8c-12,18.7-21.5,42.7-44.2,51.9c-5.7-5.6-0.4-13.1,0-19.8l30.7-41.3
	C1452.6,1608.9,1442.4,1618.1,1444.1,1626.3L1444.1,1626.3z M2377,1622c-76.7,52.6-180.5,14.5-262.8,6.7
	c68.2-14.8,128.6,11.6,198.8,2.8l-2.8-2.8c-55.1,1.7-103.1-13.8-158.6-12C2224.8,1596.6,2304.2,1626.6,2377,1622L2377,1622z
	 M1121.3,1631.5c-7.3,1.3-14.7-1.9-18.7-8.1c1.8-2.5,4.2-8.5,9.2-6.7C1117.7,1620.6,1118.1,1626.6,1121.3,1631.5z M1381.6,1682.1
	c-8.1-3.5-21.5-10.2-32.1-3.9l-1.4-1.4c9.5-8.8,17.7-19.4,29.3-22.6c2.1,0.7-3.9,5.3,0,8.1l17.3-18.7l1.4,1.4L1381.6,1682.1
	L1381.6,1682.1z M1406.7,1657l5.3,1.1c0,11.6-8.5,20.1-17.3,28.2c-2.4-0.4-4.2-3.9-6.7-5.3c5.3-12.3,10.6-24.7,21.5-35
	C1409.8,1648.5,1407.8,1653.1,1406.7,1657L1406.7,1657z M942.2,1654.2c-37.1,4.2-75.6,12.3-113.4,18.7c49.1,9.1,93.3-17.7,143-6.7
	c-69.6,10.3-146.2,40.3-216.5,8.1l-22.6-11C803.4,1666.5,875.1,1635.1,942.2,1654.2z M1723.2,1681c-1.7,1.4-1.7,3.9-3.9,5.3
	c-11-4.3-12-17-14.8-26.9v-3.9c3.2-1.8,9.5,1.7,9.2,6.7c7.1-0.4,1.7-8.5,6.7-11C1733.1,1657,1724.2,1671.8,1723.2,1681z
	 M2226.2,1681c9.9,0.4,20.5-1.1,29.7,1c-65.3,27.9-150.8,11.7-216.5-6.7c-39.2-6.7-84.4-4.2-122.6,2.8c85.8-29.7,179.4,4.2,267,6.7
	l-5.6-3.9c-56.6-8.8-111.3-21.5-172-20.2l2.8-2.8C2082.1,1648.3,2156.6,1656.2,2226.2,1681L2226.2,1681z M1783.2,1670.1
	c-3.5,7.4,9.9,11.3,6.7,20.1c11.3,3.9,0,13.8,9.1,17.3c5.3,2.1,0.4,5.3,0,8.1c-2.5,3.2-6.6,4.7-10.6,3.9l-5.3-6.7
	c-6.3-16.2-6.3-35-17.3-49.5c-0.4-4.9,4.9-5.3,7.8-7.8C1780.7,1658.8,1776.1,1668.3,1783.2,1670.1L1783.2,1670.1z M1441.6,1658
	c-7.8,15.5-16.2,31.8-28.2,44.1c-2.1-3.5-10.3-7.1-9.2-13.4C1410.6,1672.2,1428.6,1666.5,1441.6,1658z M1680.4,1678.2
	c-7.1-5.3-7.4-13.4-2.8-20.1C1681.9,1663.9,1683,1671.4,1680.4,1678.2z M1764.5,1676.8c-5.3,6,7.1,6.3,2.8,12
	c-2.5,5.3,4.9,6.7,5.3,10.6l-5.3,10.9c4.2,1,7.9,3.4,10.6,6.7c2.1,8.8-6,12.7-12,15.9c-7.4,0.4-14.8,0.7-18.7-6.7
	c-1.1-2.5,1.4-3.5,2.4-5.3c3.2,0,7.1,6,9.5,0c-1.1-10.6-9.5-18.3-15.9-26.9c-2.1,3.5-1,11.3-8.1,8.1c-5.3-6.3-6.8-14.9-3.9-22.6
	c8.5-5.3,12.3-15.2,24-13.4C1753.9,1673.9,1762,1670.8,1764.5,1676.8L1764.5,1676.8z M1202.5,1699.4l-86.6,2.8
	c-65.3,14.5-130.3,44.5-200.3,30.7l-50.9-9.5v-2.5c67.8-4.9,125.1-36.4,195-36C1110.7,1681.7,1154.8,1694.4,1202.5,1699.4z
	 M1370.6,1688.8c-10.3,1.1-6,13.4-14.5,16.2c9.9,12.3-14.5,8.5-4.2,21.2c-1.4,1.7-3.9,1.7-5.3,3.9c0.4,5.3,6.7,12.3-1,16.2
	c-5.7,1.4-8.8-4.6-11-8.1l11-44.2c1.7-4.9,7.1-7.4,12-9.1C1362.2,1685.6,1368.2,1682.8,1370.6,1688.8L1370.6,1688.8z M1338.9,1690.2
	c1.7,10.3-15.2,12.4-5.3,22.6c-6,2.8,0,10.6-5.7,13.4c-2.1,5.6,5.3,10.6-1.1,14.8c-6.7,0-8.8-4.9-12-9.5c0-15.9-2.1-32.5,12-42.7
	C1331.1,1690.2,1335.7,1684.2,1338.9,1690.2z M2078.2,1726.2c21.2,7.8,48,7.1,69.6,10.6c-87.2,24.4-172.4-7.1-251.1-34.6l-27.9-5.3
	c44.2-14.5,96.8-2.5,141.3,5.3L2078.2,1726.2L2078.2,1726.2z"/>
<path d="M1404.2,1707.5c0.4,2.8-0.4,4.9-2.8,6.7c-7.1,0.4-6.3-9.5-13.4-9.2l-1.1,9.2c-1.8-2.4-4.2-2.8-6.7-2.8
	c-3.2,3.2,0,6.7,1.4,9.5c-1.7,3.9-7.8,2.5-5.6,8.1c2.8,9.5,13.1,6,18.7,10.6c-1.4,10.6-11,21.5-21.2,25.4c-12.3,0-32.1,4.3-38.8-8.1
	c15.9-12.7,46.6,11.6,47-18.7c-1.7-1.4-3.2-3.9-5.6-3.9c-1.1,4.9-1.8,11.6-7.8,13.4l-10.6-1.4c0-19,6.7-41,21.2-53.3
	C1391.5,1687.7,1398.6,1701.5,1404.2,1707.5L1404.2,1707.5z M1748.6,1712.8c-129,41.3-260.4,75.6-384.7,128.2c-6-7.1,0-15.5-1.1-24
	c109.5-38.8,225.4-62.5,336.3-98.9c15.9-1.4,30.4-6.7,45.2-10.6L1748.6,1712.8L1748.6,1712.8z M1255.8,1714.2
	c-10.6,3.9-24,8.1-36,12c-67.1,41.3-151.5,61.8-235.9,42.7v-1.4C1077.8,1758,1155.2,1699.7,1255.8,1714.2z"/>
<path d="M1552.2,1751.6l-15.9,6.7c-49.5-8.5-97.1-20.5-145.5-30.7l3.9-5.3C1447.3,1731.9,1500.6,1740,1552.2,1751.6z M1798.1,1731.5
	c-16.2,6-32.1,16.2-50.9,12c-4.6-4.2-5.3-10.3-6.7-15.9c6.7,7.4,18,14.1,29.3,9.2C1780.4,1735.8,1789.6,1718.5,1798.1,1731.5
	L1798.1,1731.5z"/>
<ellipse transform="matrix(0.9239 -0.3827 0.3827 0.9239 -575.3948 736.902)" cx="1564.6" cy="1814.8" rx="34.3" ry="34.3"/>
<path d="M458.6,907.6c-7.9,13.4-14.6,8.8-20.4,5.8c-11.3-6.5-22.6-13.2-33.7-20.1c1.9-3,4.7-7.3,8.3-12.6
	c7.3-10.8,20.7-1.1,20.7-1.1l2.4-3.8l-32.7-20.2l-1.7,3.8c5.9,4.4,9.3,12.9,6.7,17.5c-1.7,3-5.9,9.3-8.6,13.3
	c-14.6-9-28.4-17.4-31.1-19.2c-5.8-3.8-2.9-8.8-2.9-8.8s1.7-3.8,11.4-18.1c9.6-14.3,28.9-5.6,28.9-5.6l2.9-4.9l-25.4-11.7
	l-44.4,70.4l4.7,2.6c0,0,1.5-1.2,5.8-6.4c4.4-5.2,13.7-0.9,13.7-0.9s58.7,35.6,66.8,41.2c8.2,5.6,6.4,11.4,5,14.6
	c-1.5,3.2-2.9,7-2.9,7l5,2.9l26-43.8L458.6,907.6z M567.2,767.4l3.8,3.5l-33,37.7l-3.8-2.9c0,0,12.9-11.4,0.9-21.9
	c-11.9-10.5-52.8-45-58.1-49.3c-5.2-4.4-11.7-7-20.2,3.2l-4.4-3.2l31.8-36.8l4.4,3.2c0,0-11.1,10.2-1.2,19.6
	c9.9,9.3,54.3,47.6,58.7,51.4C550.6,775.6,557,780.3,567.2,767.4L567.2,767.4z M2114,494.6l-1.9,4.8l-46.9-17.4l1.4-4.6
	c0,0,15.2,8,20.7-7c5.6-14.9,23.2-65.4,25.4-71.9c2.2-6.5,2.4-13.4-10.2-17.7l1.5-5.2l45.7,16.6l-1.5,5.2c0,0-13.5-6.7-18.7,5.9
	c-5.2,12.6-25.1,67.7-27.1,73.1C2100.4,482,2098.4,489.6,2114,494.6L2114,494.6z M1987.9,456.1l0.7-3.9
	c-14.8-1.9-18.7-26.9-26.8-42.6c-5.8-11.2-11.9-17-11.9-17c12.1-0.4,29.6-9.3,30.4-26.4c0.8-16.5-13.8-29.7-27.7-32
	c-13.9-2.3-53.2-11.1-53.2-11.1l-1.2,5c10.8,2.2,13.1,9.3,11.6,17.6c-1.5,8.4-12.1,56.6-14.9,71.7c-2.9,15.1-19.3,11.4-19.3,11.4
	l-0.7,5.1l48.4,9.3l0.9-4.1c-14.7-4.3-14.4-11.3-13.1-17.6l6.7-32.7c3.2,0.6,7.7,1.5,12.3,2.4c8.5,1.7,10.9,8.4,13.4,14.3
	c2.5,5.8,7.5,18.6,11.4,30.5C1959.2,448.5,1961.8,454.7,1987.9,456.1L1987.9,456.1z M729.3,633.8l-2.6-3
	c-10.8,10.3-32.7-2.4-49.9-5.9c-12.3-2.5-20.7-1.5-20.7-1.5c7.3-9.6,11.4-28.9-1.4-40.3c-12.3-11-31.8-8-42.3,1.4
	c-10.5,9.3-42.1,34.3-42.1,34.3l3.2,4.1c8.5-7,15.5-4.3,21,2.1c5.6,6.4,36.4,45,46.3,56.7c9.9,11.7-3.2,22.2-3.2,22.2l3.5,3.8
	l37.7-31.7l-2.6-3.2c-12.6,8.8-17.8,4.1-21.9-0.9L633.1,646c2.5-2.1,6-5,9.6-8c6.7-5.5,13.4-3.2,19.6-1.5
	c6.1,1.8,19.2,5.9,30.9,10.3C705.4,651.4,711.8,653.2,729.3,633.8L729.3,633.8z M800.5,596.6l-3.5,1.7L781.2,568l3.8-3.2
	c0,0,23.1,28,46.7,11.4c10.1-6.3,13.7-19.2,8.2-29.8c-2.6-4.1-9.7-12-35.6-10.2c-26,1.7-37.1-0.9-45-12.9
	c-7.9-11.9-5.8-30.1,10.5-41.2c10.4-7.1,19.6-6.4,22.5-6.4c2.9,0,7.3,0.9,7.6-6.4l3.2-2.1l14.6,25.7l-3.8,2.6
	c0,0-17.6-21.8-37.7-10.5c-14,7.9-10.5,20.5-7,25.1c3.5,4.7,8.8,9.9,36.2,7.9c27.4-2.1,38.8,7.9,44.1,19.6s6.5,30-11.4,42.4
	c-12.3,8.5-30.4,7.3-30.4,7.3S799.1,586.7,800.5,596.6L800.5,596.6z M1025.7,489l1.5,3.5l-46.3,17.7l-2-4.2c0,0,16.5-3.3,10-20.8
	l-29.5-79.8c0,0-18.3,3.7-23.8,10.3s-4.7,21.5-4.7,21.5l-4.3,1l-7.7-25.5c0,0,62.3-20.3,93.3-33.3l12,24.5l-4.3,2
	c0,0-9.7-17.5-27-13.3c-7.5,1.9-16.3,5.5-16.3,5.5s26.3,76.8,28.7,83.1C1007.9,487.5,1012.7,493.2,1025.7,489L1025.7,489z
	 M1362,420.3c-9.8-1-13.7-4.7-18.3-12.4c-4.7-7.8-49.7-85.6-49.7-85.6l-6.2,0.5c0,0-19.9,77.1-24.8,94.9
	c-4.9,17.8-15.5,17.8-15.5,17.8l0.6,5.2l34.4-4.9l-0.2-4.4c-10.6,1-13.7-3.6-11.6-13.2c0.6-3,2.7-11.7,5.2-22.2l39.2-6.1l12.7,23.1
	c6.7,12.1-10.1,14.2-10.1,14.2l0.8,3.9l44.2-6.7L1362,420.3L1362,420.3z M2473.9,705.4c-5.8-8-5.6-13.3-2.9-22
	c2.7-8.6,31.1-93.9,31.1-93.9l-4.5-4.3c0,0-70.9,36.2-87.5,44.4c-16.6,8.2-23.6,0.2-23.6,0.2l-3.5,3.8l26.5,22.5l3.1-3.1
	c-7.8-7.3-6.4-12.6,2.2-17.4c2.7-1.5,10.6-5.8,20.1-10.8l30.5,25.3l-8.9,24.8c-4.7,13.1-17.3,1.9-17.3,1.9l-2.4,3.2l34.3,28.6
	L2473.9,705.4L2473.9,705.4z M1484.1,412.7v4l-37.5,2.5v-4.5c0,0,14.2-1.7,14.2-18.2c0-16.4-1.7-61.6-1.7-70.4
	c0-8.8-6.5-14.8-16.8-13.9l-0.3-4l33.8-1.4l39.8,88l34.3-91.4l33-1.1v3.7c0,0-15.3-0.6-14.8,14.2c0.6,14.7,3.7,65,4,72.4
	c0.3,7.4,2.5,15.3,15.6,14.5l0.3,4l-47.7,3.4l-0.6-4.3c0,0,16.2-0.3,15.3-15c-0.9-14.8-4.5-73.8-4.5-73.8l-35.8,94.5l-4.3,0.3
	l-45.2-94c0,0,2.3,64.4,2.8,73.8C1468.8,405.3,1473.4,412.1,1484.1,412.7L1484.1,412.7z M1770.4,386.3c-5.5,19-17.2,27.8-37.3,26.7
	c-20.1-1.1-21.5-10.8-21-17.4l2.4-35.7c3.7,0.1,8.6,0.2,14.6,0.4c13.2,0.5,12.1,16.4,12.1,16.4l4.4,0.2l1.8-35.1l-3.7-0.2
	c-2,9.7-8.6,13.1-12.6,13.1c-2.8,0-11.4-0.2-16.2-0.3c1.2-18.7,2.4-37,2.5-39c0.2-4,1.8-4.9,6.2-4.7c4.4,0.2,7.8,0.4,19.2,0.9
	c20.5,1,21.8,22.1,21.8,22.1l4.7-0.4c0,0-0.2-12.4,0-18.5c0.2-6-1.8-8-10.4-8.4l-71.3-3.3l-0.2,3.7c8.2,0.2,14.1,4.9,13.7,12.3
	c-0.4,7.3-2.7,56.7-3.8,74.4c-1.1,17.7-16.6,15.7-16.6,15.7l-0.2,5.3c35.3,1.3,81.3,4.8,85.9,5.1c4.6,0.4,5.1-5.5,5.1-5.5l2.8-27.6
	L1770.4,386.3L1770.4,386.3z M2316.7,557.3l3.7,4.7c0,0-36.2,23.6-69.2-2.3c-33.2-26.2-25.1-60.7-9-80.8
	c22.3-27.9,56.2-32.6,82.2-14.3c10.6,7.5,19,21.3,19,21.3s3.7,7,11-0.7l3,1.3l-20.3,36.3l-4.7-2c0,0,12-37-11.6-51.6
	c-23.6-14.6-46.9-4-64.9,24c-17.9,28-9,51.9,7,63.6C2278.8,568.3,2298.4,567.3,2316.7,557.3L2316.7,557.3z M2565,819.6l-4.4,3.4
	l-27.1-30.8l4.7-4.4c0,0,9.1,14.1,22.7,2.4c13.6-11.8,52.6-45.1,56.8-48.7c4.1-3.6,7.5-11.2-1.8-20.1l5.8-4.4l21.4,25.5l-25,103.5
	l48.5-42.7c0,0,12.5-9.6-0.2-20.3l5.5-5.2l27.6,31l-5.2,4.4c0,0-11.2-14.1-23.2-3.6c-23.6,20.7-47.1,41.5-70.6,62.3l-5.5-6l29.5-121
	c0,0-50.7,45-56,50.1C2561.3,801.3,2555.8,807.8,2565,819.6L2565,819.6z"/>
<path class="st0" d="M1865.9,1203.1c-5,1.1-8.8,3.5-14.5,2.4C1855.6,1203.5,1861.3,1204.8,1865.9,1203.1z M1843.3,1208.4
	c-20,5.3-40.8,7.1-61.5,5.3C1802,1213.7,1822.1,1208.4,1843.3,1208.4L1843.3,1208.4z M1936.5,1220.4
	c-53.7,24.7-115.5,39.2-177.3,44.1C1819.9,1253.3,1879.3,1239.5,1936.5,1220.4z M1805.8,1236.3c-22.2,4.9-52.3,7.4-72,4.2
	c25.8-0.4,49.8-4.6,74.9-6.7L1805.8,1236.3z M1864.5,1252.6c-36.4,19.1-83.4,20.5-126.8,26.5v-2.5
	C1780.7,1270.2,1823.5,1263.1,1864.5,1252.6L1864.5,1252.6z M1916.7,1319.3c-25.4,17-53,28.6-81.6,38.5v-2.4
	c27.9-11.3,54.4-25.4,81.6-38.8V1319.3L1916.7,1319.3z M1799.1,1317.9c-20.1,9.9-45.2,13.4-69.2,17.3c-6.4-3.2-15.2,0.4-21.6-2.8
	C1736.3,1324.6,1770.5,1326.7,1799.1,1317.9L1799.1,1317.9z M1763.1,1351.1c-29.3,11.6-63.9,15.9-98.6,17.3v-2.5
	C1697.4,1361.7,1730.9,1353.9,1763.1,1351.1z M1815.4,1369.8c-49.8,19.1-98.6,40.3-155.1,42.7v-2.4c54-8.5,104.9-24.4,155.1-42.7
	V1369.8z M1828.4,1393.8c-52.3,25.8-106,47.7-166.7,53.4v-2.4c60.4-6.7,112.7-32.1,166.7-53.4V1393.8z M1586.8,1414
	c0,5.3-7.4,4.9-12,6.7c-9.9,4.9-9.9,19.8-21.2,18.7c-2.4-4.2,6.3-4.9,1.4-8.2h-4.2l8.1-6.7c-3.2-2.4-8.1-1.1-12-1.4
	c2.1-4.3,9.9-2.1,12-6.7c-2.1-2.1-5.3-0.7-8.1-1.1c0.7-5.3,8.1-0.7,11-4.2L1586.8,1414z M2455.8,1426
	c-25.1,23.7-54.1,44.5-82.7,62.5C2397,1463.2,2424.9,1442.1,2455.8,1426L2455.8,1426z M1835.2,1438c-30.7,20.5-61.5,41.3-96.1,53.4
	c30.1-20.5,64.6-36.4,96.1-56.2V1438z M1236.1,1447.2l-1.4,1.4v-6.7C1237.1,1441.5,1235.7,1445.8,1236.1,1447.2z M1408.1,1455.3
	c-5.6,8.5-17,1.1-25.4,1.4l10.9-2.8c-1.1-5.7-11.6-2.5-9.5-10.6L1408.1,1455.3z M1217.4,1460.6l2.4-5.3l-1,5.3H1217.4z
	 M1358.7,1464.5H1348C1350.2,1463.4,1356.5,1459.2,1358.7,1464.5z M1389.4,1465.9h-2.5c-0.4-1.7,0.4-4.2,2.4-3.9L1389.4,1465.9
	L1389.4,1465.9z M1201.1,1471.2l1.4-5.3v4.3L1201.1,1471.2z M1454.7,1487.4v-1.4l9.5,1.4H1454.7z M1524.3,1487.4h5.3H1524.3z
	 M1164,1503.3c-3.9-3.2,0.7-8.8,1.1-13.4C1169,1493.4,1164.4,1499.1,1164,1503.3z M2222.3,1489.9c-14.5,30.7-32.9,62.2-60,85.5
	c21.5-27.2,37.1-57.2,57.6-85.5H2222.3z M2055.5,1610c-8.1,4.6-13.4,15.9-22.6,17.3c13.1-18.3,30.4-36,43.8-54.4l49.5-71
	C2111.3,1541.8,2083.8,1576.1,2055.5,1610L2055.5,1610z M1310.6,1507.2c-2.5,5.5-2.5,11.8,0,17.3c-7.1-1.1-3.2-11-3.9-14.5
	C1308.1,1509,1308.8,1506.5,1310.6,1507.2L1310.6,1507.2z M1363.9,1513.9c-6,2.5-8.8,1.1-15.9,1.4c3.5-3.2,9.9-4.6,15.9-3.9V1513.9z
	 M1349.5,1522.1c-2.4,3.9-4.9,11,0,14.5c4.3,9.2,14.1,4.6,20.2,9.5c-10.6,2.1-21.2-8.1-33.6-8.1l2.8-5.3l-13.4-2.5
	C1332.9,1528.4,1343.1,1529.1,1349.5,1522.1L1349.5,1522.1z M1623.2,1543.2c-9.9,4.2-5.7-6.7-12.3-7.8c1.7-3.9,6.7-9.2,10.9-5.3
	C1625.3,1535.1,1620.4,1537.9,1623.2,1543.2L1623.2,1543.2z M1110.7,1542.2l3.9-9.5l-1.4,9.5H1110.7z M1375.9,1546.1l8.2-3.9
	l-5.3,3.9H1375.9z M1553.6,1555.3c-4.9,0.4-14.8-5.3-22.6-1.1c-2.1-5.6,3.2-2.8,5.3-5.6C1542,1548.5,1547.3,1554.9,1553.6,1555.3z
	 M2399.9,1549.9c-10.3,10.3-27.9,8.1-41.3,12l-98.9,13.4C2302.8,1560.9,2353.7,1560.6,2399.9,1549.9z M1625.7,1564.8
	c-2.8-1.1-2.4-6-2.4-9.5C1624.3,1558.4,1626.7,1560.9,1625.7,1564.8z M1998,1562c-37.4,42.7-73.1,95-125.4,116.2
	c44.5-26.9,85.1-82.3,125.4-120.1V1562L1998,1562z M1648.3,1576.8l-1.1-5.3l1.1,1.4V1576.8z M1352,1590.2c-4.9-2.1-1.4-9.2-1.1-13.4
	C1352,1580.7,1355.1,1585.6,1352,1590.2z M1685.7,1579.3h1.4v6.7h-1.4V1579.3z M1336,1657c7.8-15.9,24.7-26.5,37.4-38.8
	C1371,1634.7,1345.9,1640.4,1336,1657z M1354.8,1619.6c-2.1,4.6-8.1,8.5-10.6,12C1343.8,1631.5,1349.1,1620.2,1354.8,1619.6z
	 M2084.9,1736.8c-64-3.5-118.7-27.9-178.8-39.9C1969,1702.2,2023.4,1727.6,2084.9,1736.8z M1520.4,1777.1
	c-46.3,17-93.6,30.4-140.2,45.2c44.5-21.5,96.1-32.5,144.1-49.5L1520.4,1777.1z"/>
<ellipse transform="matrix(0.9239 -0.3827 0.3827 0.9239 -575.3948 736.9021)" class="st0" cx="1564.6" cy="1814.8" rx="29.4" ry="29.4"/>
<path d="M1345.6,1447.2c-2.5,5.3-8.8,0.7-12,4.2C1333.2,1445.4,1342.1,1441.9,1345.6,1447.2z M1461.4,1534.1l2.8-2.8h1.4
	L1461.4,1534.1z M1776.5,1810.3c2.5,6,7.1,14.1,1.4,20.1c-59.7-21.5-121.1-39.2-183-56.2l-3.9-3.9l6.7-5.3
	C1658.2,1777.8,1719.7,1788.4,1776.5,1810.3z M1555.5,1817.1h12.8c6.3,0,7,3.8,7,7c0,1.5,0.2,7.4,0.9,9.8h6.5v-0.9
	c-1.6-0.9-1.9-1.7-1.9-3.9l-0.3-7.1c-0.2-5.4-2.4-6.4-4.7-7.4c2.5-1.5,5.4-3.6,5.4-9.3c0-8.3-6.4-10.5-12.9-10.5h-18.1v39.1h5.3
	V1817.1L1555.5,1817.1z"/>
<path class="st0" d="M1238.5,749.2c-3.2,3.5-8.8-1.1-13.4-1.4L1238.5,749.2z M1159.8,753.1v4.2c-18,2.5-33.2,0-50.5,3.9
	c12.7-8.8,33.6-4.2,49.5-9.2L1159.8,753.1L1159.8,753.1z M1164,764c-10.3,6.3-26.1,3.9-38.8,6.7l-27.9,7.8c4.6-6,15.2-9.9,24-12
	C1135.4,765.4,1150.6,763,1164,764L1164,764z M1254.8,770.7v2.4c-8.8,1.8-18-2.8-28.2-1.4C1234.7,771.4,1245.3,766.9,1254.8,770.7z
	 M1164,774.6c-15.5,6-36.4,3.9-52.3,12v-3.9C1128.7,778.2,1147,775,1164,774.6z M1225.1,779.9v-2.8l29.7,1.5L1225.1,779.9z
	 M1174.6,783.8l-25.4,4.2C1154.1,781.7,1166.8,783.5,1174.6,783.8z M1027.7,790.5l-10.6-1.4v-2.4l10.6,1.4V790.5z M1013.2,793.4v2.4
	c-2.4,1.1-3.9-1-5.3-2.4C1008.6,791.2,1012.1,791.2,1013.2,793.4z M1164,795.8c-1.8,3.9-7.1,3.9-11,5.3
	C1154.8,797.6,1160.1,797.6,1164,795.8z M1282.7,797.2c-6.3,3.5-15.9,4.6-25.4,3.9C1263.3,796.6,1274.2,799.4,1282.7,797.2z
	 M1149.2,818.8c2.5-10.3,15.2-7.1,21.6-13.4c6.7-1.4,14.1-2.8,21.2-4.2L1149.2,818.8L1149.2,818.8z M1210.7,807.8l-38.8,13.4
	c12-7.4,25.1-12.8,38.8-15.9V807.8z"/>
<path d="M1081,814.5l-3.9,4.3c-2.8-1.8,0-4.2,1.4-5.6C1080,813.2,1080.3,813.8,1081,814.5z"/>
<path class="st0" d="M1293.3,818.8c-9.1,2.1-18,6.3-27.9,6.3c7.4-4.9,18.7-6,27.9-9.2V818.8z M1202.5,818.8
	c-7.4,2.5-13.8,7.8-22.6,7.8C1186.6,822,1194.4,819.2,1202.5,818.8z M939.7,821.3v1.4h-3.9C935.1,820.2,938.7,818.8,939.7,821.3z
	 M1222.6,821.3c-4.2,4.6-12,6.7-18.7,8.1C1208.2,824.8,1215.6,822,1222.6,821.3z M1301.4,824.1c-2.1,5.3-9.1,3.5-13.4,5.3
	C1290.8,825.9,1296.5,825.2,1301.4,824.1z"/>
<path d="M1109.3,828c-3.5,3.2-11,0.4-13.4-2.8L1109.3,828z"/>
<path class="st0" d="M1322.6,837.1c-3.2,3.9-9.9,5.3-15.9,5.6C1311.6,840,1316.3,836.8,1322.6,837.1z M1234.7,840
	c-5.8,7.2-13.7,12.4-22.6,14.8C1215.6,845.6,1226.5,843.1,1234.7,840z M1337.4,845.3c-3.5,6.3-14.8,3.9-21.6,8.1
	C1321.5,849.9,1329,845.3,1337.4,845.3z M1067.9,850.6l-16.2-3.9l16.2,1.4V850.6z M1246.7,848.1c-8.8,4.6-18,12.7-29.3,13.4
	C1224.4,853,1236.1,850.2,1246.7,848.1z M1258.7,853.4c-7.4,6-18,9.9-27.9,12C1239.6,860.1,1247.7,853.7,1258.7,853.4z M1045,860.1
	c-5.3,2.8-12.7,0.4-15.9-2.8C1034.4,858.4,1042.5,855.2,1045,860.1z M1342.7,858.7c-5.6,4.9-15.2,6.3-22.6,9.2
	C1324.4,860.5,1334.6,861.2,1342.7,858.7z M1267.9,860.1c-2.1,4.2-9.9,7.4-15.9,9.2C1254.1,863.6,1261.5,860.5,1267.9,860.1z
	 M1008.9,867.9h13.4v2.8h-13.4V867.9z M1350.8,870.7c-3.9,4.2-11.3,6-17.3,6.7C1337.7,872.2,1344.3,869.7,1350.8,870.7z
	 M1269.3,873.5c-2.8,4.6-8.8,7.1-14.5,7.8C1257.6,876.7,1264,874.6,1269.3,873.5z M935.8,876c2.8,3.2-1.8,6.4-2.8,9.5
	c-2.4,0-3.5-2.8-5.3-4.2c-3.9,11.3-13.4-0.7-16.2,10.6C904.4,872.1,927.7,881.3,935.8,876L935.8,876z M1281.3,878.9
	c-4.9,7.8-14.5,10.3-22.6,13.1C1262.9,885.5,1272.4,879.9,1281.3,878.9z M999.7,879.9c0.7,2.1-1.7,2.8-2.8,4.2h-9.1
	C989.2,878.9,996.2,883.4,999.7,879.9z M1360.1,881.3c-5.6,3.6-12.1,5.9-18.7,6.7C1345.6,883.8,1353.7,879.5,1360.1,881.3z
	 M1129.1,885.5l8.1-2.8l3.9,1.4L1129.1,885.5z M883.6,885.5c-0.7,7.8-3.5,14.8-8.1,21.2c-1.4-2.8,6-12.7,1.4-17.3l-10.6,18.7
	c-2.8-8.8,12.3-19.8-2.8-24L883.6,885.5z M895.6,884.1c0,7.1-4.6,12.3-6.7,18.7C891.3,899.3,883.2,881.3,895.6,884.1z"/>
<path d="M1203.9,886.6c2.8,2.8-0.7,7.4-3.9,8.1C1195.8,891.6,1201.1,887.7,1203.9,886.6z M1704.4,888c0,2.1-6,1.1-3.9,5.3
	c1.7,2.4,5.3,1,7.8,1.4c-2.8,2.8-11.3,1.1-13.1,6.7c2.4,2.1,6.7,1,10.6,1.4l-2.8,3.9c3.2,1.8,6.7,1.8,9.5,3.9c0,2.5-2.8,3.9-4.2,5.3
	c-36.8,1.7-66.4,20.1-96.1,38.8C1631.7,919.8,1667.7,896.1,1704.4,888z"/>
<path class="st0" d="M1281.3,890.9c-5.1,4.2-11,7.3-17.3,9.2C1268.1,894.6,1274.4,891.2,1281.3,890.9z M1302.8,890.9
	c-4.9,7.1-14.5,7.1-21.5,12C1284.1,893.3,1295.4,894.4,1302.8,890.9z M858.1,913.5l-1.1,1.4c0-5.3,6-11.3,0-16.2
	c-5.3,4.6-6.3,12.3-9.5,18.7c-2.8-5.6,6-11.3-2.5-14.5l-13.4,22.6c0-4.3,6-9.9,0-13.4c-12,6.3-10.6,20.8-20.2,29.3
	c0-7.8,9.5-14.5,3.9-21.2c-11,7.4-13.1,23.3-21.2,34.6c-6.3-3.9,20.9-31.8-2.8-22.6c-7.4,6.7-6.7,17-10.6,25.4
	c-5.3-5.7,4.9-13.4-1.4-18.7l-10.6,13.1c0.7-1.7-1.8-2.4-2.4-3.9c-9.2,0.7-9.9,11.6-14.8,17.3c-0.7-3.2,1.7-7.4-2.5-9.2
	c-8.5,3.9-11.3,12.3-13.4,19.8c-0.7-3.2,1.4-7.4-2.8-9.2c-10.3,2.8-11.3,13.8-14.5,21.2c-2.4-1.1,4.9-9.5-1.4-13.1
	c-9.5,3.2-8.5,13.1-12,19.8c-0.7-1.1,2.1-9.9-4.2-12c-8.1,2.5-6.3,12-10.6,16.2c0-3.2,0.7-6.3-2.5-8.1c-11.3,5.7-11,18.7-16.2,27.9
	c-1.1-6.3,6.7-12,0-17.3c-10.6,5.3-10.6,19.8-15.9,29.3c1.1-7.1,7.8-15.5,1.4-22.6c-5.3,3.9-7.1,9.2-8.1,14.8
	c0.4-2.8-0.4-4.9-2.5-6.7c-9.9,6.3-8.5,19.4-14.8,27.9c-4.2-6,12-17.7-1.4-21.2c-6.7,8.5-8.1,19.4-14.5,27.9
	c-0.7-7.4,8.1-14.1,2.5-20.2c-11.7,6.7-9.2,21.9-18.7,30.7c1-7.4,8.5-15.5,2.8-22.6c-7.1,6-8.1,14.5-12,21.5
	c-2.8-2.1,5.7-9.5-2.8-12c-10.6,6-11,18.4-15.9,27.9c-2.8-4.6,5.7-13.4,0-18.7c-7.1,1.1-9.1,8.8-13.4,13.4c0,1.8,0.7-4.6-2.4-5.3
	c-16.2,0.7-7.4,18.7-17.7,25.1c-3.2-1.8,9.5-13.8-2.5-14.5l-10.6,18.7c-2.5-4.6,4.9-8.1-1.4-10.6c-7.8,2.1-7.1,10.6-10.6,15.9
	c0-3.2,0.7-6.4-2.8-8.1c-8.1,5.6-8.1,17.3-13.4,25.4c0-5.7,6-12.3,0-17.3l-12,20.1c-1.1-4.9,3.9-8.1,0-12l-12,21.2
	c0-1.7,6-12.3,0-17.3l-9.2,12c1.1-2.4-1.4-3.5-2.8-5.3c-8.5,1.8-7.1,15.9-17.3,10.6l-6.7,9.2l-3.9-2.4c-6,9.2-10.3,19-13.4,29.3
	c-1.8-8.5,9.2-14.8,1.4-22.6c-11,4.3-9.5,15.9-14.8,24c-2.1-2.5,5.3-9.9-1.1-13.4c-6,3.2-9.5,9.2-12,14.8l-5.6-4.2
	c-5.6,2.5-7.8,8.8-10.6,13.4l-3.9-3.9c-2.4,3.8-6.3,4.1-10.5,3.8c103.2-68.9,213.3-125.4,320.4-188.3c24.7-14.1,51.2-24.4,74.5-42.7
	c35.3-16.6,69.6-36.4,104.2-54.8C868,897.9,859.2,906.4,858.1,913.5L858.1,913.5z"/>
<path d="M1923.5,898.6c-0.7,3.2-5-2.1-6.7,2.8l13.4,9.1c-1.4-0.4-2.1,0.7-2.8,1.4l9.1,6.7l-5.3,2.8l6.7,6.3c-1.4,0-3.2-0.4-3.9,1.4
	l14.5,9.5l-10.6,1.1l17.3,13.4c-0.7-2.1-3.5-1.1-5.3-1.4l-1.4,1.4c4.6,7.1,13.8,8.1,20.2,13.4l-9.2,2.8l18.7,12l-4.2,3.9l17.3,10.6
	h-10.6c3.2,6.7,12.7,8.5,18.7,13.4c-5-0.4-9.5-4.9-14.5-1.4c13.1,13.1,45.5,11,39.9,38.8c2.4,7.4-6,9.9-10.6,10.6
	c-36-0.7-61.1-31.4-85.5-57.6l-48-78.4c-3.2-5.6-0.4-11.6,2.4-16.2l4.2,6.7c5.7-1.8,5.3-8.5,9.2-12l2.8,14.8l3.9-5.3l1.4,22.6
	c5.6-0.7-0.4-8.8,5.3-10.6c8.9,7.4,4.2,21.2,9.2,30.4l2.8-10.6c11.7,2.8,2.5,25.8,14.5,20.2c12.3,7.1,3.2,23,13.4,30.7l2.8-6.7
	c11.3,5.3,3.9,21.5,17.3,22.6c4.6,3.9,9.9,11.3,15.9,14.8v-5.3c-34.6-37.1-59.3-78.4-82.7-120.1
	C1907.5,888.7,1917.1,897.6,1923.5,898.6L1923.5,898.6z"/>
<path class="st0" d="M1111.7,898.6c-4.2,3.5-11.7,5-18.7,4.3C1097.6,899.3,1104.7,897.9,1111.7,898.6z M1312,898.6
	c0.7,2.1-1.8,2.8-2.5,4.3h-2.8C1306.4,899.3,1310.2,900,1312,898.6L1312,898.6z M815.4,900h8.1v2.8h-8.1V900z"/>
<path d="M1931.2,1024c2.1,9.5,3.9,24.4-9.2,26.9c-37.8,7.4-63.9-34.6-89.4-58.6l-1.4,1.4c12,20.2,20.8,43.5,18.7,67.8
	c-7.4,8.5-19.8,12.3-29.3,6.7c-8.9-5-14.9-13.9-16.2-24c4.6-3.9,12,3.2,10.9-6.7c3.5,3.2,4.2,10.9,9.2,13.4
	c-1.1-6.7-1.8-17.3-6.7-24l12,15.9c3.2-4.9,0.4-10.6-2.4-14.5c5.7-0.7,4.6,6,9.2,8.1c1.1-6.3-4.6-13.1-9.2-18.7
	c-2.8-3.2-6.3-5.6-6.7-9.5l13.4,12c-0.7-5.6-6.3-12.3-9.5-18.7c1-9.5,2.4-19.4,9.5-26.5c5,2.4,0,9.2,5.3,12l1.1-18.7
	c3.2,7.8,4.6,15.9,9.5,22.6c0.4-12.3-3.5-26.5-3.9-39.9c16.6,25.1,30.1,51.2,50.5,74.5l12-3.9c-3.9-7.4-13.4-7.8-18.7-14.8
	c4.2-3.9,10.3,4.2,14.8,1.4c-7.1-7.8-17.7-11.6-26.9-17.3l8.1-1.4c-5.6-6.3-18.3-7.8-21.5-18.7c9.5-3.5,17,10.6,26.9,5.3
	c-9.1-8.5-23.3-8.8-32.1-15.9c12.3-3.5,24,6.3,35,6.7c-4.2-8.8-16.2-9.5-24-14.8c-7.1,0-12.3-4.2-18.7-6.3c6.7-4.2,17.6,1.8,25.1,0
	c-5.3-7.1-16.2-8.8-22.6-13.4h16.2c-2.4-6.7-9.9-7.8-14.8-10.6l14.8-1.4c1.4-6.3-11.7-3.9-5.7-10.6l-1.1-5.7
	C1888.5,942.8,1907.2,984.8,1931.2,1024L1931.2,1024z"/>
<path class="st0" d="M1374.9,905.3c-1.4,6.4-11,4.3-16.2,6.7C1362.5,908.5,1368.9,906.4,1374.9,905.3z M1090.6,909.6
	c-1.4,4.9-8.1,1.4-12,2.4C1080,907.1,1086.3,910.3,1090.6,909.6z M803.4,912v1.4h-14.5C793.9,913.1,798.4,908.5,803.4,912z
	 M1390.8,912c-2.5,6.3-12.3,4.2-18.7,6.7C1377,913.9,1383.9,911.5,1390.8,912z M1202.5,925.5c-0.4-0.7,0.7-9.2,4.2-12
	C1206.9,917.9,1205.4,922.2,1202.5,925.5z M1326.8,917.4v-2.5h2.5L1326.8,917.4z"/>
<path d="M924.9,922.6c-1.4,2.4-3.9,3.2-6.7,2.8l-2.5-2.8C917.8,920.9,922.8,920.9,924.9,922.6z"/>
<path class="st0" d="M1193.3,921.6c-4.6,1.4-3.2,9.2-9.5,6.3C1183.1,921.6,1190.1,923.7,1193.3,921.6z M771.6,929.3h-8.1
	c1.1-2.1,4.6-2.8,8.1-2.4V929.3z M1327.9,927.9c-2.1,4.6-8.5,5.6-13.1,6.7C1317,930.1,1321.9,927.2,1327.9,927.9L1327.9,927.9z"/>
<path d="M1700.6,927.9c-2.8,5.6-11.6,1.8-16.2,6.7l18.7,1.4l-18.7,9.5l18.7,1.1c0.7,2.1-1.7,2.8-2.4,4.2c-10.3,1-21.2,2.4-28.2,7.8
	l18.7,1.4l-7.8,3.9c0,4.9,5.7,3.2,7.8,5.7c-36.4,0.4-72.8,6.7-102.8,25.1c2.8-7.1,9.5-16.6,16.2-24
	C1631.4,944.6,1663.8,931.5,1700.6,927.9L1700.6,927.9z"/>
<path class="st0" d="M1173.2,932.2c0.1,3.1-1.4,6-3.9,7.8c-2.1,0.7-2.8-1.4-4.2-2.5c-8.1,3.2-14.1,12.3-17.3,20.2
	c-2.8-2.8,3.9-8.8,1.4-12C1156.6,939.6,1165.1,936.4,1173.2,932.2L1173.2,932.2z M1341.3,933.6c-5,3.9-11.7,8.8-18.7,10.6
	C1327.2,938.5,1333.9,934,1341.3,933.6z M743.3,942.8l-13.1,1.4C732.4,941.7,739.8,937.1,743.3,942.8z M1201.1,962.9l28.2-23
	l-16.2,14.8L1201.1,962.9z M1352,940c-6,3.5-11,9.9-18.4,9.5C1337.1,942.8,1345.6,941.7,1352,940z M1128,944.2h12v1.4h-12V944.2z
	 M1361.5,946.7c-4.6,5.6-11.6,11.3-20.1,10.9C1346.6,953.4,1353.3,947.4,1361.5,946.7z M1374.9,951.9c-2.4,3.9-7.4,6-12,6.7
	C1363.2,953,1370.3,953.4,1374.9,951.9z M1119.9,954.8c1.8,4.3-3.5,3.5-5.3,5.3h-5.3C1110.7,956.6,1116.3,956.6,1119.9,954.8
	L1119.9,954.8z M1134.7,954.8c-0.8,3.3-3.4,5.9-6.7,6.7l-1.4-1.4C1127.6,957.6,1130.4,953,1134.7,954.8z M718.3,957.6
	c-0.4,2.1-4.6,0.7-6.7,1.1C711.2,954.8,716.8,955.8,718.3,957.6z M1390.8,958.6c-2.1,2.5-6,6.3-10.6,5.3
	C1379.8,958.3,1386.5,958.3,1390.8,958.6z M1418.7,964h-10.6c-0.4-4.6,6.7-3.9,10.6-3.9V964z M1388,970.7c-1.1,5.3-9.5,6-14.5,8.1
	C1375.6,974.9,1382,970,1388,970.7z M690,974.9h-5.3c-0.4-3.2,3.5-2.8,5.3-2.8V974.9z M1428.2,972.1c1.1,2.8-1.4,4.9-4.2,3.9h-5.3
	C1420.8,972.1,1425.1,973.5,1428.2,972.1z"/>
<path d="M1053.1,976c-1.1,2.4-3.5,1.1-5.3,1.4v-2.4C1049.6,975.2,1052,973.9,1053.1,976L1053.1,976z"/>
<path class="st0" d="M1385.5,984.1c-7.1,4.6-15.5,10.6-25.4,12C1366.4,990.1,1375.2,983.8,1385.5,984.1z M1433.5,986.9h-3.9
	c-0.4-2.4,1.8-3.2,3.9-2.8V986.9z M663.5,988l-12,1.4c3.4-2.7,7.7-4,12-3.9V988L663.5,988z M831.6,990.8c2.1,6.3-3.9,12.3-5.3,18.7
	c0-4.2,6-9.5,0-13.4c-5.3,3.2-12.3,3.9-14.8,10.6c1.4,10.9-1.8,19.8-5.3,28.2c-0.4-0.4,7.1-19.8-1.4-25.4
	C810.1,1000.7,822.4,997.2,831.6,990.8L831.6,990.8z M1394.7,992.2c-6.7,3.2-12.7,9.9-21.2,9.1
	C1379.1,995.8,1386.7,992.5,1394.7,992.2z"/>
<path d="M1078.5,994.7c1.1,3.2-1.8,4.6-2.8,6.7h-2.5C1073.6,998.9,1074.3,993.6,1078.5,994.7z"/>
<path class="st0" d="M1408.1,996.1c-1.1,7.1-9.9,5.3-14.5,9.5C1395.7,1001.4,1402.4,997.2,1408.1,996.1z"/>
<path d="M1110.7,1004.2c-4.9,4.9-14.1,1.7-18.7,2.4C1097.9,1007.8,1103.6,999.3,1110.7,1004.2z"/>
<path class="st0" d="M1420.1,1002.8c1.1,3.2-2.8,6-5.3,6.7h-1.4C1412.3,1005.3,1417.7,1004.2,1420.1,1002.8z M628.5,1006.7h-7.8
	c1.4-3.2,4.9-2.4,7.8-2.4V1006.7z"/>
<path d="M1179.9,1005.7c1.8,5.6-5.3,7.8-8.1,12l-1-1.4C1173.5,1012.4,1175,1007.1,1179.9,1005.7L1179.9,1005.7z"/>
<path class="st0" d="M1429.6,1013.4h-4.2c-0.4-2.1,2.1-2.8,4.2-2.4V1013.4z"/>
<path d="M1098.7,1013.4c-7.1,10.6-21.5,2.5-30.7,6.7C1076.4,1017.6,1088.8,1013.1,1098.7,1013.4z"/>
<path class="st0" d="M787.5,1036.4c0-4.6,6-9.9,0-13.4c-4.9,2.8-10.9,3.2-14.5,9.1l-2.8,10.6c-0.7-4.6,2.8-7.4-2.8-10.6
	c-11.6,5-11.3,17-14.5,26.9c-3.2-6,6.3-12.3-2.8-16.2c-9.2,3.5-8.8,13.4-10.6,21.5c-1.1-3.9,2.4-8.8-2.8-10.6
	c-6-1.1-8.8,6.3-13.1,9.1l-2.8,15.9c-2.1-5.7,4.9-10.6-1.4-14.5c-11.6,0.7-10.3,13.8-13.1,21.2c0.4-2.8-1.1-7.1,1-9.1
	c-3.2-8.8-7.8,0-12,1.4c-6.7,6.7-2.8,17.3-9.2,24c-1.8-7.1,8.8-12.3,1.4-18.7c-6,2.1-13.1,5.3-16.2,12c-1.4,6.3-1.4,13.4-5.3,18.7
	c-0.4-5.7,4.2-12.7-1.4-17.3c-14.5,4.9-9.9,20.2-14.5,30.4c-7.8-6.4,10.3-20.2-5.3-17.3c-8.5,3.5-3.5,12-6.7,17.3
	c-1.1-3.5,2.1-8.5-2.8-10.6c-8.8,1.1-2.4,11-7.8,14.8c0.7-4.2-1.1-7.1-4.2-9.5c-12,5.3-8.8,19.4-13.1,29.3c1.4-6,2.8-14.8-1.4-19.8
	c-7.4,4.2-7.8,12-9.5,18.7c-1.1,1.4,3.5-10.6-3.9-12c54.4-38.1,111.2-70.7,166.7-105.6c9.2-8.1,20.2-18,33.6-18.7L787.5,1036.4
	L787.5,1036.4z M1448.4,1016.2c-6,4.2-14.1,6.7-21.6,9.2C1430.4,1019.8,1440.2,1013.4,1448.4,1016.2z M604.5,1021.5H590
	c2.8-3.5,8.8-4.6,14.5-3.9V1021.5z M1460.4,1024c-11.6,5-23.7,12.7-37.5,13.4C1435.3,1032.8,1446.2,1024.7,1460.4,1024z
	 M581.9,1033.5v2.8h-10.6C573.1,1033.2,578.4,1030.4,581.9,1033.5z M1465.6,1035c-13.4,2.8-25.8,8.1-38.8,12
	c9.9-8.5,25.1-11,38.8-13.4V1035z"/>
<path d="M1246.7,1041.7c0.7,1.8-1.7,2.4-2.8,3.9h-1C1241.4,1044.9,1243.1,1036.7,1246.7,1041.7z"/>
<path class="st0" d="M557.9,1045.6c0.4,2.1-0.4,4.2-2.4,3.9h-4.3C551.5,1046.3,555.4,1045.6,557.9,1045.6L557.9,1045.6z
	 M1456.1,1049.5c-2.3,5.1-7.9,7.9-13.4,6.7C1445.2,1051.2,1450.7,1048.4,1456.1,1049.5z"/>
<path d="M1804.4,1085.5c-2.4,3.2-2.8,8.5-7.8,8.1h-5.3c-0.4-13.1,4.9-23.7,9.2-34.6C1806.2,1066.1,1807.2,1077,1804.4,1085.5
	L1804.4,1085.5z"/>
<path class="st0" d="M1478.7,1060.4c-3.9,2.4-9.2,7.1-15.9,6.3C1464.6,1061.1,1473.1,1061.5,1478.7,1060.4z M834.1,1085.5
	c0-4.6,5.3-7.1,5.3-12c-2.5-7.1-9.2-2.5-12,1.4c-7.8,6.3-6,16.6-12,24c1.4-3.9,2.8-8.1,4.2-12c-4.2-6.7-8.8,1.1-13.4,1.4
	c-9.2,8.1-9.5,19.8-14.8,29.3c-3.2-0.7,13.4-24.4-3.9-15.9c-7.1,3.5-5.3,11-9.1,15.9c2.1-4.2-3.9-7.4-5.3-8.1
	c21.6-19.1,45.9-31.1,69.2-46.7C841.9,1068.5,838.3,1078.4,834.1,1085.5L834.1,1085.5z M1488.3,1069.6c-4.2,4.2-11.3,6.7-17.3,9.2
	C1472.7,1072.4,1481.6,1070.6,1488.3,1069.6z M511.3,1074.9h-5.3c-0.4-2.8,3.2-2.4,5.3-2.4V1074.9z M1492.1,1081.6
	c-0.4,3.2-5.7,6-9.2,6.7h-2.8C1481.6,1081.9,1488.3,1084.1,1492.1,1081.6z M897,1113.7l2.5-12c-5.3,0.4-13.8,6.3-15.9,13.1v1.4
	c-9.9-6-18.7,10.6-26.5,14.8c-6-2.8-10.9,5.3-16.2,7.8c-4.9,3.9-1,11.7-6.7,14.8c-0.7-2.8,1.8-4.3,2.8-6.7
	c-3.2-6.3-7.4,0.4-10.6,1.4c-5.3,4.9-11.3,12-16.2,14.5c-1.7-5.3-5.3,0-7.8,0c32.9-22.2,71.3-50.9,108.1-74.5
	C905.1,1093.6,905.1,1106.6,897,1113.7L897,1113.7z M1488.3,1097.5h-2.8c1.7-5.7,8.1-5.7,12-7.8
	C1498.2,1096.1,1490.7,1093.6,1488.3,1097.5L1488.3,1097.5z M1201.1,1098.9c-3.2,6.3-9.9-1.1-15.9,1.4
	C1188,1096.1,1196.5,1097.1,1201.1,1098.9z M1517.6,1097.5c-3.2,4.9-9.9,7.8-15.9,9.5C1504.2,1099.9,1511.2,1098.5,1517.6,1097.5z
	 M1087.7,1104.2c-0.7,1.1-2.4,3.9-5.3,2.8C1084.2,1105.6,1085.6,1103.1,1087.7,1104.2z M1532.4,1107c-2.5,4.2-8.5,6-13.4,6.7
	C1521.1,1109.1,1527.8,1105.3,1532.4,1107z M1183.8,1108.4v1.1h-6.7C1178.1,1109.1,1181.7,1104.6,1183.8,1108.4z"/>
<path d="M1298.6,1113.7c-4.6,6-10.6,0-15.9,0C1285.5,1109.5,1295,1109.5,1298.6,1113.7z"/>
<path class="st0" d="M761,1133.5c0,3.2,4.2-19.1-6.7-9.2c-5.3,5.7-5.6,13.4-9.5,20.2c-1.1-4.2,2.5-9.9-2.5-12
	c-14.5,4.2-10.3,20.8-20.1,29.3c1.7-4.9,1.7-11,5.3-14.8c-3.5-7.8-6.3,3.2-10.6,1.4c-7.8,3.9-5.7,12-10.6,17.3l-4.2-6.7
	c-7.1,3.9-11.3,10.9-14.5,17.3c-4.2-10.3-10.6,2.4-16.2,2.8l-12,15.9c0-1.4-0.4-3.2,1.4-3.9c-1.7-1.4-2.8-3.9-5.3-2.8
	c35.8-25.6,72.3-50.1,109.5-73.5C769.5,1120.8,762.1,1127.2,761,1133.5L761,1133.5z"/>
<path d="M1667,1122.9c-4.6,3.2-13.8,1.7-19.8,3.9c4.2,1.1,7.8,3.9,13.1,2.8l-2.5,2.8c-17.7-7.1-35.3,14.1-50.9-2.8
	c8.1-8.8,24-4.2,34.6-9.2L1667,1122.9z"/>
<path class="st0" d="M1532.4,1121.5c-2.8,7.8-13.4,7.1-20.1,10.9C1517.6,1128.2,1524.3,1122.2,1532.4,1121.5z M1544.4,1129.6
	c-3.2,6.7-13.1,7.8-20.1,10.6C1527.1,1133.1,1537.4,1132.4,1544.4,1129.6z M1567,1134.9c-1.8,6-8.8,4.9-13.4,6.7
	C1555.4,1135.6,1562.4,1136.7,1567,1134.9z"/>
<path d="M1661.7,1138.8c-13.8,0-27.6,7.4-39.9,2.8l7.8-3.9h32.1L1661.7,1138.8L1661.7,1138.8z"/>
<path class="st0" d="M586.1,1156.5c1.8-3.9,1.4-8.5-2.8-11c2.2-2.9,5.5-4.8,9.2-5.3L586.1,1156.5L586.1,1156.5z M392.5,1144.5h-5.6
	c0-3.2,3.5-2.8,5.6-2.8V1144.5z M1255.8,1145.5c-7.1,4.9-14.5-2.5-19.8-3.9h19.8V1145.5z"/>
<path d="M1330.7,1153.7h-1.4c-1.8-2.8,3.2-6,4.2-9.2C1336.4,1147.3,1333.6,1151.2,1330.7,1153.7L1330.7,1153.7z M1664.5,1146.9
	c-8.1,4.9-22.2,7.8-32.1,2.8C1642.3,1146.6,1653.6,1144.1,1664.5,1146.9z"/>
<path class="st0" d="M551.2,1169.5l-3.9,10.9c0.4-1.8-1.1-4.6,1.4-5.6c-2.4-1.1-3.5-5.3-6.7-3.9l30.7-20.2
	C572,1166,555.1,1154.4,551.2,1169.5L551.2,1169.5z M1225.1,1152.2h12v1.4h-12V1152.2z M1582.9,1153.7c1.1,6.3-6.3,4.2-9.1,6.7
	C1572.7,1154,1580.1,1156.1,1582.9,1153.7z"/>
<path d="M1672.3,1156.5c-5.7,3.5-14.8,3.5-22.6,5.3l-3.9-1.4C1649.7,1152.9,1663.5,1157.5,1672.3,1156.5L1672.3,1156.5z"/>
<path class="st0" d="M532.4,1174.8c2.5,5.6-4.9,6.7-5.3,10.9c-5.3-6.7-11.3,1.1-15.9,3.9c-1.8,1.8-1.8,3.9-3.9,5.3h-5.6v-2.5
	C511.6,1185.1,522.9,1182.2,532.4,1174.8L532.4,1174.8z M1576.2,1174.8c-2.7,3.4-6.4,5.8-10.6,6.7
	C1566,1177.3,1572.3,1176.3,1576.2,1174.8z M638.1,1184.4c-2.8,2.4-7.1,1.1-10.6,1.4C628.2,1181.2,635.2,1182.6,638.1,1184.4z
	 M1300,1185.8v-1.4l13.4,1.4H1300z"/>
<path d="M1396.1,1191.1c-2.1-0.4-3.9,2.8-5.3,0l6.7-6.7C1401.4,1186.9,1395.7,1188.2,1396.1,1191.1z"/>
<path class="st0" d="M467.1,1189.7h6.7v2.8h-6.7V1189.7z M626.1,1193.6l-18.7,1.4c4.3-3.2,11.6-4.6,18.7-3.9V1193.6L626.1,1193.6z
	 M1636.3,1195c-3.5,6.7-13.4,9.5-22.6,9.5C1619.3,1199.2,1628.9,1198.1,1636.3,1195z M1645.8,1205.6c1.4,3.9-2.5,2.8-4.2,4.2h-3.9
	C1638,1205.2,1643,1206.6,1645.8,1205.6L1645.8,1205.6z M1257.3,1211.2c-1.8,2.1-7.1,0.7-10.6,1.1
	C1247.7,1208.4,1254.8,1209.5,1257.3,1211.2z M1659.2,1215.1c1.4,4.6-3.9,2.8-5.6,5.3h-5.3C1650,1216.9,1655.3,1216.9,1659.2,1215.1
	z M1675.1,1223.2c-2.1,7.8-10.6,5.7-15.9,7.8C1661,1225.7,1669.8,1225.7,1675.1,1223.2z"/>
<path d="M1429.6,1237.7l-1.4-1.4l9.2-12C1442.4,1229.2,1434.9,1236.7,1429.6,1237.7z M1447,1229.6l-1.4-1.1l3.9-4.3l1.4,1.4
	L1447,1229.6z"/>
<path class="st0" d="M1683.3,1231c1.4,3.9-2.8,3.9-4.2,5.3h-5.3C1675.1,1233.1,1679.4,1232.1,1683.3,1231L1683.3,1231z
	 M1337.4,1237.7h-12C1329.1,1235.6,1333.7,1235.6,1337.4,1237.7z M1312,1248.3h-8.1v-1.1C1306.7,1247.2,1309.9,1246.2,1312,1248.3z
	 M1436,1264.6c-4.6,8.5-12,15.9-18.4,24c0.4-5.3,4.2-9.2,6.3-13.4c-2.1-4.2-8.1-1.1-10.6,2.4l-15.9,23c-3.2-5.3,7.8-12.3,5.3-18.7
	c-11.3,1.4-17.7,14.1-26.9,21.2c-1.8-1.4,2.5-6,2.8-9.2c-11-4.2-17.3,14.5-29.3,7.8l-10.6,2.8c17-10.6,44.2-16.2,65.3-26.9
	C1415.5,1274.8,1424.7,1267.4,1436,1264.6L1436,1264.6z M1362.9,1288.6l-6.7-1.4c1.8-0.7,3.9-1.8,6.7-1.4V1288.6L1362.9,1288.6z
	 M1348,1293.9l-15.9,1.4C1334.6,1290.7,1343.5,1292.1,1348,1293.9z M1593.5,1416.4h-2.4l1.4-5.3
	C1594.6,1412.2,1593.2,1415,1593.5,1416.4z M1633.8,1440.5v2.8h-2.8v-3.9C1632.4,1439.1,1633.1,1440.1,1633.8,1440.5z M751.5,1563.4
	h-5.3c-33.6-23-67.8-44.8-98.9-73.5C684.3,1508.6,716.1,1540.4,751.5,1563.4L751.5,1563.4z M970.4,1640.7v2.8
	c-47-31.1-71-81.6-104.2-122.9C906.5,1557,926.6,1604.4,970.4,1640.7z M1193.3,1672.9c-12.3,1.1-23-15.9-34.6-24
	c-25.1-28.6-46.3-59-66.8-89.4C1131.1,1594.8,1149.9,1641.4,1193.3,1672.9L1193.3,1672.9z M1051.7,1579.3c1.4-5.7,2.1-11.6,6.7-15.9
	C1057,1569,1057.3,1577.9,1051.7,1579.3z M824.9,1622c-40.3,0.7-78,5.3-117.6-2.4v-2.8C744.8,1626.6,786.4,1614.6,824.9,1622z
	 M1107.8,1694c-60.4,7.8-121.5,27.9-178.7,29.3C989.2,1715.3,1044.6,1695.5,1107.8,1694z M1215.9,1718.1
	c-47.4,17.3-96.4,36.4-148,45.5c21.9-9.9,48.7-13.1,72-22.6C1164.7,1731.2,1189.1,1722,1215.9,1718.1L1215.9,1718.1z M1760.6,1813.1
	c-38.2-5.3-78.4-20.5-114.8-33.6C1684.3,1789.4,1724.2,1797.6,1760.6,1813.1z M1555.5,1799.3h13.2c2.6,0,7,0.5,7,6.5
	c0,5.8-4.1,6.7-8,6.7h-12.3L1555.5,1799.3L1555.5,1799.3z M1935.4,740l-47,3.9c13.4-4.9,29.3-9.9,47-8.1L1935.4,740L1935.4,740z
	 M1986,745.3v1.4c-4.2,0-7.4-4.9-9.1-8.1C1979.6,740.7,1987,738.9,1986,745.3z M1974,747.8l-14.5-7.8
	C1964.8,741.1,1972.9,741.8,1974,747.8z M1922,747.8v4.2l-26.9-1.4C1903.7,747.5,1912.9,745.3,1922,747.8z M2059.4,750.6v2.4
	c-3.9,2.1-6.3-3.9-9.2,0l15.9,20.1c-7.8-1.4-17-12.3-25.4-18.7c-2.8-7.4,4.6-5.6,8.1-7.8C2053.1,746.4,2057.3,746.7,2059.4,750.6
	L2059.4,750.6z M2074.3,753.1v2.8c-4.6-0.4-9.1-4.9-9.5-9.2C2069.7,744.6,2072.5,750.6,2074.3,753.1z M2087.4,755.9
	c-6,1.1-4.2-6.3-6.3-9.2C2085.2,747.5,2087,752.4,2087.4,755.9z M1966.2,754.5c-3.2,0-12-1.7-14.8-6.7
	C1957.1,747.3,1962.7,749.8,1966.2,754.5z M2105,757.3c-3.9,2.8-11.6-4.6-12-9.5C2100.1,746.4,2099.3,754.5,2105,757.3z
	 M2114.2,753.1v2.8l-3.9-5.3C2112,749.9,2112.8,752.4,2114.2,753.1z M2051.3,776.1c-6.7,0-15.5-12-21.2-18.7V752
	C2040.4,755.2,2044.6,767.9,2051.3,776.1z M2131.5,757.3v2.5c-2.4-2.5-8.5-2.5-8.1-7.8C2127.6,751,2129,755.6,2131.5,757.3z
	 M2045,786.7l-25.4-24c0,8.8,7.7,17.7,12,26.5c-10.6-6-12.3-19.4-21.5-26.5c-4.9,6,3.9,9.2,1.4,15.9c-4.2-4.6-5.6-10.3-10.6-14.5
	l-3.9,5.3c-5.6-12,14.5-9.9,21.2-16.2C2031.2,760.2,2035.8,775.7,2045,786.7L2045,786.7z M1954.2,759.8c-3.9,3.9-9.9-1.1-14.8-1.1
	C1942.5,752.7,1950,757.7,1954.2,759.8z M2150.2,759.8v2.8c-2.4-1.4-7.8-2.4-6.7-6.7C2147,754.5,2147.7,758.7,2150.2,759.8z
	 M1907.2,759.8c-2.8,9.1-13.1-0.4-21.2,2.8v-2.8C1892.4,758.7,1902.2,757,1907.2,759.8z M2172.8,766.5l-6.7-3.9h2.8L2172.8,766.5z
	 M1988.8,773.2c-2.8-1.7-9.5,0.4-8.1-5.3l5.3-2.8C1987.7,766.5,1988.5,770.4,1988.8,773.2L1988.8,773.2z M1999.4,794.8
	c-6.3,0.4-14.5-10.3-21.2-14.8l-1.4-6.7C1982.8,781,1992.3,786,1999.4,794.8L1999.4,794.8z M1995.5,809.3
	c-10.2-8-19.2-17.4-26.9-27.9l1.4-4.2C1978.9,786.7,1987,798.7,1995.5,809.3L1995.5,809.3z M1975.4,803.9
	c-7.9-4.5-13.3-12.3-14.8-21.2C1969.7,785.6,1970.4,796.9,1975.4,803.9z M1868.7,789.1H1826c12.3-5.7,31.4-3.5,42.7-3.9V789.1z
	 M1889.9,788l1.4-2.8l9.2,2.8H1889.9z M1964.8,807.8c-4.6-5.3-13.8-10.9-12-19.8C1958.4,791.6,1963.4,800.4,1964.8,807.8z
	 M1952.8,800.1v3.9c-4.2-1.7-7.4-6-6.7-10.6C1950.6,791.9,1950.3,797.6,1952.8,800.1z M1901.9,800.1l-14.5-1.4v-3.9
	C1893.4,793.7,1897.6,796.6,1901.9,800.1z M1868.7,802.6c-19.8,0-40.3-6-58.6,0c18-1.4,38.1-8.5,58.6-3.9V802.6z M1899.4,807.8
	c-2.4,3.9-7.1-0.7-10.9-1C1891.3,803.6,1895.9,804.3,1899.4,807.8z M1868.7,812.1c0.4,2.1-3.9,1.1-5.3,1.1v-3.9
	C1865.2,809.9,1867.3,810.3,1868.7,812.1z M1832.7,813.2h-26.9c9.2-0.7,17-3.5,26.9-2.5V813.2z M1859.1,821.3
	c-1.7,3.5-7.8-0.4-9.2-2.5C1853.5,817.7,1856.3,819.8,1859.1,821.3z"/>
<path d="M2237.1,834.7c-0.7,1.8-2.8,1.4-4.3,1.4c-6-2.4,0-6.3,0-9.5C2237.4,826.9,2236.1,831.9,2237.1,834.7L2237.1,834.7z"/>
<path class="st0" d="M1853.9,829.4c-0.4,1.4,0.7,1.8,1.4,2.5l-12-1.1V828L1853.9,829.4L1853.9,829.4z M2201.1,852l-4.2,3.9
	c2.4,1.1,1.1,3.9,1.4,5.6c-7.4-2.4-5.3-21.5-15.9-13.4c-5.3-2.1-4.6-18-14.8-11l-1.4-7.8C2179.5,832.6,2190.1,845.3,2201.1,852
	L2201.1,852z M2337.1,837.1l-26.9-2.5v-1.4C2320.1,832.6,2328.9,834,2337.1,837.1z M2313,857.3c3.1,3.8,4.9,8.5,5.3,13.4
	c-6.7-9.2-8.8-21.2-17.3-27.9c-4.9,6,3.5,9.2,1.4,15.9l-10.6-22.6C2301.4,842.1,2314.8,842.1,2313,857.3L2313,857.3z M1860.6,845.3
	l-9.1-3.9l9.1,1.4V845.3z M2333.2,841.4c0.4,2.1-2.1,2.8-4.2,2.5c-1.8,0-5.6,0.4-5.3-2.5H2333.2L2333.2,841.4z M2327.9,854.8
	c-4.2,4.9,1.4,9.2,1.1,14.5c-5.3-4.9-10.9-12-12-20.2C2320.8,850.6,2324.7,850.9,2327.9,854.8z M1834.1,854.8
	c-12,1.4-25.1-3.2-38.8-1.4c9.9-4.3,26.9-3.2,38.8-1.4V854.8L1834.1,854.8z M1856.7,852v1.4l-4.2-2.8
	C1853.9,850.6,1856,850.2,1856.7,852L1856.7,852z M2355.8,852c-1.4,4.9-8.1,1.8-12,2.8l-1.4-1.4
	C2344.5,848.5,2351.5,851.7,2355.8,852L2355.8,852z"/>
<path d="M2119.5,854.8c-1.4,1.4-0.7,5.7-3.9,5.3c-2.4-2.1-6.7-6-1.4-8.1C2116.7,850.9,2117.7,853.4,2119.5,854.8L2119.5,854.8z
	 M2129,867.9c-2.1,1.4-6-1.1-8.1-3.9l5.3-10.6C2131.1,856.6,2127.9,862.9,2129,867.9L2129,867.9z"/>
<path class="st0" d="M2526.8,1062.9c-6.3,3.9,0.7,11,0,17.3c-8.5-11.3-15.2-26.5-29.3-31.8c-2.4,6.7,4.9,13.4,5.3,21.2
	c-9.9-12.3-16.2-27.2-29.7-37.5c-4.6,5,2.8,11.7,4.2,17.3c-11.3-7.4-14.5-27.6-30.7-36c-5.6,7.1,5.3,13.8,5.3,21.5
	c-8.8-12.7-14.1-28.9-29.3-36c-5.3,5.7,4.6,8.1,1.4,14.5c-9.1-10.6-12.3-25.8-26.9-31.8c-6.3,2.8,0.7,6.7,0,10.6
	c-8.8-7.4-12.3-21.9-24-26.9c-4.9,4.6,1.8,10.6,1.4,16.2c-9.9-11.3-13.8-28.6-29.3-33.6c-6,4.6,3.5,9.5,1.4,15.9
	c-9.5-9.5-9.5-25.4-24-30.4c-4.6,2.8,1.1,8.5,1.1,13.1c-7.8-6.7-13.4-28.6-26.5-22.6c2.4,3.5,3.8,7.5,3.8,12
	c-8.8-9.2-8.5-24.7-22.6-29.3l-2.8,2.8l-17.3-16.2l-3.9,5.3c-4.2-6.3-6.7-14.8-14.8-18.7c-3.2,1.8-2.4,5.3-2.4,8.1
	c-5.6-6.7-7.8-17.3-17.3-20.1c-2.4,1.4-1.1,4.6-1.4,6.7c-6.1-4.4-9.9-11.3-10.6-18.7C2315.7,922.4,2422,991.4,2526.8,1062.9
	L2526.8,1062.9z M2573.4,993.6c-1.4,7.4,5.3,14.8,8.1,22.6c-7.4-10.6-13.8-24.4-26.9-30.7l-2.8,2.5l12,20.1
	c-12.3-6-13.8-26.5-29.3-33.2c-2.1,10.6,10.9,18.4,12,29.3c-8.1-13.1-15.6-29-29.3-37.5c-4.9,3.2,1.8,7.8,1.4,12
	c-8.5-8.8-14.1-24.7-26.9-29.3l-2.4,2.4l13.4,25.4c-11-8.8-15.9-31.1-30.7-39.9l-2.8,2.5c4.3,7.4,6.7,16.2,9.5,24
	c-9.9-12-13.8-30.7-29.7-37.1c-6.4,3.9,1.4,8.1,0,13.1c-6.4-8.8-7.1-22.6-19.8-26.5c-6,4.6,0,10.6,0,15.9
	c-9.9-6.3-7.1-25.8-21.6-22.6v5.3l-14.5-18.7c-5.6,4.2,1.4,9.9,2.5,14.8c-6.7-6-10.3-17-18.7-22.6c0.4,9.2,9.2,18.4,13.4,27.9
	c-9.9-9.2-17-27.6-30.7-38.8c-7.1,4.9,4.9,8.8,2.8,14.8c-8.5-5.7-12-16.6-18.7-22.6v9.1c-4.6-6.3-10.6-12.3-12-20.1
	C2413,900.4,2492.5,948.4,2573.4,993.6L2573.4,993.6z"/>
<path d="M1994.1,872.1c-0.7,1.4-2.8,1.4-3.9,1.4c-5.3-3.5-1.4-8.8,1.1-12C1993.7,864.4,1994.4,867.9,1994.1,872.1z M2048.8,862.6
	c-0.4,1.7,1,4.6-1.4,5.3l-5.3-5.3C2043.5,860.8,2047.4,860.8,2048.8,862.6z"/>
<path class="st0" d="M2377,864c-3.5,2.5-8.8,1.1-13.1,1.4v-3.9C2369.2,860.5,2372.8,862.9,2377,864z M1811.1,865.4l-2.4,2.5l-24-2.5
	C1793.4,865.4,1803.3,859.4,1811.1,865.4z M1725.6,864c0,8.1-7.4,11.6-14.5,8.1C1714.3,868.3,1719.3,862.6,1725.6,864z"/>
<path d="M2055.5,866.8c-0.4,3.9,1.1,7.1-1.4,12c-3.2-1.1-2.8-6-2.8-9.5C2052.7,868.3,2053.4,866.1,2055.5,866.8L2055.5,866.8z"/>
<path class="st0" d="M1843.3,870.7h-8.1l1.4-2.8C1838.7,869.6,1841.5,868.3,1843.3,870.7L1843.3,870.7z"/>
<path d="M2004.7,896.1c-7.1-5.3-9.1-15.5-7.8-25.4l2.5-2.8C2002.9,876.7,2004,888,2004.7,896.1L2004.7,896.1z"/>
<path class="st0" d="M2194.4,876c-9.2-1.7-20.5-1.4-26.9-6.7C2177.4,869.6,2190.1,867.5,2194.4,876z M1834.1,878.9l-9.5-1.5V876h9.5
	V878.9z M2213.1,886.6c-8.8,2.5-19.8-3.5-29.3-5.3C2193.3,883.1,2206.7,877.1,2213.1,886.6z"/>
<path d="M1935.4,890.9c-0.7,0.7-1.4,1.4-2.8,1.1c-3.5-2.8,1.1-6.3,1.4-9.2C1936.5,884.8,1935.1,888,1935.4,890.9L1935.4,890.9z"/>
<path class="st0" d="M1831.3,888l-9.2-1.4v-1.1h9.2V888z M2226.2,898.6c-9.5-3.9-23-1.7-30.4-7.8
	C2206.7,895.4,2220.8,885.9,2226.2,898.6z M2423.9,891.9c-1.7,0.7-6.7,4.9-8.1,0H2423.9z"/>
<path d="M1875.4,908.2c-2.2-1.5-3.3-4.1-2.8-6.7l3.9-3.9C1878.9,899.3,1878.2,905.3,1875.4,908.2z"/>
<path class="st0" d="M1791.3,906.7l-40.3,1.4c11.6-5.7,27.5-5.7,40.3-5.3V906.7z M2453.3,903.9c-4.9,0.4-12.3,5.3-18.7,1.4v-3.9
	C2441.6,900.4,2446.9,903.2,2453.3,903.9L2453.3,903.9z M2244.9,910.6c-8.1-0.7-25.1-3.2-30.7-7.8
	C2223.7,907.5,2239.9,897.9,2244.9,910.6z M1788.5,914.9v2.5c-7.1,1.1-12.3-1.8-18.7-2.5C1776.8,916.6,1782.2,910.6,1788.5,914.9z
	 M2461.1,914.9c-0.4,2.1-5.3,0.7-7.8,1.1v-2.5L2461.1,914.9z M1791.3,927.9l-12-1.1v-2.8l12,1.4V927.9z M2498.5,930.8
	c-6.3,1.1-19.4,4.2-25.4-2.8c5.7-3.5,16.2,1.1,24.4,1.4L2498.5,930.8L2498.5,930.8z M1826,930.8v2.8c-3.5,0.4-7.4-0.7-8.1-4.2
	C1820.6,929.7,1823.8,928.3,1826,930.8z M2510.5,941.4c-2.8,1.8-12.7,3.2-14.5-1.4L2510.5,941.4z M1802,950.9l-21.6-4.3l21.6,1.4
	V950.9z M2538.7,956.2c-3.9,1.1-15.5,4.3-17.3-2.8C2527.8,952.3,2533.1,955.1,2538.7,956.2z M1805.8,964
	c-15.5,2.8-32.9-4.6-50.5-3.9l1.1-1.4C1773.7,958.3,1791.3,958.3,1805.8,964L1805.8,964z M2074.3,1036.4l-4.2-4.2
	c-1,1.8-3.5,3.2-2.4,5.3c-5.7-8.1-7.4-18.7-17.3-25.4c-8.1,2.5-11-20.1-20.1-13.1c-6.4-6.7-3.2-17.7-13.4-23c-6,3.2,0,7.8-1.4,12
	l-7.8-29.3C2032.3,981.3,2050.6,1010.9,2074.3,1036.4L2074.3,1036.4z M2545.4,969.6v-2.8l15.9,2.8H2545.4z M1800.5,974.9
	c-2.4,2.8-12,0.4-10.6-2.8L1800.5,974.9z M2454.7,986.9c-14.1,0.4-25.8-5.3-38.8-8.1l1.4-1.4C2431,976.7,2442.3,983.4,2454.7,986.9
	L2454.7,986.9z M2596,984.1c-8.5,4.2-25.8,4.2-32.1-5.3L2596,984.1z M1792.4,986.9c-0.4,1.1,0.7,1.8,1.4,2.5
	c-12-1.4-27.6-2.5-41.3-3.9l1.4-2.8L1792.4,986.9L1792.4,986.9z M1867.3,1004.2l-3.9-17.3C1870.5,988.7,1865.9,998.6,1867.3,1004.2z
	 M2613.3,998.9H2596v-2.8C2602.7,995,2607.6,997.9,2613.3,998.9z M1784.6,1000c-4.2,3.2-12.7,0.4-16.2-2.4
	C1773.7,998.6,1780.7,995,1784.6,1000z M2598.8,1008.1c-7.8,9.5,5.3,16.2,6.7,25.4c-11.3-7.8-11-22.2-20.1-32.1
	C2590.3,1001.7,2594.2,1005.7,2598.8,1008.1z M1883.2,1010.9v6.7l-3.9-9.5C1881.4,1007.4,1882.1,1009.9,1883.2,1010.9z
	 M1779.3,1013.4c-7.4,1.8-12.7-2.8-20.2-1.4v-2.5C1765.9,1010.9,1777.2,1006,1779.3,1013.4L1779.3,1013.4z M2653.5,1017.6l-30.7-6.7
	l29.3,5.3L2653.5,1017.6z M2621.4,1021.5c-1,7.8,8.8,14.1,9.2,22.6c-8.5-8.1-13.1-18.4-18.7-27.9
	C2615.8,1016.6,2618.6,1018,2621.4,1021.5L2621.4,1021.5z M1769.8,1023c-13.2,1.8-26.7,1.8-39.9,0
	C1743.6,1018,1755.7,1020.1,1769.8,1023z M2008.9,1025.4c-1.8-1.4-13.8,3.5-13.4-3.9C2001.5,1019.1,2003.6,1025.1,2008.9,1025.4z
	 M2672.3,1050.8c-2.4-1.1-3.9,1.4-5.7,2.8c4.4,3,7.3,7.8,8.1,13.1c-9.9-8.5-17-24.4-30.7-29.3c-2.4,1.8-2.8,4.6-1.4,6.7l-13.1-17.3
	L2672.3,1050.8z M1769.8,1033.5v2.8h-34.6C1744.7,1033.2,1758.1,1030.4,1769.8,1033.5z M2100.8,1045.6h-6.7v-2.8
	C2097.3,1042,2098.6,1044.5,2100.8,1045.6z M2697.4,1047c-3.9,2.1-13.4,1.4-15.9-4.2C2688.2,1041.7,2691.3,1047,2697.4,1047z
	 M1767.3,1049.5h-17.7c3.9-3.2,11-4.6,17.7-3.9V1049.5z M2737.6,1086.9c-17.3,8.5-24.4-18-40.3-20.2c-4.6,6,7.4,8.8,6.7,14.8
	l-24-26.9L2737.6,1086.9L2737.6,1086.9z M2551.8,1081.6c-6.4,4.3,0.7,9.5,0,14.8l-14.5-24
	C2542.3,1074.9,2547.6,1076.6,2551.8,1081.6z M1761.7,1076.3v2.4h-27.9C1741.2,1076.3,1753.9,1072.4,1761.7,1076.3z M2601.3,1084.4
	c-14.1-1.1-29.3-2.5-39.9-9.5C2576.2,1073.8,2587.8,1081.2,2601.3,1084.4z M2335.6,1081.6h-27.9l-1.4-2.8
	C2316.2,1079.8,2327.9,1076.6,2335.6,1081.6z M1620.4,1086.9l1.4-1.4h7.8L1620.4,1086.9z M2578.7,1097.5c-4.6,0-13.1-5.7-18.7-10.6
	C2566.7,1089,2573,1092.5,2578.7,1097.5z M2339.9,1095c-2.5,3.9-9.9,2.1-14.8,2.4v-3.9L2339.9,1095z M2606.6,1097.5l-12-2.5l11,1.4
	L2606.6,1097.5z M1759.2,1107c-6.7,1-11.7-1.8-17.3-2.8c4.6-0.4,11.6-4.9,17.3-1.4V1107z M1687.2,1109.5
	c-10.3,1.1-22.2-1.4-33.6-2.4c6.4-2.5,22.6-1.1,33.6-1.4V1109.5z M2359.7,1109.5c-6,1.8-13.1,1.4-19.8,1.4v-5.3L2359.7,1109.5
	L2359.7,1109.5z M2633.4,1117.6c-8.5-1.8-20.1-1.1-24-8.1C2616.8,1113.7,2626.7,1112.3,2633.4,1117.6z M1756.4,1119
	c-7.1,1.1-13.1-1.8-19.8-2.8c5.3-0.4,13.1-4.9,19.8-1.4V1119z M2362.5,1121.5c0.4,2.4-2.1,3.2-3.9,2.8c-2.8,0.4-7.1-0.4-5.6-3.9
	C2356.1,1120.8,2360,1119.4,2362.5,1121.5L2362.5,1121.5z M2523.9,1128.2c-11.7,0.4-29.3,0.4-41.3-5.3
	C2495.7,1122.5,2511.6,1122.5,2523.9,1128.2z M1751.1,1131.1l-31.8-2.8c9.2-4.2,20.5-2.8,31.8-1.4V1131.1z M2523.9,1137.8
	c-8.2,0.5-16.5-0.9-24-4.2C2508.7,1132.8,2516.5,1134.2,2523.9,1137.8z M1747.2,1138.8h-41.3
	C1719.7,1138.5,1735.9,1130.3,1747.2,1138.8z M2523.9,1149.8c-6.7,1.4-12.3-2.8-15.9-5.3C2513.3,1145.9,2519.3,1145.9,2523.9,1149.8
	z M1743.3,1162.8v2.8c-4.9,2.5-10.9,1.1-16.2,1.4C1730.6,1163.5,1738.3,1162.5,1743.3,1162.8L1743.3,1162.8z M1736.6,1180.5v2.4h-12
	C1726,1179.8,1732.7,1178,1736.6,1180.5z M1733.8,1195c-3.2,2.4-8.1,1.1-12,1.4C1725.6,1196.1,1729.9,1191.4,1733.8,1195z
	 M1937.8,386.7c-6.3-1-12.4-2.4-18.5-4.1c4-19.2,8-38.8,8.7-41.6c1.2-5.5,5.3-5.2,7.4-4.9c2.2,0.5,4.5,0.9,13.8,3.5
	c9.3,2.6,15.2,13.3,12.6,27.3C1959.1,381.1,1946.1,387.8,1937.8,386.7z M643.9,629.2c-4.7,4.2-9.6,8.2-14.8,11.8
	c-12.5-15.1-25.2-30.6-26.9-32.9c-3.5-4.4-0.7-7.5,0.9-8.8c1.8-1.5,3.5-2.9,11.4-8.4c7.9-5.6,19.9-3.5,29.2,7.3
	C652.9,609.1,650,623.4,643.9,629.2L643.9,629.2z M1277.1,390.6l11.8-48.4l23.5,42.9L1277.1,390.6z M2439.7,622.1
	c19.9-10.6,44.1-23.3,44.1-23.3l-16.5,46L2439.7,622.1z"/>
</svg>
