<?xml version="1.0" encoding="utf-8"?>
<!-- Generator: Adobe Illustrator 25.4.1, SVG Export Plug-In . SVG Version: 6.00 Build 0)  -->
<svg version="1.0" id="katman_1" xmlns="http://www.w3.org/2000/svg" xmlns:xlink="http://www.w3.org/1999/xlink" x="0px" y="0px"
	 viewBox="0 0 595.3 447.8" style="enable-background:new 0 0 595.3 447.8;" xml:space="preserve">
<style type="text/css">
	.st0{fill:#010202;}
</style>
<g transform="translate(0.000000,640.000000) scale(0.100000,-0.100000)">
	<path class="st0" d="M571.5,4426.6v-243.9h243.9h243.9v243.9v243.9H815.3H571.5V4426.6z"/>
	<path class="st0" d="M1110.6,4667.9c-1.5-1.1-2.6-111.1-2.6-243.9v-241.2h243.9h243.9v243.9v243.9h-241.2
		C1221.7,4670.5,1111.7,4669.4,1110.6,4667.9z"/>
	<path class="st0" d="M5024.8,4505.4c-39.4-8.6-81-37.9-98.7-70.2c-15.4-28.5-21.4-57.8-21.4-103.2V4292l-36.4-1.1l-36.8-1.1
		l-1.1-42l-1.1-42.4h37.9h37.5v-178.2v-178.2h52.5h52.5v178.2v178.2h76.9h76.9V4092c0.4-135.4,3-160.9,19.5-194.3
		c13.9-27,35.6-45,64.2-52.9c24-6.4,76.2-5.3,103.2,2.3l23.3,6.8v42v42l-21.4-7.1c-34.5-11.6-61.5-4.5-75,20.6
		c-6,10.5-6.8,25.9-7.9,133.2l-1.1,120.8h52.5h52.9v43.1v43.1h-52.5h-52.5v64.2v64.2l-10.1-2.6c-6-1.1-29.6-8.3-52.5-15.4
		l-42.4-13.1v-49.5v-49.5l-77.3,1.1l-77.3,1.1l1.1,43.9c1.5,48,6.4,61.9,26.6,76.9c13.9,10.1,46.1,12.8,68.3,5.3l17.3-6v44.6
		c0,37.9-0.8,44.6-6.4,46.5C5104.7,4507.7,5042,4508.8,5024.8,4505.4z"/>
	<path class="st0" d="M2689,4468.3c-19.5-12-28.9-28.5-28.9-51.4c0-36.8,27.8-60.4,67.9-57c34.1,3,55.2,24.8,55.2,57.4
		c0,22.5-7.5,35.6-28.1,49.9C2738.9,4478,2705.8,4478.8,2689,4468.3z"/>
	<path class="st0" d="M1903.3,4156.5v-307.6h50.6h50.6l-0.8,236.4c-0.8,130.2,0,236.4,1.1,236.4c1.1,0,44.6-106.5,97.2-236.4
		l95.3-236.7l37.5,1.1l37.5,1.1l92.7,233.7c51,128.7,93.8,234.9,94.9,236c1.1,1.5,2.3-104.3,2.3-234.5v-237.1h52.5h52.5v307.6v307.6
		H2495h-72.4l-85.9-210.8c-47.3-116.3-89.3-218.7-93-227.7l-7.5-16.9l-32.6,82.5c-18,45-58.5,147.4-90,227.7l-57.4,145.2h-76.5
		h-76.2V4156.5z"/>
	<path class="st0" d="M3017.6,4293.5c-76.2-17.3-135.8-71.7-161.3-148.2c-11.6-33.8-14.6-107.7-6-144.1
		c13.5-56.7,54.4-111.4,101.7-136.2c58.5-30.4,145.9-33.4,210.8-7.9l21.8,8.6l1.9,48c1.1,26.3,1.5,47.6,1.1,47.6
		c-0.4,0-11.6-6-25.1-13.1c-62.7-34.9-132.8-28.9-173.7,14.3c-30.8,32.3-42.8,78.8-34.9,133.6c7.5,52.1,37.5,92.7,81,108.8
		c40.9,15.4,99,8.3,136.6-17.3c7.1-4.5,13.9-8.6,15-8.6s1.5,22.5,0.8,50.3l-1.1,50.3l-25.1,8.3
		C3128.3,4298.7,3054.4,4301.7,3017.6,4293.5z"/>
	<path class="st0" d="M3464.1,4295c-36.8-5.3-65.7-26.6-84-62.3l-9.4-18l-0.4,38.6v38.6l-51.4-1.1l-51.8-1.1l-1.1-220.2l-0.8-220.6
		h52.1h52.5l1.1,136.2l1.1,135.8l10.5,22.5c16.5,34.9,35.6,52.5,64.2,57.8c19.1,3.4,50.3-0.8,66.8-9.4l10.5-5.6v50.6
		c0,36.4-1.5,51.4-4.5,53.6C3511.7,4295,3482.1,4297.6,3464.1,4295z"/>
	<path class="st0" d="M3697,4293.5c-81.4-18.4-139.2-75.4-159.8-157.6c-8.6-34.1-9-102.8-0.4-138.4
		c17.6-74.7,73.9-131.3,149.3-151.2c32.3-8.3,97.9-8.3,132.4,0.8c67.2,16.9,121.6,64.2,144.8,124.9c13.5,37.1,19.5,77.3,16.9,118.9
		c-3.8,67.9-21.8,111.8-60,150.4c-24,23.6-41.3,34.5-77.3,47.3C3815.2,4298.7,3731.9,4301.3,3697,4293.5z M3807.3,4203.8
		c25.1-11.3,47.6-37.5,56.7-64.9c5.6-17.3,7.1-32.6,7.1-72.4c-0.4-43.9-1.5-53.6-9-72.4c-10.9-27.8-26.6-45.4-50.6-57.8
		c-16.5-8.6-24-9.8-52.9-9.8c-37.1,0-57.4,6.4-79.9,25.1c-35.3,30.4-51.4,102.8-36.4,166.6c10.5,43.5,30,69.8,63.8,85.5
		C3732.7,4216.5,3780.7,4216.5,3807.3,4203.8z"/>
	<path class="st0" d="M4140.5,4293.5c-44.3-12.4-83.7-43.5-99-78c-12.4-28.1-12.4-79.2,0.4-105.8c15.4-31.5,32.6-45,99-76.9
		c33.4-16.1,63.8-33,67.5-37.1c9.8-10.9,12.4-39,4.5-51c-21.4-32.6-100.9-29.3-160.6,7.1l-21.8,13.1v-50.6v-50.3l13.5-5.6
		c41.6-17.3,121.9-22.9,165.8-11.6c48.4,12.4,84,38.6,102,75.4c7.5,15.8,9,24.4,9,54.4c0,29.3-1.1,38.3-7.9,51
		c-18.8,35.6-42.8,53.6-110.3,84c-49.5,21.8-63,33.4-66,55.9c-7.1,51.4,70.5,66.4,146.3,28.1l18-9.4l-1.1,48l-1.1,47.6l-22.5,7.1
		C4245.5,4298.7,4167.9,4301.3,4140.5,4293.5z"/>
	<path class="st0" d="M4531.4,4292c-52.9-13.1-99-45-126.1-87c-39-61.2-47.6-160.9-20.3-234.9c33.8-90.4,129.4-142.2,237.9-128.7
		c61.9,7.5,95.7,22.9,133.6,61.5c45.8,46.1,63.4,93.8,63.4,171.1c0,75.4-17.6,124.9-58.9,166.6c-27.8,27.4-51.8,40.9-91.2,51
		C4632.7,4301.3,4568.9,4301.3,4531.4,4292z M4651.9,4202.7c21-11.3,40.5-33.8,50.6-59.7c7.1-18.8,8.6-29.3,8.6-70.9
		c0.4-76.9-15.4-112.9-59.3-135.1c-19.9-9.8-26.3-10.9-54.4-10.9c-40.5,0.4-65.7,10.1-86.7,34.1c-24.4,28.1-31.5,51.4-31.9,106.2
		c0,75,16.9,111.8,62.7,135.1c22.5,11.3,25.1,11.6,59.3,10.5C4627.8,4210.9,4640.2,4208.7,4651.9,4202.7z"/>
	<path class="st0" d="M2668.7,4070.2v-221.4h52.5h52.5l-0.8,220.6l-1.1,220.2l-51.4,1.1l-51.8,1.1V4070.2z"/>
	<path class="st0" d="M571.5,3886.4v-243.9h243.9h243.9v243.9v243.9H815.3H571.5V3886.4z"/>
	<path class="st0" d="M1108.7,3887.5l1.1-243.1l243.1-1.1l242.7-0.8v243.9v243.9h-243.9H1108L1108.7,3887.5z"/>
</g>
</svg>
