<?xml version="1.0" encoding="utf-8"?>
<!-- Generator: Adobe Illustrator 26.0.3, SVG Export Plug-In . SVG Version: 6.00 Build 0)  -->
<svg version="1.0" id="katman_1" xmlns="http://www.w3.org/2000/svg" xmlns:xlink="http://www.w3.org/1999/xlink" x="0px" y="0px"
	 viewBox="0 0 600 450" style="enable-background:new 0 0 600 450;" xml:space="preserve">
<style type="text/css">
	.st0{fill-rule:evenodd;clip-rule:evenodd;fill:#664293;}
</style>
<path class="st0" d="M260.5,253.7l-23.6-27.4v27.4h-16.5v-88.8h16.5v45.4l19.2-23.2h22.5l-27.5,31.3l31.9,35.4H260.5z M353.8,231.7
	c0,14.9,11.9,23.8,23.8,23.8c4.5,0,10.6-1.4,15.7-4.2L382.7,238c-1.4,0.9-3.3,1.6-5.4,1.6c-2.6,0-7.6-1.9-7.6-8.2v-28.5h13.7V187
	h-13.7l0-16.6h-16l0,16.6h-8.5v15.8h8.5V231.7z M130.5,222.6l24.8,31.2h-21l-20.5-25.8h-11.8v25.8H85.2v-83.3h27.7
	c16.8,0,30.4,12.9,30.4,28.7C143.3,208.8,138.2,217.3,130.5,222.6z M472.8,189.5c0,0,5.7-4.1,13.6-4.1c17,0,28.7,13.1,28.7,29.2
	v39.2h-16v-39.2c0-7.3-5.3-13.6-13.1-13.6c-7.8,0-13.1,6.2-13.1,13.6v39.2h-16V187h16V189.5z M180.2,255.4
	c-18.2,0-32.1-15.7-32.1-35c0-19.3,13.8-35,32.1-35c5.9,0,10.3,1.7,15.1,4.6v-3h16v66.7h-16v-3C190.4,253.7,186.1,255.4,180.2,255.4
	z M171.2,266.2h260.1l-239.4,19.6L171.2,266.2z M195.5,220.4c0,10.6-6.3,18.9-15.3,18.9c-9,0-15.6-8.4-15.6-18.9
	c0-10.6,6.6-18.9,15.6-18.9C189.2,201.5,195.5,209.8,195.5,220.4z M309.9,255.4c7.9,0,13.6-4.1,13.6-4.1v2.5h16V187h-16v39.2
	c0,7.3-5.3,13.6-13.1,13.6c-7.8,0-13.1-6.2-13.1-13.6V187h-16v39.2C281.3,242.3,292.9,255.4,309.9,255.4z M112.9,186.2
	c7.5,0,13.7,5.8,13.7,12.9c0,7.1-6.2,12.9-13.7,12.9h-10.9v-25.8H112.9z M450.4,225.1l-46.1,0c2.1,15.2,20.3,23,31.3,7.7l14.1,7.7
	c-9.1,12.2-19.9,14.9-28.4,14.9c-16.7,0-33.4-14.4-33.4-35c0-19.6,13.3-35,31.8-35C438,185.4,454.4,201.1,450.4,225.1z M433.7,211.8
	c-3.1-16.5-25.5-15.6-28.8,0H433.7z"/>
</svg>
