<?xml version="1.0" encoding="utf-8"?>
<!-- Generator: Adobe Illustrator 26.5.0, SVG Export Plug-In . SVG Version: 6.00 Build 0)  -->
<svg version="1.0" id="katman_1" xmlns="http://www.w3.org/2000/svg" xmlns:xlink="http://www.w3.org/1999/xlink" x="0px" y="0px"
	 viewBox="0 0 1190.55 841.89" style="enable-background:new 0 0 1190.55 841.89;" xml:space="preserve">
<style type="text/css">
	.st0{fill-rule:evenodd;clip-rule:evenodd;fill:#25292C;}
	.st1{fill:#FFFFFF;stroke:#25292C;stroke-width:9.5809;}
	.st2{fill-rule:evenodd;clip-rule:evenodd;fill:#FFFFFF;}
</style>
<path class="st0" d="M841.17,297.75l0.43-75.01h-41.43v82.85c0,27.91,29.22,50.59,64.98,50.59c35.76,0,64.98-22.68,64.98-50.59
	v-82.85l-40.99,0.44v74.57c0,12.65-10.47,22.68-23.55,22.68C851.63,320.42,841.17,310.39,841.17,297.75z M1064,350.08h-41.43V131.6
	H1064V350.08z M993.79,350.08h-41.43V131.6h41.43V350.08z M316.57,270.27c0-13.95,11.34-25.29,25.29-25.29
	c13.95,0,25.29,11.34,25.29,25.29H316.57z M408.14,293.82c0.43-2.62,0.43-5.67,0.43-8.72c0.44-44.92-29.22-69.77-67.16-69.77
	c-37.94,0-68.46,30.96-68.46,69.34S303.48,354,341.42,354c28.78,0,51.46-13.08,63.23-33.58l-33.58-15.7
	c-4.36,9.16-14.39,15.7-26.17,15.7c-15.7,0-28.34-11.77-28.34-25.73c0-0.87-0.44-0.44-0.44-1.31L408.14,293.82z M471.81,284.66
	c0-18.32,13.52-33.14,30.52-33.14s30.52,14.83,30.52,33.14s-13.52,33.14-30.52,33.14C485.33,318.24,471.81,302.98,471.81,284.66z
	 M532.42,335.69c-10.9,11.34-25.73,17.88-41.86,17.88c-34.45,0-61.92-30.52-61.92-68.03c0-37.5,27.91-68.03,61.92-68.03
	c16.14,0,30.53,6.54,41.86,17.44V132.04h41.43v217.6h-41.43V335.69z M714.27,313.88h-39.68V179.13h27.91
	c12.21,0,22.24,10.03,22.24,22.24c0,12.21-10.03,22.24-22.24,22.24H688.1v37.5h26.6c14.83,0,25.73,11.77,25.73,26.6
	C739.56,302.54,730.4,313.01,714.27,313.88z M752.64,159.07c9.59,10.03,14.83,23.11,14.83,37.5c0,15.7-6.98,29.65-18.31,40.56
	c27.91,13.08,36.19,30.09,36.19,53.64c0,32.71-28.35,58.87-63.23,59.74l-91.58,0.44V143.38l71.08,0.44
	C725.17,143.81,742.61,148.17,752.64,159.07z M192.72,177.83h-22.68v172.25H126V142.07h72.82c0.87,0,2.18,0,3.05,0
	c34.45,0,62.79,27.47,62.79,61.49c0,28.78-20.5,53.2-47.53,59.74l61.05,86.78h-52.33l-44.48-68.03V231.9h10.47
	c16.13,0,29.65-12.21,29.65-27.04C221.5,190.04,208.85,177.83,192.72,177.83z"/>
<path class="st1" d="M758.33,547.18c0,86.95-70.48,157.43-157.43,157.43s-157.43-70.48-157.43-157.43s70.48-157.43,157.43-157.43
	S758.33,460.23,758.33,547.18z"/>
<path class="st2" d="M470.49,450.8c2.62,1.31,5.23,2.62,7.85,4.36c12.21,8.29,20.06,15.26,38.81,30.96
	c5.67,5.23,11.77,14.39,16.57,19.62c10.47,12.65,17.01,21.37,18.75,31.83c3.05,20.93,5.67,32.71,13.95,54.07
	c0.87,2.18,4.36,5.23,6.54,7.41c4.8,6.1,6.98,16.57,16.13,21.8c4.8,2.62,5.67,3.49,7.41,4.8c2.62,2.18-1.74,9.59-14.39,7.85
	c6.54,3.49,5.67,10.9-3.92,11.34c-19.19,0.43-30.53-10.03-33.14-12.65c-0.87-0.87-4.8,3.49-11.34,6.54
	c-6.98,3.49-16.13,0-23.11,1.31c-6.54,1.31-15.7,5.67-22.67,5.67c-12.65,0.43-14.39-8.29-14.39-16.13c0-1.31,0-3.05,0-3.49
	c-1.31,4.8-5.67,12.65-5.67,12.65c-1.74,3.92-4.36,8.29-8.72,10.03l-13.08,1.74c-10.46,4.36-20.93,7.85-31.83,11.77
	c-6.54,1.31-13.52,0-17.88-3.92c-3.49-3.05-6.1-6.98-7.85-10.47c-2.18-0.87-5.23,0-7.41-0.87c-2.18-0.44-3.49-2.18-4.8-3.49
	l-9.16-15.26c-0.87-2.18-0.87-5.23,0-6.98c1.75-3.49,5.67-5.23,9.16-5.23c6.98-0.44,14.39-2.62,20.93,0
	c3.05-3.49,7.41-3.05,11.77-3.92c-1.74-2.18-4.36-3.93-6.54-6.11c-12.21,3.05-25.73,0.87-37.5-1.31
	c-10.9-2.62-20.06,3.92-30.96,2.18l-3.49,6.98c-4.8,5.67-5.23,14.83-13.08,18.31c-5.23,1.31-9.59,5.23-14.39,7.41
	c-8.29,4.36-20.06,2.62-28.78,0.87c-3.49-0.44-6.54,0-9.59,1.31c-3.05,2.18-6.11,5.67-9.59,7.85c-5.23,2.18-10.03,6.54-16.13,6.98
	c-3.49,0-6.54-2.18-10.03-1.31c-4.36,4.8-6.1,12.21-13.08,13.95c-6.98,1.74-15.26,0.44-21.8-1.31c-2.18,0.87-3.49,2.62-6.11,2.18
	c-4.8-1.31-9.16-2.62-13.52-4.8c-1.74-1.74-2.18-3.49-2.62-5.67c0-3.05,2.18-5.67,3.49-7.85c0.44-3.05,0.44-6.98,1.74-10.03
	c2.18-4.8,6.98-7.41,11.34-9.59c0.44-3.49,2.62-6.54,5.67-7.85c5.67-3.05,11.34-9.59,18.32-5.67l7.41,6.54
	c6.54-3.05,4.8-9.59,8.29-14.83c1.74-3.49,3.92-7.85,8.29-7.85c3.05-0.44,6.11,0.43,9.16,0c4.36-1.31,8.72-3.05,11.77-6.54
	l-0.44-2.62c-4.36-7.85-5.23-17.44-5.67-27.04c-7.41,0.87-15.7,2.18-23.11,0.44c-11.77-1.75-23.11-10.9-27.47-22.24
	c-5.23-11.34-3.05-27.04,5.23-36.63c6.11-7.41,13.52-14.39,20.93-20.06c-2.62-0.87-5.67-0.43-7.85-1.31
	c-10.9-1.75-21.8-11.34-23.98-22.24c-1.74-6.98,0-13.95,3.49-20.06c1.31-1.31,2.62-2.62,4.36-1.75c5.23,2.18,6.98,4.8,12.21,7.41
	l3.05,1.74c13.95,4.8,32.27,4.8,37.5,21.37c3.49,13.08-4.8,23.55-14.83,30.96c-7.41,5.23-14.83,12.21-18.75,20.5
	c-1.74,6.1-0.87,11.77,4.36,15.7c5.23,4.8,13.95,4.8,20.5,2.62c11.77-4.8,22.68-12.65,33.14-20.93
	c10.03-7.41,22.24-10.47,34.89-10.9c5.67-1.31,10.9-3.92,15.7-7.41c7.85-7.41,16.13-13.95,26.6-16.13
	c4.36-0.87,9.16-1.31,13.95-1.75c3.49-1.74,6.1-6.1,9.16-8.29c13.52-11.77,32.27-11.77,47.1-21.37
	c8.29-6.54,17.44-10.47,28.78-10.03c5.23,0.44,9.59,1.31,13.95,3.05L470.49,450.8z M484.45,593.4c-9.16,0.43-14.83,2.62-21.37,3.49
	c0.43,6.1,3.49,10.9,8.72,17.44C473.55,604.3,481.83,600.82,484.45,593.4z"/>
<path class="st2" d="M719.91,595.15c4.36,6.54,6.98,12.65,10.46,19.19c3.93-7.41,7.41-13.52,10.47-18.31
	C740.84,596.45,729.94,597.76,719.91,595.15z M728.63,626.54c-0.44,1.31-1.31,1.74-3.05,1.74c1.31,6.1-2.62,16.57-13.52,17.44
	c-6.98,0.43-19.19-6.54-25.29-7.41c-6.98-0.44-20.06,4.8-27.91-6.1c-10.03,12.21-21.8,15.26-31.83,15.26
	c-5.67,0-12.21-3.49-3.05-10.9c-19.19,6.54-19.19-6.98-16.13-9.16c2.18-1.75,4.8-3.05,11.77-10.03
	c27.04-28.34,16.57-76.75,46.22-109.02c11.34-12.65,20.5-19.62,43.61-36.19c7.85-5.67,15.7-13.08,23.11-19.19l0.44,0.43v-0.43
	c4.8-3.05,8.72-6.98,13.95-7.85c10.47-1.31,20.06,2.18,28.35,7.41c3.92,3.05,7.41,6.54,10.9,10.47c2.62,2.62,6.54,2.62,9.59,3.92
	c9.59,1.74,18.31,5.23,26.16,10.47c5.67,3.49,10.03,9.16,16.57,10.03c7.85,1.31,15.26,3.92,22.24,7.85
	c8.28,5.67,16.13,12.21,25.73,13.96c20.06,2.18,36.63,13.52,52.77,24.42c9.16,5.23,20.06,11.77,31.4,7.85
	c3.05-1.31,5.67-4.36,6.98-7.41c0.87-7.41-3.49-13.08-8.29-18.75c-9.59-11.34-26.17-20.93-24.42-37.5
	c3.05-12.21,16.13-19.19,27.04-22.68c6.11-2.18,13.08-1.31,17.88-6.54c2.62-1.75,3.92-7.41,7.85-5.23
	c3.49,2.18,3.93,6.54,4.36,10.03c1.74,11.77-0.87,23.55-11.77,30.52c-5.23,3.05-10.47,4.8-16.57,5.67
	c8.72,7.41,17.44,16.13,22.24,25.73c3.05,5.67,4.8,10.9,5.23,17.88c-0.44,12.65-7.85,23.55-18.75,30.09
	c-6.54,3.49-13.52,4.8-20.93,4.8c-3.05,0-5.67-0.87-8.29-0.87c1.31,6.1,1.31,13.96,0,20.5c-0.44,3.49-2.62,6.98-2.62,11.34
	c1.74,2.18,3.92,2.18,6.54,2.18c5.67,0,12.21-0.43,14.83,5.67c2.62,5.23,3.93,11.77,6.11,17.01c0.87,0.87,1.31,3.05,2.62,2.62
	c3.92-3.49,7.41-7.85,13.08-6.54c5.23,3.49,10.03,6.98,15.26,10.9c1.31,1.31,1.75,3.05,2.18,5.23c4.36,1.74,9.59,4.8,10.9,9.59
	c0.87,3.05,0.43,6.54,1.31,9.59c1.31,3.49,4.8,7.41,2.18,11.77l-1.74,1.31l-16.13,4.8c-1.31,0-2.62-0.87-3.49-2.18
	c-8.29-0.43-18.31,2.18-24.86-3.92c-3.05-2.62-5.23-5.67-7.41-8.72c-4.8,2.62-12.21,4.36-17.44,0.87
	c-10.46-8.29-20.93-16.14-35.32-15.7c-6.1,1.31-13.96,3.05-20.06,0.44c-5.67-4.36-12.64-6.54-17.44-12.21
	c-6.54-6.98-6.98-15.26-9.16-23.98c-9.16,2.18-19.19,0.87-28.34,0.43c-7.41-0.43-14.83,0.87-21.8,2.18
	c-8.72,1.75-18.31,2.62-27.91,2.18l-4.36,3.49c2.18,0.43,4.36,0.43,6.1,1.74l1.75,1.74c7.41,0.87,16.13-0.43,23.11,1.31
	c1.74,0.44,3.49,2.18,4.36,3.92c0.87,2.18,0.87,4.8-0.44,6.54c-3.92,4.8-5.67,10.9-10.9,15.26c-1.31,1.74-5.23-0.44-5.67,2.62
	c-1.74,7.41-8.72,13.96-16.13,15.26c-3.05,0.43-6.1,0-8.72-0.87c-8.72-3.05-17.88-5.67-26.6-7.85c-3.05-0.87-5.23-3.92-7.85-5.67
	c-3.92,0-9.16,1.31-11.77-2.18c-1.31-0.87-2.62-3.49-3.05-5.23C732.55,639.19,729.94,632.65,728.63,626.54z"/>
<path class="st0" d="M466.15,503.57c2.62,6.54,2.62,14.83,0.87,21.37c-0.44,0.44-0.87,0.44-1.31,0c-1.31-6.1-2.62-11.77-4.8-17.44
	c-1.31-3.49-5.67-6.1-3.49-10.03c0.87-0.87,2.62-0.87,3.49-0.43C463.54,498.77,464.85,501.39,466.15,503.57z M533.31,562.44
	c4.8,5.23,7.85,11.34,6.54,18.75c-0.87,1.31-0.44,3.49-2.62,3.92c-0.87,0.43-1.75-0.44-1.75-1.31c-0.43-3.92-0.43-7.85-2.62-10.9
	c-2.62-2.62-5.23-7.41-9.59-7.41c-3.05,0.87-5.23,4.36-6.98,6.54c0,0.43-0.44,0.43-0.87,0c-1.75-3.93,1.74-7.41,3.05-10.9
	c2.62-2.62,1.74-9.59,7.41-7.41C529.82,555.9,530.69,559.82,533.31,562.44z M524.59,612.15c0.43,2.62,0.43,6.1-2.18,7.85
	c-2.62,0.87-5.67,1.31-8.72,0.87c-0.87-0.43-1.74-0.87-1.31-1.74c1.31-3.92,5.23-7.85,9.16-8.72
	C522.41,610.84,524.15,610.41,524.59,612.15z M218.46,459.09c10.03,2.62,20.93,2.62,28.35,10.47c3.92,5.23,4.36,13.52,1.31,19.19
	c-5.67,10.03-17.44,15.26-24.86,23.98c-6.98,6.1-9.59,15.26-7.41,23.98c2.62,7.85,10.47,13.52,18.32,13.95
	c12.21,0.44,21.8-6.1,31.83-11.77c10.03-6.98,19.19-16.13,30.96-19.19c7.41-2.62,16.13-1.31,23.11-4.36
	c8.29-1.75,14.39-8.29,20.5-13.96c6.98-5.67,15.26-9.16,24.86-8.72c8.28,1.31,13.08-6.54,18.75-11.34
	c9.59-8.72,22.24-9.59,33.58-14.83c7.85-2.62,14.39-8.29,21.8-12.21c6.98-3.05,17.01-3.49,23.98-0.87c4.8,2.18,9.59,4.36,13.52,7.41
	l34.01,28.34c0.44,1.31,1.74,1.74,2.62,2.62c9.59,11.77,20.06,23.11,27.47,35.76c2.62,4.36,3.49,9.16,4.8,13.95
	c1.74,19.19,6.98,36.19,13.08,52.77c1.75,2.62,5.23,4.36,6.98,6.98c5.23,7.41,8.72,17.01,17.44,21.8l5.23,2.62
	c0.43,0.44,0.43,1.31,0,1.75l-0.87,0.87c-10.47,1.74-18.31-4.8-23.55-12.21c-3.49-6.54-7.85-13.96-15.26-16.57
	c-0.44,0-0.87,0.44-0.87,0.44c0.87,2.18,3.49,4.36,4.36,6.54c3.05,4.8,5.67,9.59,6.98,14.39c1.74,5.23,7.41,9.16,12.21,12.21
	l6.98,3.49c0.87,0.43,1.31,1.74,0.44,2.62l-0.87,0.44c-11.34,0.44-21.37-3.49-29.22-11.77c-1.74-2.18-4.36-3.92-6.98-3.92
	c-5.23,4.36-10.03,8.72-17.01,9.16c-6.98-1.31-14.83-1.31-20.93,1.31c-5.67,2.18-11.34,4.36-17.88,4.8c-3.05,0-6.54-1.31-7.41-4.36
	c0-3.49-2.62-7.85-0.43-11.77l4.36-6.54c0-0.87-0.44-1.74-1.31-1.74c-1.75-0.43-4.8,2.62-5.23-0.43c0.43-6.54,6.54-10.47,10.9-14.83
	c0.87-5.23,3.05-9.59,6.54-13.52c0-0.44-0.44-1.31-1.31-1.31c-5.23,0.87-10.9,2.18-16.57,2.18c-4.8,2.62-10.47,4.36-15.7,2.62
	c-1.31-0.87-0.87-2.18-0.44-3.05c5.67-7.85,7.85-17.88,6.54-27.91c-0.44-0.44-0.44-1.31-1.31-1.31c-0.87,0-0.87,0.87-1.31,1.31
	c-1.31,9.16-4.36,16.57-9.16,23.98c-3.92,3.93-9.59,3.49-14.39,5.23c-1.31,0.44-2.62,1.75-2.62,3.05c0,3.05,2.18,5.67,3.49,8.29
	l10.9,20.06c0.43,5.67-2.18,10.9-3.49,15.7c0.44,0.87,1.31,0.43,2.18,0c3.92-3.49,6.54-7.85,7.85-12.65
	c0.44-2.18-0.43-4.8-1.31-6.54l-11.34-22.24c0.87-1.31,2.62-1.31,3.92-1.74c2.62,0,4.8,1.31,7.41,2.18
	c2.62,6.98,5.23,13.52,10.03,19.62c0.87,3.49,2.18,8.72-0.44,11.77c-2.62,4.8-5.23,9.16-8.29,13.95c-3.05,3.05-7.41,2.62-11.34,3.05
	h-3.49c-10.03,5.23-20.5,8.72-31.4,12.21c-4.8,2.18-10.03,0.43-13.95-2.62c-3.92-3.05-5.23-7.41-7.85-10.9
	c-3.05-3.49-7.41-0.44-10.9-2.62c-3.05-4.8-5.67-9.16-8.29-13.95c0-1.31,0-2.62,1.31-3.49c3.92-1.31,7.85-1.31,12.21-1.74
	c3.92-0.44,7.85,0.43,10.47,3.05c5.23,6.1,6.98,13.95,14.83,17.88c5.67,0.43,10.9-1.31,16.14-3.93c3.05-1.74,6.54-4.36,6.54-7.85
	c-0.43-7.41-5.67-13.08-11.34-17.44c-6.54-3.49-13.08-7.85-17.88-13.96c-2.18-3.05-3.05-6.98-4.36-10.46
	c-0.44-0.87-1.74-0.87-2.62-0.44c-2.62,2.18-0.43,5.67-0.43,8.29c0.43,1.74,1.31,3.49,0.43,5.23c-3.49,3.05-8.72,1.31-13.52,1.74
	c-9.16-0.43-17.88-4.36-27.47-3.49c-9.16,0.43-21.8,6.54-28.78-2.62c-3.49-8.72-2.62-19.19-0.87-27.91c0-0.87-0.87-1.74-1.74-1.74
	c-0.87-0.44-1.74,0-2.18,0.87c-2.18,8.72-3.05,18.31-4.8,27.47c-3.49,7.85-9.16,16.57-17.44,20.5c-7.41,3.92-15.7,5.23-23.98,5.67
	c-15.7,0.44-30.96,3.49-40.56,17.01c-0.87,1.31-2.18,2.18-1.74,3.93c0.44,0.43,1.74,0.87,2.18,0.43
	c10.9-12.21,24.86-17.01,40.56-16.57c15.26,0,30.09-2.62,39.68-15.7c2.62-3.05,3.92-6.1,6.1-9.16c1.74,0,3.05,2.18,4.36,3.05
	c0.43,4.36-3.49,7.41-4.8,11.34c-1.74,4.36-3.92,9.16-8.29,11.34c-5.23,1.31-9.16,4.8-13.52,7.41c-4.8,2.18-10.47,3.05-16.14,1.75
	c-6.98-1.31-16.13-3.05-22.68,0c-3.49,2.18-6.11,6.1-9.59,7.85c-4.8,1.74-8.72,6.1-14.39,5.67c-3.92-0.87-8.29-3.49-11.77,0
	c-3.92,3.93-5.23,10.47-10.47,12.65c-6.1,3.49-12.65,0-19.19-0.43c0.87-6.1,1.74-12.21,5.67-16.57c2.62-0.44,4.8-0.87,6.54-2.62
	c2.62-2.18,4.36-5.23,6.11-7.85c5.23-3.49,11.77-6.1,15.26-11.77c2.62-5.67,2.62-10.47,6.98-15.26l2.18-0.87l11.34-0.87
	c4.8-2.18,8.72-4.36,13.08-7.41c1.31-1.31,1.74-3.49,1.31-5.23c-2.18-5.67-3.92-9.16-5.23-14.83c-1.31-6.11-0.44-11.77-1.31-18.75
	c-0.44-0.44-0.87-1.75-1.74-1.75c-7.41,1.75-14.83,3.93-23.11,2.62c-11.34-1.31-22.68-8.72-27.04-20.06
	c-3.92-9.59-3.05-23.55,4.36-31.4c6.98-8.29,15.26-14.83,23.11-21.37c1.31-0.87,1.31-2.62,1.74-3.92c0-1.75-1.74-3.05-3.05-3.49
	c-5.23-1.31-10.9,0.44-16.13-1.74c-8.72-3.05-15.7-11.34-16.57-20.5c-0.44-3.93,0.44-7.41,2.62-10.9
	C207.56,452.55,212.36,457.34,218.46,459.09z M193.61,646.6v1.31c-2.18,4.8-3.49,10.9-5.23,16.57c-3.92-0.44-6.98-1.75-10.03-2.62
	c-0.87-0.87,0-1.74,0-2.62c3.49-3.49,2.62-7.41,3.49-12.21c0.44-2.62,3.05-4.8,5.23-6.1C190.12,641.8,191.86,644.42,193.61,646.6z
	 M212.36,629.16c-2.18,4.36-5.23,9.16-9.59,11.77c-1.74,0.43-3.92,0.43-5.23-0.44c-0.87-0.87-2.62-1.74-2.62-3.49
	c0.44-1.74-0.44-3.92,1.31-4.8c3.49-2.18,6.98-4.36,10.03-6.98c0.87-0.44,2.18-0.87,3.05,0
	C210.18,626.11,211.92,627.41,212.36,629.16z M422.11,627.41c0.44,1.74,3.05,3.92,1.31,5.67c-3.49,2.62-6.98,4.36-11.34,3.49
	c-3.49-2.62-3.05-7.41-6.1-10.47c-0.87-2.62-4.8-2.62-3.92-5.23l1.31-0.87c4.8,0,9.16,0,13.95-0.87
	C421.67,619.13,420.37,624.36,422.11,627.41z"/>
<path class="st0" d="M686.75,558.95c2.62,3.49,4.36,6.98,6.1,10.9c0.43,0.87,0,1.74-0.44,2.62c-0.43,0.87-1.31,1.75-2.62,0.87
	c-3.05-0.87-2.62-5.67-6.1-5.23c-2.62,0-4.36,2.18-6.54,3.49c-3.92,3.49-8.72,6.98-9.59,11.77c-0.87,1.74-0.43,4.36-2.18,5.67
	c-0.87,0.44-2.18-0.43-2.18-1.31c-0.44-6.54,1.74-13.08,6.54-17.44c4.8-3.92,7.85-9.16,11.77-13.52
	C684.13,555.9,685.88,557.21,686.75,558.95z M688.06,614.77c0.87,1.74,2.62,3.92,1.31,6.1c-1.74,1.31-4.8,0.44-6.98,0.44
	c-2.62-1.31-3.05-4.36-3.49-7.41c0-0.87,0-1.31,0.87-2.18C683.26,611.72,686.31,612.15,688.06,614.77z M751.29,486.56
	c1.31,1.74,0,3.49-0.87,4.8c-6.1,5.67-13.08,11.34-17.44,18.31c-1.75,2.18-2.62,4.8-3.92,6.98c0,0.43-0.44,0.43-0.87,0.43
	c-1.31-3.49,0.44-6.98,1.31-10.47c3.05-7.85,9.59-15.7,16.57-20.93C747.36,484.82,750.42,484.38,751.29,486.56z M775.27,459.53
	c4.36,3.05,6.54,9.16,11.77,10.47c9.16,2.18,18.31,4.36,26.6,8.29c6.1,3.05,11.34,7.41,16.57,11.77c5.23,2.62,11.34,2.62,16.57,4.36
	c7.85,2.18,14.39,7.85,21.37,12.65c9.16,7.41,22.24,6.1,32.71,10.9c16.57,5.23,30.09,18.32,45.79,26.17
	c7.85,4.36,20.06,6.1,28.34,1.31c5.23-3.93,8.72-8.72,7.85-15.7c-3.05-17.01-21.8-26.17-30.96-40.12
	c-1.74-3.49-3.05-7.85-2.18-11.77c3.05-8.29,12.21-12.64,19.62-16.13c6.11-3.05,13.52-2.18,19.19-5.67
	c2.18-1.31,3.49-3.05,5.23-4.36c1.31,0,1.31,1.31,1.74,2.18c1.74,10.03,0,20.5-8.72,26.16c-3.49,2.18-7.41,3.49-11.34,4.36
	c-3.49,1.31-10.03-1.31-9.59,4.36c0.87,2.62,3.49,4.8,5.67,6.54c11.77,9.59,22.24,22.24,23.98,37.07
	c0.44,11.77-7.41,21.8-17.88,26.6c-7.41,3.05-17.01,4.36-24.85,2.18c-2.18-0.43-5.67-2.18-6.98,0.44c-0.43,3.05,1.75,5.67,1.75,8.72
	c0.87,5.67,0.87,12.65-0.87,17.88c-0.87,4.36-5.23,9.16-1.31,13.52c3.92,5.67,11.34,3.92,17.44,5.23c3.49,0.43,4.36,4.36,5.67,6.98
	c1.31,3.05,1.31,6.98,2.62,9.59c0,6.1,6.98,8.72,10.47,12.64c4.36,4.8,7.85,12.65,15.26,12.21c2.18,5.23,3.92,9.59,4.8,15.7
	l-0.87,0.87c-6.1,0-13.52,1.75-18.31-2.62c-5.23-3.49-6.54-12.65-13.96-10.03c-3.05,2.62-7.85,3.49-11.77,1.74
	c-3.49-1.31-6.1-4.8-9.59-6.54c-10.03-7.41-23.11-10.9-36.19-8.29c-7.41,2.18-13.52-3.05-19.62-6.98
	c-7.85-3.49-10.03-11.77-11.77-19.19l-1.31-8.72c0-0.87,0.87-1.74,1.75-1.74h1.31c4.36,10.47,13.08,21.8,24.42,25.73
	c10.46,4.36,20.06-1.31,31.4,0.87c10.47,1.31,18.75,7.85,27.04,14.39c0.87,0,1.31-0.43,1.74-1.31v-0.43
	c-9.59-12.21-22.68-18.31-38.38-17.44c-12.64,2.62-25.73-1.75-33.14-12.65c-3.93-6.1-6.98-12.65-8.29-20.06
	c-1.31-8.29-3.05-17.44-5.67-25.29c-0.87-0.43-1.74-1.31-2.62-0.87l-0.87,1.31c1.31,7.85,3.49,17.88,0.87,26.16
	c-2.18,6.54-8.72,9.16-15.26,9.59c-6.54,0.44-12.21-0.87-18.75-0.87c-15.26-0.44-28.35,5.67-44.04,3.92
	c1.31-3.49,3.92-7.41,2.62-11.77c-0.43-0.87-1.74-0.87-2.62-0.87c-3.05,1.75-2.62,5.67-4.36,7.85c-3.49,5.67-9.59,10.47-15.7,11.77
	c-4.36,3.49-8.72,8.29-12.21,12.21c-1.31,1.31-1.31,3.49-0.87,5.67c3.05,7.41,11.77,8.29,18.75,10.47c3.49,0.43,6.54-0.87,7.85-3.93
	c3.05-4.8,3.49-12.21,10.03-13.08h14.83c1.31,0.44,2.18,1.31,2.62,2.62l-0.43,2.18c-3.05,3.92-4.8,9.16-8.72,11.77
	c-2.18,0.87-5.67,0-6.98,2.18c-0.87,5.23-2.18,10.47-6.98,13.08c-3.49,3.49-9.16,1.75-13.52,0.44c-7.85-3.05-16.13-4.36-23.98-6.98
	c-3.49-0.87-4.8-5.23-8.29-6.1c-3.49-0.87-7.41,1.74-10.03-1.31c-1.74-3.49-2.62-6.54-3.49-10.47c-1.31-2.62-2.18-5.23-2.62-8.29
	c-0.43-2.62,0-4.36,0.87-6.54l10.9-19.62c0.87-1.31,1.74-2.62,3.05-3.05c2.62,0.43,5.23,1.74,7.85,3.05l-0.43,1.31l-10.9,17.01
	c-2.62,5.67,0,11.77,2.62,16.57c0.43,0.43,0.87,1.31,1.31,0.87c-0.43-3.49-0.87-6.98,0-10.47c0.87-3.05,2.62-6.54,4.8-9.16
	l8.72-13.08c0.87-2.18,0.87-5.67-0.87-7.41c-3.92-3.92-9.16-4.8-12.65-10.03c-7.41-9.59-7.85-20.93-8.72-33.14
	c0-0.87-0.87-2.18-2.18-2.62c-0.87-0.43-1.74,0.87-2.18,1.31c-2.18,7.85-0.87,17.44,1.31,24.42c1.31,5.67,3.92,10.9,6.1,16.14
	c0.43,0.87-0.44,2.18-1.31,2.18c-5.67,0.44-11.77,0-17.44-0.87c-7.41-1.31-13.08-6.98-19.19-11.34c-0.87-0.43-1.31,0.44-1.74,0.87
	c1.74,8.28,10.9,13.08,13.95,20.93c1.74,6.1,7.85,10.9,9.16,17.88c0,0.87-0.87,2.18-1.74,2.62c-2.18,0.44-4.36-0.87-6.1,0.44
	c-0.44,3.49,2.18,7.41,0.43,10.9c-2.18,3.05-4.8,6.98-8.72,6.98c-7.41-2.62-14.83-5.67-22.68-7.85c-5.67-0.44-10.9,0.44-16.13,0.87
	c-4.8-0.87-8.29-5.23-12.21-8.29c-1.31-0.43-2.18-0.43-3.05,0.44c-8.29,8.29-17.44,17.44-30.09,17.01c-0.87,0-1.31-0.87-1.31-1.74
	v-0.87c5.67-4.8,12.21-10.03,14.39-17.01c1.74-5.67,6.98-10.03,8.72-15.7c0.44-0.87-0.43-1.31-1.31-1.75l-1.31,0.87
	c-6.1,6.54-10.9,13.08-15.26,20.5c-4.8,4.8-11.34,7.41-18.31,5.67c-0.87-0.44-0.87-1.74-0.44-2.62
	c26.17-16.14,29.22-44.48,36.19-70.21c5.23-17.01,8.72-34.89,22.24-48.84c20.06-21.8,45.35-35.32,67.16-54.51
	c3.49-3.05,6.54-5.67,10.9-6.1C759.14,449.5,767.42,453.42,775.27,459.53z M1014.24,644.86c2.18,3.05,1.31,7.41,2.18,10.9
	c0.43,2.62,3.49,4.36,2.18,6.98l-9.16,3.05c-1.74,0-0.87-2.18-1.74-3.05c-0.87-5.23-2.18-9.16-3.92-14.39
	c-0.44-3.05,2.62-5.23,4.8-6.98C1010.75,641.37,1012.5,643.55,1014.24,644.86z M992.88,626.11c3.49,3.05,7.85,5.23,10.46,8.72
	c0.44,1.74-0.87,3.49-1.74,4.8c-1.31,1.31-3.05,2.18-5.23,2.18s-3.92-1.31-5.23-3.05c-2.18-3.05-5.23-6.1-6.1-9.59
	C986.77,626.98,989.82,623.49,992.88,626.11z M790.97,622.62c-0.43,3.93-1.74,7.85-3.49,11.77c-1.31,2.62-4.8,1.74-7.41,1.31
	c-2.62-0.87-6.54-1.31-6.98-4.8c-0.44-3.49,1.31-6.54,3.05-9.16c3.92-0.43,8.29,0.44,12.21-0.43
	C789.66,621.31,790.97,621.75,790.97,622.62z"/>
</svg>
